<svg width="315" height="258" viewBox="0 0 315 258" fill="none" xmlns="http://www.w3.org/2000/svg">
<mask id="mask0_182_8" style="mask-type:alpha" maskUnits="userSpaceOnUse" x="0" y="0" width="315" height="258">
<rect width="315" height="258" fill="#D9D9D9"/>
</mask>
<g mask="url(#mask0_182_8)">
<path d="M96.8186 74.0731C95.3613 70.4199 91.8636 67.8213 87.7831 67.8213C84.8319 67.8213 82.1723 69.1771 80.387 71.3238C77.9096 65.5239 72.3352 61.4941 65.8136 61.4941C63.5183 61.4941 61.3687 61.9837 59.3648 62.8875C56.0858 57.4642 50.2564 53.8487 43.5526 53.8487C33.8613 53.8487 25.9188 61.4564 24.9715 71.2108C23.1862 69.1394 20.5995 67.8213 17.6483 67.8213C13.5678 67.8213 10.0701 70.4199 8.61279 74.0731H96.8186Z" fill="#8BBCFF"/>
<path d="M63.6643 120.134C63.6643 120.134 72.6998 122.431 76.0517 129.662C79.3672 136.931 92.3376 141.526 92.3376 141.526C92.3376 141.526 94.0135 153.766 92.3376 153.577C90.6616 153.351 67.7449 147.062 64.6116 142.957C61.5147 138.852 63.6643 120.134 63.6643 120.134Z" fill="#FFBB00"/>
<path d="M134.309 16.9777C134.309 16.9777 148.19 21.5725 167.245 21.4218C175.261 21.3465 173.111 22.1374 173.985 26.3932C174.896 30.6867 164.039 34.9424 154.457 34.6035C144.875 34.3022 133.216 33.6243 131.467 29.9711C129.682 26.3179 134.309 16.9777 134.309 16.9777Z" fill="#152A3B"/>
<path d="M108.15 51.137C108.15 51.137 95.2161 29.3308 99.9889 25.188C108.405 17.8439 129.354 13.9271 135.33 17.4296C137.151 18.4842 136.167 26.3178 135.621 28.0503C127.824 52.7188 147.826 52.7188 131.468 54.7149C115.109 56.711 108.15 51.137 108.15 51.137Z" fill="#152A3B"/>
<path d="M113.396 11.1401L109.898 19.6894C109.898 19.6894 112.012 22.9283 115.291 21.8738C118.533 20.8192 119.444 17.9946 119.444 17.9946L113.396 11.1401Z" fill="#FFC09C"/>
<path d="M113.725 11.5921C113.725 11.5921 113.069 11.5544 112.923 11.1778C112.741 10.8388 113.615 7.07263 113.943 6.92198C114.308 6.73367 114.963 6.77133 115.255 7.41159C115.51 8.01418 113.725 11.5921 113.725 11.5921Z" fill="#FFD8BC"/>
<path d="M127.423 7.29862C127.423 7.29862 127.569 9.78431 127.132 11.1778C126.731 12.5713 124.8 13.0609 123.379 17.0907C123.087 17.8816 119.881 20.8946 118.533 20.8192C116.602 20.7063 114.926 19.7647 114.453 19.3128C113.943 18.8608 112.558 17.9946 113.214 12.0064C113.433 10.1609 117.112 1.1974 117.841 1.04675C118.533 0.85844 127.715 2.74153 127.423 7.29862Z" fill="#FFD8BC"/>
<path d="M117.841 1.04675C117.841 1.04675 117.04 0.406497 115.838 2.21427C115 3.41945 114.344 8.46614 114.307 8.8051C114.271 9.18172 114.162 9.85963 114.162 9.85963C114.162 9.85963 114.817 9.55834 115.182 9.10639C115.546 8.65445 116.056 5.6415 117.623 4.24801C119.189 2.85452 120.282 2.40258 119.517 1.53635C118.752 0.67013 117.841 1.04675 117.841 1.04675Z" fill="#152A3B"/>
<path d="M126.221 2.21425C124.072 0.0298583 120.574 -0.233775 119.08 0.142844C117.623 0.557125 117.332 2.10126 117.332 2.10126L118.643 2.92982C118.06 3.26878 117.732 3.72072 117.623 4.24799C116.566 10.1986 123.307 12.4206 126.986 12.4583C129.391 12.4959 129.828 10.4245 129.828 10.4245C129.828 10.4245 128.334 4.39864 126.221 2.21425Z" fill="#152A3B"/>
<path d="M115.291 7.03495C115.291 7.03495 117.768 7.41157 118.897 5.79211C120.063 4.17265 117.622 2.96747 117.331 3.08046C117.039 3.2311 115.291 7.03495 115.291 7.03495Z" fill="#152A3B"/>
<path d="M13.7871 245.435H308.171C308.171 245.435 305.693 228.035 290.391 228.788C275.089 229.541 282.084 210.146 262.811 191.767C248.602 178.208 218.143 177.945 200.546 195.759C182.912 213.573 100.426 190.448 76.4165 204.007C52.4068 217.565 61.8795 230.37 44.3914 228.11C26.9032 225.851 15.2445 236.396 13.7871 245.435Z" fill="#8BBCFF"/>
<path d="M167.245 21.4218V23.6062C167.245 23.6062 169.395 25.9036 170.451 26.1295C171.508 26.3555 174.204 26.3932 174.204 26.3932C174.204 26.3932 174.641 25.301 173.767 25.0373C172.929 24.7737 171.471 24.2464 171.471 24.2464L171.18 23.6062H179.487C179.487 23.6062 179.487 23.0036 179.05 22.8153C178.612 22.627 174.933 21.4595 174.386 21.3841C173.84 21.3088 167.245 21.4218 167.245 21.4218Z" fill="#FFD8BC"/>
<path d="M101.483 253.419C101.483 256.206 84.6867 258.428 63.9195 258.428C43.1523 258.428 26.3564 256.206 26.3564 253.419C26.3564 250.67 43.1523 248.41 63.9195 248.41C84.6867 248.41 101.483 250.67 101.483 253.419Z" fill="#8BBCFF"/>
<path d="M288.606 253.419C288.606 256.206 271.774 258.428 251.043 258.428C230.276 258.428 213.443 256.206 213.443 253.419C213.443 250.67 230.276 248.41 251.043 248.41C271.774 248.41 288.606 250.67 288.606 253.419Z" fill="#8BBCFF"/>
<path d="M259.313 12.4959C259.313 16.5634 256.107 19.8777 252.172 19.8777C248.201 19.8777 244.995 16.5634 244.995 12.4959C244.995 8.39078 248.201 5.07654 252.172 5.07654C256.107 5.07654 259.313 8.39078 259.313 12.4959Z" fill="#FFCC26"/>
<path d="M280.517 21.3465C277.53 21.3465 274.907 22.7023 273.121 24.849C270.644 19.0491 265.07 15.0193 258.548 15.0193C256.253 15.0193 254.067 15.5089 252.099 16.4128C248.82 10.9895 242.954 7.37393 236.287 7.37393C226.596 7.37393 218.653 14.9816 217.706 24.7737C215.921 22.6647 213.297 21.3465 210.383 21.3465C206.302 21.3465 202.805 23.9452 201.347 27.636H289.553C288.096 23.9452 284.598 21.3465 280.517 21.3465Z" fill="#8BBCFF"/>
<path d="M231.988 243.928V41.345C231.988 40.5164 231.368 39.8385 230.53 39.8385H86.0345C85.233 39.8385 84.5771 40.5164 84.5771 41.345V243.928C84.5771 244.757 85.233 245.435 86.0345 245.435H230.53C231.368 245.435 231.988 244.757 231.988 243.928Z" fill="#106EEA"/>
<path d="M93.5762 237.902V49.1786H224.701V237.902H93.5762Z" fill="#1460C6"/>
<path d="M93.5762 236.095V49.1786H222.988V236.095H93.5762Z" fill="white"/>
<path fill-rule="evenodd" clip-rule="evenodd" d="M184.734 43.0774H131.832L132.451 39.8385L132.706 38.5956L132.816 37.9931L133.18 35.997L134.892 27.1841C135.33 24.962 136.459 23.4932 137.734 23.4932H178.831C180.107 23.4932 181.272 24.962 181.673 27.1841L183.386 35.997L183.75 37.9931L183.859 38.5956L184.114 39.8385L184.734 43.0774ZM160.578 31.3269C160.578 30.0087 159.558 28.9542 158.283 28.9542C157.008 28.9542 155.988 30.0087 155.988 31.3269C155.988 32.6451 157.008 33.7373 158.283 33.7373C159.558 33.7373 160.578 32.6451 160.578 31.3269Z" fill="#106EEA"/>
<path d="M184.114 39.8385H132.451L132.706 38.5956L132.816 37.993H183.75L183.859 38.5956L184.114 39.8385Z" fill="#1460C6"/>
<path d="M182.911 116.97H107.603V103.901H182.911V116.97Z" fill="#8BBCFF"/>
<path d="M206.885 117.045H194.206V103.901H206.885V117.045Z" fill="#8BBCFF"/>
<path d="M182.911 149.171H107.603V136.102H182.911V149.171Z" fill="#8BBCFF"/>
<path d="M206.885 149.246H194.206V136.102H206.885V149.246Z" fill="#8BBCFF"/>
<path d="M182.911 181.372H107.603V168.303H182.911V181.372Z" fill="#8BBCFF"/>
<path d="M206.885 181.447H194.206V168.303H206.885V181.447Z" fill="#8BBCFF"/>
<path d="M182.911 213.573H107.603V200.504H182.911V213.573Z" fill="#8BBCFF"/>
<path d="M206.885 213.648H194.206V200.504H206.885V213.648Z" fill="#8BBCFF"/>
<path d="M186.556 71.0602L112.595 85.8236L110.227 73.0186L184.151 58.2551L186.556 71.0602Z" fill="#8BBCFF"/>
<path d="M108.004 25.7906C106.693 23.1166 100.936 22.288 98.2764 27.3347C92.6292 38.106 96.5641 51.5513 99.6609 58.2928C103.669 66.9927 123.853 72.0394 123.853 72.0394C123.853 72.0394 125.93 64.5823 125.784 63.9797C125.638 63.3395 108.696 57.7655 110.555 39.4995C111.174 33.2853 109.534 28.8412 108.004 25.7906Z" fill="#152A3B"/>
<path d="M124.29 70.4953C124.29 70.4953 125.711 71.5121 127.569 72.0394C129.391 72.5667 133.471 71.3991 133.617 71.0225C133.763 70.6836 133.508 65.5992 132.779 65.2226C132.05 64.8836 125.784 63.9798 125.784 63.9798L124.29 70.4953Z" fill="#FFD8BC"/>
<path d="M271.3 218.055H230.749C229.547 218.055 228.563 217.038 228.563 215.795C228.563 214.59 229.547 213.573 230.749 213.573H271.3C272.502 213.573 273.486 214.59 273.486 215.795C273.486 217.038 272.502 218.055 271.3 218.055Z" fill="#FFBB00"/>
<path d="M239.493 251.461H235.303V218.055H239.493V251.461Z" fill="#152A3B"/>
<path d="M267 251.461H262.811V218.055H267V251.461Z" fill="#152A3B"/>
<path d="M29.562 157.419C29.562 157.419 32.6589 160.545 35.2092 160.695C37.796 160.846 40.2006 158.549 40.2006 158.549L36.3751 155.234L29.562 157.419Z" fill="#FFBF9D"/>
<path d="M74.5581 247.393C73.6109 247.355 73.4287 248.146 70.5504 247.242C70.5019 247.217 70.4533 247.192 70.4047 247.167C70.4047 247.167 62.6079 205.325 57.3979 185.665C55.3576 207.81 52.4794 247.167 52.4794 247.167C52.4308 247.192 52.3822 247.217 52.3336 247.242C49.4554 248.146 49.2368 247.355 48.2895 247.393C47.8523 247.431 42.5694 203.291 45.0469 173.839L69.421 172.785C73.3194 202.199 75.0682 247.431 74.5581 247.393Z" fill="#152A3B"/>
<path d="M70.4776 246.15C70.4776 246.15 70.3319 249.804 70.6598 250.933C70.9877 252.101 73.5744 252.252 74.2667 252.591C74.9954 252.929 76.562 253.72 80.3875 254.172C81.4441 254.323 81.5898 253.532 80.3147 252.854C76.0155 250.594 74.631 246.753 74.631 246.753L70.4776 246.15Z" fill="#646464"/>
<path d="M52.4794 246.15C52.4794 246.15 52.5887 249.804 52.2972 250.933C51.9693 252.101 49.3825 252.252 48.6539 252.591C47.9252 252.929 46.3585 253.72 42.533 254.172C41.4764 254.323 41.3307 253.532 42.6059 252.854C46.905 250.594 48.2895 246.753 48.2895 246.753L52.4794 246.15Z" fill="#646464"/>
<path d="M72.0079 171.73C71.9715 172.672 71.2428 173.199 70.3684 173.463C67.1987 174.404 57.981 175.271 51.3865 175.384C47.3059 175.459 44.209 175.271 44.1726 174.668C43.8083 170.827 43.3711 166.834 42.8974 162.842C40.6385 143.371 37.4324 124.088 39.1083 123.109C46.4315 118.853 55.6128 119.305 63.6646 120.134C66.7979 120.473 70.6234 129.662 70.4048 139.002C70.1498 150.79 72.3722 164.951 72.0079 171.73Z" fill="#FFBB00"/>
<path d="M50.9852 112.3C50.9852 112.3 50.3294 112.488 50.0379 112.149C49.7829 111.848 49.5278 107.818 49.8193 107.517C50.1472 107.253 50.803 107.103 51.2766 107.592C51.7138 108.119 50.9852 112.3 50.9852 112.3Z" fill="#FFD8BC"/>
<path d="M53.8273 123.297C52.9529 123.034 52.2606 122.393 51.8599 121.941C51.5684 121.64 51.4591 121.226 51.4955 120.774L52.2242 113.957L60.4218 113.43L60.5675 121.037C59.4016 123.41 56.0862 124.05 53.8273 123.297Z" fill="#FFC09C"/>
<path d="M63.4828 103.675C63.4828 103.675 64.4301 105.031 63.5192 107.517C62.1348 111.396 63.3006 110.492 62.3169 114.786C62.0983 115.652 60.386 119.041 58.8557 119.908C57.1069 120.962 54.6294 120.134 53.9736 119.832C53.3543 119.531 51.7147 119.079 50.6217 112.903C50.2574 110.944 51.314 100.813 52.0062 100.399C52.662 100.022 62.4627 99.0053 63.4828 103.675Z" fill="#FFD8BC"/>
<path d="M52.0058 100.399C52.0058 100.399 51.1314 100.323 51.0221 101.905C50.8764 103.449 50.6942 108.948 50.7671 109.325C50.8399 109.701 50.8035 110.492 50.8035 110.492C50.8035 110.492 51.2771 110.492 51.4957 109.927C51.7508 109.362 51.6051 105.596 52.7345 103.675C53.9004 101.792 54.8476 101.001 53.8275 100.361C52.8438 99.7209 52.0058 100.399 52.0058 100.399Z" fill="#152A3B"/>
<path d="M6.53613 146.271L11.7097 131.169L81.2251 156.929L76.0515 172.032L6.53613 146.271Z" fill="#FFBB00"/>
<path d="M7.99365 141.978L10.2525 135.424L79.7679 161.185L77.509 167.738L7.99365 141.978Z" fill="#FFCC26"/>
<path d="M76.0518 172.032L81.2253 156.929L90.0787 164.424L93.8314 167.588L98.9321 171.919L92.3376 171.956H87.4919L76.0518 172.032Z" fill="#FFBF9D"/>
<path d="M92.3374 171.956L93.8312 167.588L98.9319 171.919L92.3374 171.956Z" fill="#152A3B"/>
<path d="M9.19611 147.25L3.80393 145.254C1.61791 144.463 0.452036 141.978 1.25358 139.68L3.8768 132.035C3.90109 131.959 3.92538 131.897 3.94966 131.846C4.6419 130.114 6.53645 129.248 8.24883 129.888L14.3697 132.148L10.6535 142.957L9.19611 147.25Z" fill="#8BBCFF"/>
<path d="M10.6536 142.957L5.29786 140.998C3.11184 140.17 1.94597 137.684 2.71107 135.424L3.94982 131.846C4.64205 130.114 6.5366 129.248 8.24898 129.888L14.3698 132.148L10.6536 142.957Z" fill="#EFEDFF"/>
<path d="M39.1086 123.109C39.1086 123.109 18.2321 139.266 18.4143 143.785C18.5964 148.305 21.9848 154.707 27.5591 158.097C27.5591 158.097 31.6397 159.867 34.4086 156.59C34.4086 156.59 29.7816 147.627 30.5102 146.874C31.9676 145.367 45.1566 139.19 45.1566 139.19C45.1566 139.19 49.7108 123.523 39.1086 123.109Z" fill="#FFBB00"/>
<path d="M52.1517 102.809C52.1517 102.809 52.3339 107.216 55.6129 105.596C56.6331 105.069 57.8354 105.37 58.4912 106.349C59.7664 108.232 60.6408 109.249 62.3167 108.006C64.0291 106.764 63.4462 109.664 65.6322 108.571C67.0167 107.856 66.6888 106.387 65.8508 105.483C65.5957 105.22 65.4864 104.881 65.5229 104.504C65.6322 103.11 65.5593 99.9092 62.7904 99.3819C62.3896 99.3066 62.0253 99.3066 61.6973 99.3819C60.9322 99.5702 60.1307 99.2689 59.6571 98.6287C58.7827 97.3858 57.0703 95.917 54.0463 96.7079C47.3061 98.5534 50.1115 106.538 50.7673 109.325C51.2045 111.208 52.1517 102.809 52.1517 102.809Z" fill="#152A3B"/>
<path d="M245.723 88.347C245.723 88.347 242.699 96.1807 245.869 99.4196C249.039 102.659 254.722 98.591 255.196 98.1014C255.67 97.6118 245.723 88.347 245.723 88.347Z" fill="#FFD8BC"/>
<path d="M245.541 144.765C245.541 144.765 234.356 142.053 234.647 145.179C237.525 176.137 240.95 213.384 241.315 213.648C242.626 214.552 243.901 213.271 243.938 213.234C243.938 213.234 248.638 153.389 245.541 144.765Z" fill="#FFBF9D"/>
<path d="M261.062 146.459C261.062 146.459 250.46 141.94 250.278 145.103C248.383 176.137 246.088 213.46 246.379 213.799C247.545 214.891 249.002 213.836 249.075 213.799C249.075 213.799 262.811 155.498 261.062 146.459Z" fill="#FFBF9D"/>
<path d="M259.787 105.031C257.965 104.165 255.67 103.261 252.865 102.508C253.192 102.32 244.813 102.847 245.578 102.696C242.445 103.525 240.149 104.617 238.364 105.558C237.38 106.123 239.712 107.253 239.858 108.421L245.068 132.637L236.797 139.906C236.797 140.923 238.4 141.752 239.676 141.752L245.541 141.714C247.655 141.563 248.748 140.659 249.148 139.793C249.695 140.471 250.715 141.111 252.427 141.224H258.33C259.568 141.224 258.803 144.011 258.803 142.994L254.395 132.487L260.151 109.287C260.406 107.668 261.208 105.709 259.787 105.031Z" fill="#FFCC26"/>
<path d="M241.715 114.371C241.715 114.371 234.647 133.918 219.09 170.525C219.09 170.525 237.999 187.548 273.886 175.76C273.886 175.76 269.15 142.429 256.398 125.934L241.715 114.371Z" fill="#FFCC26"/>
<path d="M213.735 90.682C212.022 87.4054 205.428 88.008 205.428 87.4808C205.428 86.9158 205.537 86.3509 206.156 86.2379C206.812 86.1626 216.504 85.8236 216.831 86.2379C217.159 86.6899 217.815 89.0249 217.815 89.0249C217.815 89.0249 214.245 91.6989 213.735 90.682Z" fill="#FFD8BC"/>
<path d="M251.115 81.4549C251.115 81.4549 242.189 82.9614 246.015 92.5275C250.022 102.546 249.585 104.391 247.217 113.129C245.286 120.284 244.375 128.608 251.771 131.395C259.24 134.182 273.413 126.687 270.024 113.43C267.765 104.768 266.272 106.575 264.596 99.156C263.466 94.1846 264.341 90.5691 262.045 86.3509C259.969 82.5094 256.507 80.4757 251.115 81.4549Z" fill="#152A3B"/>
<path d="M240.95 211.162C240.95 211.162 234.428 212.405 234.283 213.045C234.101 213.648 234.101 213.648 234.101 213.648H244.703C244.703 213.648 244.958 213.309 244.703 212.029C244.448 210.786 244.266 210.484 244.047 210.484C243.828 210.484 240.95 211.162 240.95 211.162Z" fill="#383266"/>
<path d="M246.926 211.162C246.926 211.162 240.404 212.405 240.259 213.045C240.113 213.648 240.113 213.648 240.113 213.648H250.679C250.679 213.648 250.934 213.309 250.679 212.029C250.424 210.786 250.241 210.484 250.059 210.484C249.841 210.484 246.926 211.162 246.926 211.162Z" fill="#383266"/>
<path d="M241.715 114.371C241.715 114.371 222.806 112.375 220.839 110.229C218.835 108.082 213.261 90.682 213.734 90.682C214.208 90.7197 218.689 88.4223 219.09 88.7236C219.491 89.0625 225.248 104.278 227.47 104.617C229.729 104.918 245.067 102.847 245.067 102.847L241.715 114.371Z" fill="#FFCC26"/>
<path d="M217.305 85.8613H204.626V72.7173H217.305V85.8613Z" fill="#8BBCFF"/>
</g>
</svg>
