<svg width="152" height="161" viewBox="0 0 152 161" fill="none" xmlns="http://www.w3.org/2000/svg">
<g opacity="0.15">
<path d="M131.833 100.314C134.473 93.4057 135.831 85.925 135.686 78.1998C140.322 74.1838 157.418 70.0647 157.418 70.0647L156.158 63.4354C149.278 64.8073 135.369 63.0147 133.396 62.7486C131.722 56.9424 129.199 51.5928 126.015 46.7852C127.855 41.0215 135.421 34.3065 135.421 34.3065L131.085 29.2479C125.817 34.0347 119.266 37.1136 118.353 37.5301C115.243 34.4836 111.825 31.8022 108.132 29.5672C106.989 23.5498 112.235 5.91606 112.235 5.91606L106.054 3.70435C103.57 11.0429 94.056 23.465 93.9964 23.5432C88.7609 22.1338 83.2782 21.5078 77.6739 21.753C73.8886 17.1018 71.9722 6.91796 71.9722 6.91796L65.557 8.24333C66.9919 15.764 66.1634 23.2538 66.1344 23.5066C61.3578 24.7671 56.8768 26.6362 52.7404 29.0292C46.9163 26.7111 34.9363 13.6155 34.9363 13.6155L29.9625 18.1312C34.4178 23.3952 39.5212 35.7001 40.6316 38.4489C36.2504 42.9621 32.6528 48.2104 29.9287 53.9425C24.107 54.6684 15.8568 51.7042 15.8568 51.7042L13.7817 58.1988C19.2475 60.0796 24.045 63.1702 26.0806 64.5803C24.8236 69.4901 24.194 74.6095 24.2519 79.8486C18.2483 83.5786 3.62476 87.1123 3.62476 87.1123L4.90183 93.8223C10.9079 92.6216 21.9885 93.8422 26.1845 94.3785C27.8424 100.687 30.4827 106.485 33.896 111.652C31.5311 117.178 24.9927 122.967 24.9927 122.967L29.3844 128.085C33.718 124.144 38.7281 121.415 40.9247 120.314C46.5878 126.045 53.383 130.478 60.8562 133.305C62.9272 139.876 62.0962 156.533 62.0962 156.533L68.6942 157.127C69.228 150.999 73.2058 140.802 74.9499 136.562C79.8077 137.014 84.7912 136.874 89.8238 135.942C92.3514 135.474 94.7791 134.779 97.1561 133.986C101.11 138.393 103.743 146.566 103.743 146.566L109.991 144.301C107.795 137.78 107.396 130.991 107.331 129.391C114.238 125.372 120.148 119.928 124.767 113.484C131.643 114.678 145.053 121.964 145.053 121.964L148.344 116.03C142.354 112.466 133.488 102.252 131.833 100.314ZM67.831 23.1025C67.7609 23.1191 67.6909 23.1366 67.6208 23.1532C67.6925 23.1366 67.7577 23.1191 67.831 23.1025Z" fill="#106EEA"/>
<g opacity="0.2">
<path d="M119.623 93.7217C116.876 92.7955 116.435 86.9652 114.36 79.3515C114.153 78.3953 113.782 77.4141 113.513 76.4039C113.212 75.3953 112.825 74.3685 112.487 73.3158C111.677 71.233 110.842 69.0529 109.728 66.9036C107.58 62.5758 104.655 58.3103 101.016 54.6377C97.3092 51.035 93.0593 48.1955 88.782 46.1592C86.6554 45.1 84.5111 44.3292 82.4618 43.5809C81.4288 43.2757 80.419 42.9182 79.4302 42.6504C78.4414 42.416 77.476 42.0742 76.5427 41.9013C69.0889 40.0779 63.4306 39.8667 62.4201 37.0713C62.1874 36.397 62.2872 35.632 62.7349 34.7781C63.1882 33.9508 63.9645 32.9239 65.1385 32.0243C67.4502 30.1019 71.2935 28.2419 76.4163 27.23C77.6974 26.9315 79.0477 26.8351 80.4738 26.6763C81.8974 26.5507 83.383 26.5582 84.9331 26.5665C88.0122 26.7203 91.3402 27.1061 94.7438 28.0598C98.1362 29.0193 101.678 30.3131 105.09 32.2829C108.511 34.2177 111.866 36.6697 114.927 39.6646C117.951 42.697 120.462 46.0545 122.476 49.5026C124.524 52.9399 125.924 56.5393 126.993 59.999C128.058 63.4696 128.57 66.8861 128.847 70.0573C128.92 71.6562 128.989 73.1886 128.927 74.662C128.833 76.1403 128.796 77.5372 128.56 78.8717C127.796 84.1998 126.156 88.2424 124.393 90.7077C123.57 91.9565 122.61 92.8005 121.828 93.3027C121.021 93.7982 120.284 93.9338 119.623 93.7217Z" fill="white"/>
</g>
<path d="M36.0677 9.98642C36.8713 10.9052 35.3011 13.723 32.5594 16.2798C31.6326 17.1445 30.6905 17.8679 29.8184 18.4125C28.1114 19.4776 26.6725 19.8535 26.1402 19.2448C25.3366 18.3261 26.9068 15.5082 29.6485 12.9514C32.3903 10.3947 35.2641 9.06682 36.0677 9.98642Z" fill="#106EEA"/>
<path opacity="0.3" d="M30.0674 18.2562C30.0674 18.2562 33.285 16.0636 34.9365 13.6174C35.7852 14.5296 36.7579 15.5697 37.7628 16.5958C37.7628 16.5958 33.2431 19.3554 30.9724 19.4277L30.0674 18.2562Z" fill="black"/>
<path d="M15.0532 47.9834C16.1974 48.3559 16.224 51.607 15.1136 55.2447C14.7384 56.4752 14.2802 57.5919 13.7955 58.5165C12.8453 60.3274 11.7889 61.4033 11.032 61.1572C9.88778 60.7847 9.86121 57.5345 10.9716 53.896C12.082 50.2583 13.909 47.6109 15.0532 47.9834Z" fill="#106EEA"/>
<path opacity="0.3" d="M13.9333 58.2529C13.9333 58.2529 15.8739 54.8531 15.8578 51.7068C17.0262 52.1234 18.3177 52.505 19.6874 52.865C19.6874 52.865 17.2122 57.5063 15.2901 58.756L13.9333 58.2529Z" fill="black"/>
<path d="M1.1552 84.278C2.3292 84.0228 3.89696 86.8423 4.65789 90.5747C4.91556 91.8369 5.0468 93.0417 5.06371 94.0935C5.09592 96.153 4.68687 97.6256 3.91064 97.7944C2.73664 98.0496 1.16889 95.2301 0.407964 91.4977C-0.352964 87.7652 -0.0188048 84.5324 1.1552 84.278Z" fill="#106EEA"/>
<path opacity="0.3" d="M5.05804 93.7932C5.05804 93.7932 4.84144 89.8179 3.62476 87.114C4.81486 86.8155 6.17488 86.4704 7.53891 86.0896C7.53891 86.0896 7.57433 91.5116 6.49293 93.5737L5.05804 93.7932Z" fill="black"/>
<path d="M21.4715 121.815C22.3589 120.981 25.0934 122.592 27.5791 125.413C28.4197 126.367 29.1243 127.337 29.6541 128.236C30.6921 129.995 31.0609 131.479 30.4738 132.031C29.5865 132.865 26.8528 131.253 24.3663 128.432C21.8806 125.61 20.5842 122.648 21.4715 121.815Z" fill="#106EEA"/>
<path opacity="0.3" d="M29.5028 127.98C29.5028 127.98 27.633 124.538 24.9919 122.969C25.9284 122.136 26.8979 121.176 27.8875 120.135C27.8875 120.135 30.527 124.679 30.6059 127.023L29.5028 127.98Z" fill="black"/>
<path d="M58.7705 158.2C58.8583 156.965 61.9165 156.191 65.6003 156.47C66.846 156.565 68.0039 156.768 68.9871 157.043C70.9123 157.582 72.1693 158.396 72.1113 159.213C72.0236 160.449 68.9653 161.223 65.2815 160.943C61.5976 160.663 58.6819 159.435 58.7705 158.2Z" fill="#106EEA"/>
<path opacity="0.3" d="M68.7069 156.965C68.7069 156.965 64.9482 156.078 62.0945 156.536C62.1468 155.272 62.2024 153.827 62.2265 152.367C62.2265 152.367 67.2817 153.835 68.9002 155.48L68.7069 156.965Z" fill="black"/>
<path d="M101.376 149.5C100.964 148.337 103.441 146.331 106.91 145.019C108.083 144.576 109.218 144.269 110.225 144.101C112.193 143.772 113.664 143.98 113.937 144.75C114.349 145.913 111.871 147.919 108.403 149.231C104.935 150.542 101.788 150.662 101.376 149.5Z" fill="#106EEA"/>
<path opacity="0.3" d="M109.938 144.149C109.938 144.149 106.145 144.636 103.741 146.569C103.347 145.358 102.853 144.07 102.292 142.73C102.292 142.73 107.364 141.923 109.495 142.733L109.938 144.149Z" fill="black"/>
<path d="M145.12 125.781C144.071 125.18 144.674 121.989 146.467 118.654C147.073 117.527 147.737 116.527 148.392 115.721C149.674 114.143 150.917 113.306 151.611 113.704C152.66 114.306 152.056 117.496 150.263 120.831C148.471 124.166 146.168 126.382 145.12 125.781Z" fill="#106EEA"/>
<path opacity="0.3" d="M148.206 115.95C148.206 115.95 145.848 119.101 145.052 121.967C143.963 121.387 142.717 120.729 141.445 120.093C141.445 120.093 144.857 115.972 146.982 115.145L148.206 115.95Z" fill="black"/>
<path opacity="0.3" d="M57.86 91.7453C58.6225 96.1354 56.9219 100.123 54.0618 100.653C51.2017 101.182 48.2651 98.0528 47.5025 93.6635C46.74 89.2741 48.4406 85.2856 51.3007 84.756C54.1608 84.2263 57.0975 87.3551 57.86 91.7453Z" fill="black"/>
<path d="M55.1351 87.6064C55.8977 91.9965 54.1971 95.9843 51.3369 96.5139C48.4768 97.0435 45.5402 93.9139 44.7777 89.5246C44.0151 85.1344 45.7157 81.1467 48.5759 80.617C51.436 80.0874 54.3726 83.217 55.1351 87.6064Z" fill="#106EEA"/>
<path opacity="0.2" d="M55.1351 87.6064C55.8977 91.9965 54.1971 95.9843 51.3369 96.5139C48.4768 97.0435 45.5402 93.9139 44.7777 89.5246C44.0151 85.1344 45.7157 81.1467 48.5759 80.617C51.436 80.0874 54.3726 83.217 55.1351 87.6064Z" fill="white"/>
<path opacity="0.3" d="M47.8367 46.4595C51.2363 43.7082 55.4451 43.3922 57.2375 45.7536C59.03 48.115 57.7271 52.2598 54.3283 55.0112C50.9287 57.7625 46.7198 58.0784 44.9274 55.7171C43.1342 53.3557 44.437 49.2108 47.8367 46.4595Z" fill="black"/>
<path d="M44.834 42.7088C48.2336 39.9574 52.4424 39.6415 54.2348 42.0029C56.0272 44.3642 54.7244 48.5091 51.3256 51.2604C47.926 54.0117 43.7171 54.3277 41.9247 51.9663C40.1323 49.6041 41.4352 45.4593 44.834 42.7088Z" fill="#106EEA"/>
<path opacity="0.2" d="M44.834 42.7088C48.2336 39.9574 52.4424 39.6415 54.2348 42.0029C56.0272 44.3642 54.7244 48.5091 51.3256 51.2604C47.926 54.0117 43.7171 54.3277 41.9247 51.9663C40.1323 49.6041 41.4352 45.4593 44.834 42.7088Z" fill="white"/>
<path opacity="0.3" d="M77.2399 112.809C77.7416 115.699 75.8799 118.461 73.0818 118.979C70.2837 119.497 67.608 117.575 67.1063 114.686C66.6047 111.796 68.4663 109.033 71.2645 108.515C74.0634 107.997 76.7383 109.92 77.2399 112.809Z" fill="black"/>
<path d="M76.7536 110.007C77.2553 112.896 75.3936 115.659 72.5955 116.178C69.7974 116.696 67.1216 114.773 66.62 111.884C66.1183 108.995 67.98 106.232 70.7781 105.713C73.5762 105.194 76.252 107.117 76.7536 110.007Z" fill="#106EEA"/>
<path opacity="0.3" d="M76.7536 110.007C77.2553 112.896 75.3936 115.659 72.5955 116.178C69.7974 116.696 67.1216 114.773 66.62 111.884C66.1183 108.995 67.98 106.232 70.7781 105.713C73.5762 105.194 76.252 107.117 76.7536 110.007Z" fill="white"/>
<path opacity="0.3" d="M98.8564 62.9442C102.267 62.1514 104.41 58.6534 103.642 55.1312C102.875 51.609 99.487 49.3964 96.076 50.1892C92.6651 50.982 90.5223 54.4801 91.2901 58.0023C92.0579 61.5245 95.4454 63.7371 98.8564 62.9442Z" fill="black"/>
<path d="M104.626 57.1189C102.748 60.1645 98.8359 61.0617 95.8864 59.1227C92.9369 57.1837 92.0681 53.1436 93.9458 50.0979C95.8236 47.0523 99.7361 46.1551 102.686 48.0941C105.634 50.0331 106.503 54.074 104.626 57.1189Z" fill="#106EEA"/>
<path opacity="0.3" d="M104.626 57.1189C102.748 60.1645 98.8359 61.0617 95.8864 59.1227C92.9369 57.1837 92.0681 53.1436 93.9458 50.0979C95.8236 47.0523 99.7361 46.1551 102.686 48.0941C105.634 50.0331 106.503 54.074 104.626 57.1189Z" fill="white"/>
<path opacity="0.3" d="M103.939 113.192C104.307 115.311 102.942 117.337 100.889 117.717C98.8367 118.097 96.8752 116.688 96.5072 114.568C96.1392 112.45 97.504 110.424 99.5565 110.044C101.608 109.664 103.571 111.073 103.939 113.192Z" fill="black"/>
<path d="M103.582 111.138C103.95 113.256 102.585 115.283 100.532 115.663C98.48 116.043 96.5185 114.633 96.1505 112.514C95.7825 110.395 97.1474 108.369 99.1999 107.989C101.252 107.609 103.214 109.018 103.582 111.138Z" fill="#106EEA"/>
<path opacity="0.3" d="M103.582 111.138C103.95 113.256 102.585 115.283 100.532 115.663C98.48 116.043 96.5185 114.633 96.1505 112.514C95.7825 110.395 97.1474 108.369 99.1999 107.989C101.252 107.609 103.214 109.018 103.582 111.138Z" fill="white"/>
<path d="M138.898 35.4508C138.021 36.2739 135.321 34.6808 132.866 31.8929C132.036 30.95 131.341 29.9913 130.817 29.1033C129.793 27.3656 129.428 25.8988 130.009 25.3542C130.886 24.5311 133.586 26.1242 136.041 28.9121C138.496 31.7 139.775 34.6276 138.898 35.4508Z" fill="#106EEA"/>
<path opacity="0.3" d="M130.967 29.3562C130.967 29.3562 132.813 32.7569 135.422 34.3076C134.496 35.1308 133.538 36.0786 132.56 37.1072C132.56 37.1072 129.954 32.6172 129.878 30.3016L130.967 29.3562Z" fill="black"/>
<path d="M115.809 5.15204C115.436 6.31361 112.326 6.29366 108.862 5.10798C107.691 4.70721 106.63 4.22413 105.752 3.71527C104.034 2.72 103.02 1.62662 103.266 0.858339C103.639 -0.303222 106.749 -0.283259 110.213 0.902415C113.677 2.08809 116.182 3.99048 115.809 5.15204Z" fill="#106EEA"/>
<path opacity="0.3" d="M106.002 3.85986C106.002 3.85986 109.395 5.64586 112.236 5.91858C111.892 7.11672 111.5 8.48616 111.136 9.87804C111.136 9.87804 106.637 7.21318 105.47 5.23428L106.002 3.85986Z" fill="black"/>
<path d="M74.6777 4.39137C74.9257 5.58786 72.2338 7.19674 68.6651 7.98497C67.4581 8.25104 66.3059 8.38991 65.3001 8.41069C63.3306 8.4506 61.9199 8.03819 61.7556 7.24663C61.5076 6.05015 64.1994 4.44126 67.7681 3.65303C71.336 2.8648 74.4297 3.19489 74.6777 4.39137Z" fill="#106EEA"/>
<path opacity="0.3" d="M65.5869 8.40408C65.5869 8.40408 69.3618 8.46812 71.9723 6.91992C72.1953 8.15964 72.5069 9.49165 72.8757 10.8819C72.8757 10.8819 67.8069 10.9484 65.8309 9.85251L65.5869 8.40408Z" fill="black"/>
<path opacity="0.3" d="M115.152 97.1306C113.837 101.379 110.527 104.082 107.76 103.168C104.992 102.254 103.815 98.0693 105.131 93.8213C106.446 89.5733 109.756 86.8702 112.523 87.784C115.291 88.6986 116.468 92.8826 115.152 97.1306Z" fill="black"/>
<path d="M116.996 94.5698C115.68 98.8177 112.371 101.521 109.603 100.607C106.836 99.6933 105.658 95.5085 106.974 91.2605C108.29 87.0126 111.599 84.3094 114.368 85.2232C117.133 86.137 118.311 90.3218 116.996 94.5698Z" fill="#106EEA"/>
<path opacity="0.3" d="M116.996 94.5698C115.68 98.8177 112.371 101.521 109.603 100.607C106.836 99.6933 105.658 95.5085 106.974 91.2605C108.29 87.0126 111.599 84.3094 114.368 85.2232C117.133 86.137 118.311 90.3218 116.996 94.5698Z" fill="white"/>
<path opacity="0.3" d="M87.3785 76.1296C88.141 80.5198 85.3131 84.7162 81.0615 85.5036C76.81 86.291 72.7461 83.3701 71.9835 78.9807C71.221 74.5906 74.0497 70.3942 78.3004 69.6068C82.5512 68.8194 86.6159 71.7395 87.3785 76.1296Z" fill="black"/>
<path d="M86.5762 71.509C87.3387 75.8992 84.51 80.0956 80.2593 80.883C76.0078 81.6704 71.9439 78.7495 71.1813 74.3601C70.4188 69.97 73.2467 65.7735 77.4982 64.9861C81.7489 64.1987 85.8137 67.1189 86.5762 71.509Z" fill="#106EEA"/>
<path opacity="0.2" d="M86.5762 71.509C87.3387 75.8992 84.51 80.0956 80.2593 80.883C76.0078 81.6704 71.9439 78.7495 71.1813 74.3601C70.4188 69.97 73.2467 65.7735 77.4982 64.9861C81.7489 64.1987 85.8137 67.1189 86.5762 71.509Z" fill="white"/>
<g opacity="0.3">
<path d="M114.878 115.929C115.318 116.459 114.8 117.842 113.28 119.797C111.766 121.753 109.175 124.198 105.523 126.611C103.701 127.824 101.592 128.968 99.2528 130.054C96.8935 131.078 94.3087 132.072 91.4913 132.79C85.8789 134.284 79.3873 134.897 72.6485 134.119C65.9145 133.279 59.7304 131.143 54.5996 128.357C52.0172 126.991 49.7216 125.411 47.653 123.854C45.6174 122.243 43.8186 120.63 42.3152 119.017C39.2965 115.802 37.3189 112.809 36.2809 110.546C35.2358 108.283 35.0401 106.815 35.586 106.403C36.7826 105.499 40.4479 109.085 46.8486 113.368C48.4413 114.448 50.2369 115.526 52.171 116.625C54.1382 117.671 56.2334 118.763 58.5218 119.698C63.0696 121.619 68.2673 123.114 73.8088 123.813C79.3559 124.446 84.7452 124.223 89.5982 123.432C92.0324 123.064 94.3152 122.498 96.4619 121.948C98.5885 121.336 100.576 120.712 102.366 120.039C109.549 117.388 113.915 114.765 114.878 115.929Z" fill="black"/>
</g>
<g opacity="0.3">
<path d="M31.3774 86.5006C34.0837 85.8645 36.7506 87.4984 37.3352 90.1499C37.9205 92.8023 36.2014 95.4672 33.4951 96.1032C30.7912 96.7393 28.1235 95.1055 27.5389 92.4531C26.9535 89.8015 28.6735 87.1367 31.3774 86.5006Z" fill="black"/>
</g>
</g>
</svg>
