<svg width="33" height="35" viewBox="0 0 33 35" fill="none" xmlns="http://www.w3.org/2000/svg">
<path d="M27.7234 18.5375C27.9 17.0176 27.7833 15.4504 27.3413 13.9207C28.1007 12.8699 31.3498 11.1384 31.3498 11.1384L30.7416 9.89348C29.302 10.5912 26.0571 10.9769 26.0571 10.9769C26.1315 11.093 26.2143 11.2508 26.3002 11.4298C24.7113 8.57664 22.083 6.6141 19.1187 5.79728C18.5703 4.6588 18.7118 0.892102 18.7118 0.892102L17.3296 0.791138C17.2117 2.34921 15.9717 5.23922 15.9149 5.37224C14.7685 5.37828 13.6119 5.55542 12.4777 5.90972C11.4474 5.21079 10.5242 3.28875 10.5242 3.28875L9.28112 3.90183C9.93954 5.24708 10.1771 6.7066 10.205 6.88617C9.28898 7.39887 8.4649 8.01859 7.74179 8.72296C6.41589 8.56455 3.29854 6.63828 3.29854 6.63828L2.5192 7.80455C3.70665 8.60263 5.39592 10.7544 5.7744 11.246C5.11236 12.3857 4.645 13.6281 4.39106 14.9208C3.23627 15.3718 1.40733 15.2291 1.40733 15.2291L1.32631 16.6294C2.53492 16.7032 3.6734 17.0496 4.17038 17.2195C4.1722 18.2661 4.31428 19.3217 4.6057 20.3616C3.56336 21.4275 0.776123 22.9149 0.776123 22.9149L1.39222 24.1749C2.55487 23.6108 4.88079 23.2474 5.77259 23.1241C6.44793 24.2891 7.29861 25.3001 8.27566 26.1399C8.07674 27.3612 7.04468 28.8545 7.04468 28.8545L8.21399 29.629C8.88813 28.6175 9.7648 27.8055 10.1596 27.4633C11.6246 28.2922 13.2552 28.8031 14.9378 28.9549C15.7063 30.1532 16.4124 33.4816 16.4124 33.4816L17.794 33.2391C17.5812 32.0082 17.8508 29.7844 17.985 28.8328C19.0038 28.6574 20.0165 28.3473 20.9978 27.8872C21.4936 27.655 21.9633 27.3902 22.4107 27.1012C23.447 27.7638 24.4084 29.233 24.4084 29.233L25.5674 28.4428C24.7802 27.2813 24.3413 25.9724 24.2379 25.6435C25.4428 24.4675 26.3673 23.0582 26.9725 21.5243C28.4496 21.3919 31.5621 22.1017 31.5621 22.1017L31.9218 20.7461C30.5348 20.3719 28.2271 18.8719 27.7234 18.5375ZM11.4746 6.27188C11.3398 6.3275 11.2044 6.38252 11.0701 6.44419C11.2038 6.38192 11.3404 6.32448 11.4746 6.27188Z" fill="white" fill-opacity="0.2"/>
<path d="M24.9572 5.252L23.8024 4.48596C22.9142 5.8167 21.5532 6.87597 21.5532 6.87597C22.3277 7.26836 23.708 8.21637 23.708 8.21637C23.7655 6.9733 24.9572 5.252 24.9572 5.252Z" fill="white" fill-opacity="0.2"/>
<path d="M24.8648 17.8901C24.2535 17.8563 23.8551 16.7251 23.028 15.329C22.9349 15.1507 22.8073 14.9766 22.6991 14.7909C22.5842 14.6078 22.4506 14.4252 22.3255 14.2347C22.0498 13.8659 21.7638 13.4796 21.4222 13.1144C20.7535 12.3737 19.93 11.6881 18.991 11.1591C18.0418 10.6476 17.0218 10.3169 16.0388 10.1464C15.5472 10.0526 15.0678 10.017 14.6089 9.9801C14.3815 9.97587 14.156 9.96014 13.9396 9.96135C13.7249 9.96861 13.5091 9.95409 13.309 9.97041C11.6868 10.0158 10.5181 10.283 10.1632 9.7842C10.0798 9.66328 10.0598 9.50608 10.1064 9.31261C10.1553 9.12397 10.2599 8.8779 10.4528 8.63545C10.824 8.12819 11.5127 7.54957 12.5073 7.06951C12.7539 6.94012 13.0248 6.84763 13.3084 6.7382C13.5931 6.63542 13.8972 6.5562 14.2153 6.47276C14.8537 6.33491 15.5551 6.23032 16.3018 6.23334C17.0466 6.23818 17.8399 6.30167 18.6428 6.50542C19.4451 6.70192 20.2613 7.00483 21.0461 7.43168C21.8254 7.86761 22.5171 8.39603 23.1114 8.9692C23.7124 9.53874 24.1888 10.176 24.5909 10.803C24.9924 11.433 25.2777 12.0823 25.5021 12.6954C25.6018 13.0086 25.6967 13.3084 25.762 13.6035C25.8207 13.9016 25.8872 14.1803 25.9096 14.4578C26.0347 15.5558 25.9132 16.4464 25.6822 17.031C25.58 17.3236 25.4277 17.5431 25.2947 17.6852C25.1556 17.8291 25.0117 17.8962 24.8648 17.8901Z" fill="white" fill-opacity="0.2"/>
<path d="M3.33841 5.85536C3.55123 5.99382 3.37892 6.63773 2.95327 7.29433C2.80938 7.51622 2.6546 7.7109 2.50465 7.86689C2.21142 8.171 1.93693 8.32397 1.79606 8.23268C1.58263 8.09422 1.75555 7.45032 2.18119 6.79371C2.60683 6.13711 3.12558 5.71691 3.33841 5.85536Z" fill="white" fill-opacity="0.2"/>
<path d="M2.54761 7.82225C2.54761 7.82225 3.08994 7.21219 3.29913 6.63721C3.52102 6.77143 3.77496 6.9244 4.03494 7.07313C4.03494 7.07313 3.2556 7.86699 2.79489 8.00484L2.54761 7.82225Z" fill="white" fill-opacity="0.2"/>
<path d="M1.04634 14.5332C1.30027 14.5447 1.47742 15.1874 1.44235 15.9692C1.43026 16.2334 1.3958 16.4801 1.34562 16.6899C1.24707 17.1004 1.08745 17.3719 0.919973 17.364C0.666038 17.3525 0.48889 16.7098 0.523957 15.9281C0.558419 15.1463 0.792401 14.5217 1.04634 14.5332Z" fill="white" fill-opacity="0.2"/>
<path d="M1.36011 16.63C1.36011 16.63 1.57777 15.85 1.40787 15.2273C1.66906 15.246 1.95323 15.2515 2.25311 15.2478C2.25311 15.2478 1.99192 16.3029 1.66423 16.6554L1.36011 16.63Z" fill="white" fill-opacity="0.2"/>
<path d="M0.120626 22.4851C0.347353 22.3702 0.817132 22.8436 1.17022 23.5419C1.28993 23.7783 1.38002 24.0099 1.43927 24.2173C1.55475 24.6236 1.5487 24.938 1.39876 25.0135C1.17204 25.1278 0.702256 24.655 0.349166 23.9567C-0.00392374 23.259 -0.106101 22.5999 0.120626 22.4851Z" fill="white" fill-opacity="0.2"/>
<path d="M1.42245 24.1586C1.42245 24.1586 1.16791 23.3823 0.776123 22.9132C1.00406 22.7892 1.26404 22.6465 1.52342 22.4966C1.52342 22.4966 1.81725 23.5692 1.7048 24.0371L1.42245 24.1586Z" fill="white" fill-opacity="0.2"/>
<path d="M6.26298 28.816C6.40023 28.6026 7.04534 28.7725 7.70315 29.1957C7.92565 29.339 8.12094 29.4926 8.27692 29.6419C8.58225 29.9339 8.73642 30.2078 8.64513 30.3493C8.50788 30.5627 7.86277 30.3928 7.20496 29.9696C6.54714 29.5458 6.12573 29.0295 6.26298 28.816Z" fill="white" fill-opacity="0.2"/>
<path d="M8.23273 29.5995C8.23273 29.5995 7.66803 29.0197 7.04468 28.8528C7.1922 28.6363 7.33972 28.3933 7.48725 28.1327C7.48725 28.1327 8.2678 28.8891 8.40746 29.3498L8.23273 29.5995Z" fill="white" fill-opacity="0.2"/>
<path d="M15.8198 33.9913C15.7726 33.7416 16.3573 33.4212 17.1264 33.2755C17.3863 33.2265 17.6342 33.2035 17.8501 33.2041C18.2727 33.2059 18.5726 33.2984 18.604 33.4641C18.6512 33.7138 18.0665 34.0342 17.2975 34.1793C16.5284 34.3251 15.867 34.241 15.8198 33.9913Z" fill="white" fill-opacity="0.2"/>
<path d="M17.7885 33.2042C17.7885 33.2042 16.9723 33.2332 16.4125 33.4799C16.3562 33.2265 16.2915 32.9369 16.219 32.6467C16.219 32.6467 17.3309 32.6618 17.7493 32.8995L17.7885 33.2042Z" fill="white" fill-opacity="0.2"/>
<path d="M24.0795 29.9411C23.9338 29.7331 24.3346 29.2005 24.9749 28.7512C25.1913 28.5995 25.4078 28.4761 25.6049 28.3885C25.9906 28.2162 26.3026 28.1769 26.3987 28.3147C26.5444 28.5227 26.1436 29.0554 25.5033 29.5046C24.863 29.9532 24.2258 30.1491 24.0795 29.9411Z" fill="white" fill-opacity="0.2"/>
<path d="M25.5494 28.4133C25.5494 28.4133 24.799 28.7168 24.4091 29.2313C24.2646 29.0131 24.0953 28.7845 23.9097 28.5493C23.9097 28.5493 24.9049 28.1122 25.3837 28.1563L25.5494 28.4133Z" fill="white" fill-opacity="0.2"/>
<path d="M31.778 22.8527C31.5313 22.791 31.4866 22.1253 31.6771 21.3666C31.7417 21.1102 31.8246 20.8756 31.9159 20.6803C32.0948 20.2976 32.3052 20.0643 32.4679 20.1048C32.7146 20.1664 32.7593 20.8321 32.5689 21.5909C32.3784 22.3497 32.0247 22.9144 31.778 22.8527Z" fill="white" fill-opacity="0.2"/>
<path d="M31.8904 20.7353C31.8904 20.7353 31.5742 21.4887 31.5627 22.0999C31.3094 22.0443 31.0192 21.982 30.7253 21.9258C30.7253 21.9258 31.206 20.9228 31.5972 20.6428L31.8904 20.7353Z" fill="white" fill-opacity="0.2"/>
<path d="M12.1204 20.8702C12.5086 21.6986 12.3714 22.5819 11.8139 22.8431C11.2565 23.1043 10.4898 22.6442 10.1023 21.8158C9.71471 20.9875 9.85135 20.1042 10.4088 19.843C10.9662 19.5818 11.7323 20.0413 12.1204 20.8702Z" fill="white" fill-opacity="0.2"/>
<path d="M11.3441 20.1986C11.7323 21.0269 11.595 21.9102 11.0376 22.1714C10.4801 22.4326 9.71407 21.9725 9.32592 21.1442C8.93776 20.3158 9.07501 19.4325 9.63245 19.1713C10.1899 18.9101 10.9559 19.3702 11.3441 20.1986Z" fill="white" fill-opacity="0.2"/>
<path d="M7.67515 12.442C8.22534 11.711 9.06998 11.419 9.56152 11.789C10.0531 12.159 10.0059 13.0521 9.45571 13.7824C8.90552 14.5128 8.06089 14.8054 7.56934 14.4354C7.07719 14.0654 7.12496 13.1724 7.67515 12.442Z" fill="white" fill-opacity="0.2"/>
<path d="M6.8625 11.8621C7.41269 11.1312 8.25732 10.8392 8.74887 11.2092C9.24041 11.5792 9.19326 12.4722 8.64246 13.2026C8.09227 13.9335 7.24763 14.2256 6.75609 13.8556C6.26454 13.4855 6.31231 12.5931 6.8625 11.8621Z" fill="white" fill-opacity="0.2"/>
<path d="M17.2001 23.9869C17.4558 24.5323 17.2206 25.1816 16.6753 25.4368C16.1299 25.6919 15.4806 25.4573 15.2254 24.912C14.9697 24.3666 15.2049 23.7173 15.7502 23.4621C16.2956 23.2064 16.9449 23.4416 17.2001 23.9869Z" fill="white" fill-opacity="0.2"/>
<path d="M16.9523 23.458C17.208 24.0033 16.9728 24.6527 16.4275 24.9078C15.8821 25.1636 15.2328 24.9284 14.9776 24.383C14.7219 23.8377 14.9571 23.1883 15.5024 22.9332C16.0478 22.678 16.6971 22.9126 16.9523 23.458Z" fill="white" fill-opacity="0.2"/>
<path d="M19.6447 12.1391C19.4216 12.8453 18.6683 13.2365 17.9621 13.0134C17.2559 12.7903 16.8647 12.0369 17.0878 11.3307C17.3109 10.6246 18.0643 10.2334 18.7705 10.4565C19.4766 10.6796 19.8678 11.4329 19.6447 12.1391Z" fill="white" fill-opacity="0.2"/>
<path d="M19.861 11.4547C19.6379 12.1609 18.8846 12.552 18.1784 12.3289C17.4722 12.1058 17.081 11.3525 17.3041 10.6463C17.5272 9.94013 18.2806 9.54894 18.9868 9.77204C19.6929 9.99514 20.0841 10.7485 19.861 11.4547Z" fill="white" fill-opacity="0.2"/>
<path d="M22.6845 22.6054C22.872 23.0051 22.6997 23.4815 22.2994 23.6689C21.8998 23.8563 21.4233 23.684 21.2359 23.2838C21.0485 22.8841 21.2208 22.4077 21.621 22.2203C22.0213 22.0329 22.4971 22.2052 22.6845 22.6054Z" fill="white" fill-opacity="0.2"/>
<path d="M22.5025 22.2172C22.69 22.6169 22.5177 23.0933 22.118 23.2807C21.7184 23.4682 21.2419 23.2959 21.0545 22.8956C20.8671 22.496 21.0394 22.0195 21.4396 21.8321C21.8393 21.6453 22.3157 21.8176 22.5025 22.2172Z" fill="white" fill-opacity="0.2"/>
<path d="M31.9974 11.5611C31.7731 11.6742 31.3093 11.2068 30.9611 10.517C30.8432 10.2836 30.7537 10.055 30.6957 9.84947C30.582 9.44802 30.5874 9.13786 30.7356 9.06288C30.9599 8.94982 31.4236 9.41718 31.7719 10.107C32.1201 10.7969 32.2211 11.448 31.9974 11.5611Z" fill="white" fill-opacity="0.2"/>
<path d="M30.7112 9.90808C30.7112 9.90808 30.9621 10.6747 31.3491 11.1385C31.1242 11.2612 30.8672 11.4021 30.6109 11.5496C30.6109 11.5496 30.3206 10.4897 30.4319 10.0278L30.7112 9.90808Z" fill="white" fill-opacity="0.2"/>
<path d="M25.7293 5.28883C25.5933 5.49984 24.9567 5.33175 24.3067 4.91276C24.0872 4.77128 23.8938 4.61892 23.7396 4.472C23.4379 4.1836 23.2861 3.91274 23.3756 3.77307C23.5116 3.56206 24.1483 3.73015 24.7982 4.14914C25.4482 4.56814 25.8654 5.07782 25.7293 5.28883Z" fill="white" fill-opacity="0.2"/>
<path d="M23.7842 4.51428C23.7842 4.51428 24.3417 5.08745 24.9578 5.25251C24.8121 5.46594 24.6658 5.70657 24.5201 5.96353C24.5201 5.96353 23.7492 5.21562 23.6113 4.76096L23.7842 4.51428Z" fill="white" fill-opacity="0.2"/>
<path d="M19.4028 0.544524C19.3877 0.794831 18.7504 0.961101 17.9789 0.915151C17.7184 0.899431 17.4753 0.861949 17.2685 0.808744C16.864 0.705356 16.5992 0.543923 16.6089 0.378261C16.624 0.127954 17.2613 -0.038317 18.0327 0.00763302C18.8042 0.0535831 19.4173 0.293612 19.4028 0.544524Z" fill="white" fill-opacity="0.2"/>
<path d="M17.3271 0.823853C17.3271 0.823853 18.1161 0.992537 18.7116 0.891568C18.7043 1.14792 18.6965 1.44055 18.6959 1.7362C18.6959 1.7362 17.6342 1.45386 17.2908 1.12496L17.3271 0.823853Z" fill="white" fill-opacity="0.2"/>
<path d="M10.9444 2.63894C11.0581 2.86264 10.5926 3.32818 9.9039 3.67945C9.67113 3.79795 9.44259 3.88866 9.23763 3.94731C8.83677 4.06279 8.52601 4.05794 8.45043 3.90981C8.33677 3.68611 8.80231 3.22056 9.49096 2.86928C10.1796 2.51801 10.8308 2.41523 10.9444 2.63894Z" fill="white" fill-opacity="0.2"/>
<path d="M9.29614 3.93029C9.29614 3.93029 10.0719 3.73682 10.5241 3.2876C10.6353 3.52098 10.7696 3.76825 10.9183 4.02339C10.9183 4.02339 9.88442 4.31361 9.4219 4.20418L9.29614 3.93029Z" fill="white" fill-opacity="0.2"/>
<path d="M24.1308 18.8097C24.086 19.7233 23.5516 20.4397 22.9367 20.4095C22.3218 20.3793 21.8599 19.6145 21.9046 18.7009C21.9493 17.7873 22.4838 17.0709 23.0987 17.1005C23.713 17.1313 24.1755 17.8962 24.1308 18.8097Z" fill="white" fill-opacity="0.2"/>
<path d="M24.372 18.2015C24.3272 19.1151 23.7928 19.8315 23.1779 19.8019C22.563 19.7717 22.1011 19.0068 22.1458 18.0933C22.1906 17.1797 22.725 16.4632 23.3399 16.4935C23.9548 16.5231 24.4167 17.2879 24.372 18.2015Z" fill="white" fill-opacity="0.2"/>
<path d="M17.3363 16.1634C17.7245 16.9917 17.3678 17.9778 16.5388 18.366C15.7105 18.7541 14.7244 18.3968 14.3363 17.5685C13.9481 16.7402 14.3054 15.7541 15.1337 15.3659C15.962 14.9783 16.9482 15.3351 17.3363 16.1634Z" fill="white" fill-opacity="0.2"/>
<path d="M16.9276 15.2915C17.3158 16.1199 16.9591 17.106 16.1301 17.4941C15.3012 17.8823 14.3157 17.5256 13.9276 16.6966C13.5394 15.8677 13.8967 14.8822 14.725 14.4941C15.5533 14.1065 16.5395 14.4632 16.9276 15.2915Z" fill="white" fill-opacity="0.2"/>
<path d="M25.0679 22.5504C25.1858 22.6315 25.1532 22.9338 24.9452 23.4042C24.739 23.8745 24.3382 24.5003 23.7179 25.1781C23.4089 25.5179 23.0377 25.8601 22.6163 26.2029C22.1876 26.5348 21.7112 26.8728 21.1725 27.169C20.1029 27.7718 18.8066 28.247 17.3864 28.4611C15.9638 28.6624 14.5853 28.5765 13.3882 28.3045C12.7872 28.1745 12.234 27.9865 11.7285 27.7912C11.2267 27.5826 10.7732 27.3613 10.3802 27.1237C9.59245 26.6515 9.02956 26.166 8.69763 25.7742C8.36389 25.383 8.24659 25.1025 8.33607 24.9912C8.53318 24.747 9.47273 25.2573 11.009 25.7567C11.3924 25.8836 11.8168 25.9991 12.2702 26.1116C12.7279 26.2113 13.2146 26.3135 13.7322 26.374C14.7642 26.5064 15.9076 26.5191 17.0781 26.3552C18.2468 26.1781 19.3381 25.8395 20.2897 25.4181C20.7686 25.2125 21.2057 24.9755 21.6156 24.7494C22.0183 24.5118 22.3926 24.2802 22.7233 24.0487C24.0546 23.1309 24.8098 22.3727 25.0679 22.5504Z" fill="white" fill-opacity="0.2"/>
<g opacity="0.2">
<path d="M6.42301 21.2758C6.94297 21.002 7.57539 21.1803 7.83537 21.6737C8.09535 22.1676 7.88434 22.7892 7.36438 23.0631C6.84442 23.3363 6.212 23.1586 5.95263 22.6646C5.69265 22.1719 5.90366 21.5497 6.42301 21.2758Z" fill="white" fill-opacity="0.2"/>
</g>
</svg>
