<svg width="315" height="258" viewBox="0 0 315 258" fill="none" xmlns="http://www.w3.org/2000/svg">
<mask id="mask0_182_7" style="mask-type:alpha" maskUnits="userSpaceOnUse" x="0" y="0" width="315" height="258">
<rect width="315" height="258" fill="#D9D9D9"/>
</mask>
<g mask="url(#mask0_182_7)">
<path d="M155.341 32.1367C157.729 21.5329 151.348 10.9361 141.09 8.46806C130.832 6.00001 120.581 12.5953 118.194 23.1991C115.806 33.8029 122.186 44.3998 132.444 46.8678C142.702 49.3359 152.954 42.7405 155.341 32.1367Z" fill="#8BBCFF"/>
<path d="M278.333 102.563C286.388 99.048 290.161 89.4488 286.761 81.1225C283.361 72.7961 274.075 68.8955 266.02 72.4102C257.965 75.9249 254.192 85.5241 257.592 93.8505C260.992 102.177 270.278 106.077 278.333 102.563Z" fill="#8BBCFF"/>
<path d="M35.1737 123.009C43.5538 123.009 50.3473 115.987 50.3473 107.324C50.3473 98.6614 43.5538 91.6389 35.1737 91.6389C26.7935 91.6389 20 98.6614 20 107.324C20 115.987 26.7935 123.009 35.1737 123.009Z" fill="#8BBCFF"/>
<path d="M61.2384 88.9357C64.0344 100.932 74.0791 111.642 71.6863 123.731C69.6681 133.928 59.7687 139.861 51.8008 146.225C45.2796 151.433 39.4419 157.845 36.1362 165.648C32.8305 173.452 32.3184 182.787 36.0557 190.379C42.1338 202.725 57.1264 207.161 70.5223 207.541C91.2558 208.129 112.121 201.932 129.391 190.058C140.715 182.272 150.665 172.048 163.261 166.745C178.377 160.38 196.462 162.163 210.141 171.368C220.006 178.006 227.532 188.103 238 193.666C255.329 202.876 278.985 196.12 289.282 179.02C299.579 161.92 295.001 136.995 279.356 124.988C272.889 120.025 265.144 117.25 257.661 114.173C250.176 111.095 242.613 107.488 237.173 101.348C231.733 95.2087 228.878 85.9379 232.161 78.3352C236.897 67.3693 251.126 64.8557 258.733 55.7795C267.245 45.6258 264.793 28.629 255.23 19.529C245.668 10.4297 231.012 8.66886 218.592 12.6291C206.172 16.5894 195.743 25.5035 187.116 35.5528C178.49 45.602 171.358 56.914 163.211 67.3824C155.102 77.804 143.878 88.2118 131.054 86.4372C116.85 84.4718 108.552 69.4104 98.7885 60.2679C87.8212 49.9971 74.8297 52.0514 65.9242 64.6799C61.0768 71.5542 59.3104 80.6623 61.2384 88.9357Z" fill="#8BBCFF"/>
<path d="M260.825 237.077C260.825 238.503 250.683 239.659 238.17 239.659C225.658 239.659 215.516 238.503 215.516 237.077C215.516 235.651 225.658 234.495 238.17 234.495C250.683 234.495 260.825 235.651 260.825 237.077Z" fill="#B1BEC4"/>
<path d="M84.4791 237.077C84.4791 238.503 74.3363 239.659 61.8243 239.659C49.3122 239.659 39.1694 238.503 39.1694 237.077C39.1694 235.651 49.3122 234.495 61.8243 234.495C74.3363 234.495 84.4791 235.651 84.4791 237.077Z" fill="#B1BEC4"/>
<path d="M113.352 241.006C113.352 242.637 101.752 243.958 87.4436 243.958C73.135 243.958 61.5352 242.637 61.5352 241.006C61.5352 239.375 73.135 238.054 87.4436 238.054C101.753 238.054 113.352 239.375 113.352 241.006Z" fill="#B1BEC4"/>
<path d="M281.502 237.077C281.502 238.503 274.064 239.659 264.888 239.659C255.713 239.659 248.274 238.503 248.274 237.077C248.274 235.651 255.713 234.495 264.888 234.495C274.064 234.495 281.502 235.651 281.502 237.077Z" fill="#B1BEC4"/>
<path d="M81.0511 237.077H79.2351V168.215H29.4024V237.077H27.5864V166.337H81.0511V237.077Z" fill="#FBBD06"/>
<path d="M291.319 237.077H290.108V167.902H239.671V237.077H238.46V166.65H291.319V237.077Z" fill="#FBBD06"/>
<path d="M224.457 32.8283H90.7471V220.921H224.457V32.8283Z" fill="#106EEA"/>
<path d="M95.5898 215.915V37.8342H123.429L132.009 46.7026H183.485L192.064 37.8342H219.615V215.915H95.5898Z" fill="#1460C6"/>
<path d="M209.017 44.7009L100.055 55.8501L115.054 212.481L224.015 201.332L209.017 44.7009Z" fill="#FAFAFA"/>
<path d="M143.066 71.867L108.657 75.6117L109.22 81.1327L143.628 77.388L143.066 71.867Z" fill="#FBBD06"/>
<path d="M211.027 177.983L121.319 187.746L122.023 194.658L211.731 184.895L211.027 177.983Z" fill="#CFD8DD"/>
<path d="M202.107 65.4421L167.698 69.1867L168.26 74.7077L202.669 70.963L202.107 65.4421Z" fill="#8BBCFF"/>
<path d="M122.002 91.0988L110.363 92.3654L111.589 104.396L123.227 103.13L122.002 91.0988Z" fill="#8BBCFF"/>
<path d="M116.307 102.087L112.683 97.0452L114.626 95.5522L116.751 98.5082L127.701 89.4175L129.217 91.3692L116.307 102.087Z" fill="#FBBD06"/>
<path d="M180.358 84.7475L134.624 89.7247L134.843 91.8778L180.577 86.9006L180.358 84.7475Z" fill="#8BBCFF"/>
<path d="M202.615 86.6284L135.058 93.9804L135.148 94.8603L202.704 87.5083L202.615 86.6284Z" fill="#8BBCFF"/>
<path d="M202.917 89.6107L135.361 96.9627L135.45 97.8427L203.007 90.4906L202.917 89.6107Z" fill="#8BBCFF"/>
<path d="M203.221 92.5929L135.665 99.9449L135.754 100.825L203.311 93.4728L203.221 92.5929Z" fill="#8BBCFF"/>
<path d="M124.573 116.354L112.935 117.62L114.16 129.651L125.799 128.385L124.573 116.354Z" fill="#8BBCFF"/>
<path d="M118.88 127.342L115.255 122.301L117.198 120.807L119.324 123.764L130.273 114.673L131.789 116.625L118.88 127.342Z" fill="#FBBD06"/>
<path d="M182.93 110.003L137.196 114.98L137.415 117.134L183.149 112.156L182.93 110.003Z" fill="#8BBCFF"/>
<path d="M205.186 111.884L137.629 119.236L137.719 120.115L205.275 112.763L205.186 111.884Z" fill="#8BBCFF"/>
<path d="M205.489 114.866L137.933 122.218L138.022 123.098L205.579 115.746L205.489 114.866Z" fill="#8BBCFF"/>
<path d="M205.793 117.848L138.237 125.2L138.326 126.08L205.883 118.728L205.793 117.848Z" fill="#8BBCFF"/>
<path d="M127.146 141.61L115.507 142.876L116.733 154.907L128.371 153.64L127.146 141.61Z" fill="#8BBCFF"/>
<path d="M121.453 152.598L117.828 147.556L119.771 146.063L121.897 149.019L132.847 139.928L134.363 141.88L121.453 152.598Z" fill="#FBBD06"/>
<path d="M185.502 135.258L139.768 140.236L139.987 142.389L185.721 137.412L185.502 135.258Z" fill="#8BBCFF"/>
<path d="M207.759 137.139L140.202 144.491L140.292 145.371L207.848 138.019L207.759 137.139Z" fill="#8BBCFF"/>
<path d="M208.062 140.122L140.506 147.474L140.595 148.354L208.152 141.002L208.062 140.122Z" fill="#8BBCFF"/>
<path d="M208.366 143.104L140.81 150.456L140.899 151.336L208.456 143.984L208.366 143.104Z" fill="#8BBCFF"/>
<path d="M129.717 166.865L118.079 168.131L119.304 180.162L130.943 178.896L129.717 166.865Z" fill="#8BBCFF"/>
<path d="M124.025 177.853L120.4 172.812L122.344 171.318L124.469 174.275L135.419 165.184L136.934 167.136L124.025 177.853Z" fill="#FBBD06"/>
<path d="M188.074 160.514L142.34 165.491L142.559 167.644L188.293 162.667L188.074 160.514Z" fill="#8BBCFF"/>
<path d="M210.33 162.394L142.774 169.747L142.864 170.626L210.42 163.274L210.33 162.394Z" fill="#8BBCFF"/>
<path d="M210.634 165.377L143.078 172.729L143.167 173.609L210.724 166.257L210.634 165.377Z" fill="#8BBCFF"/>
<path d="M210.937 168.359L143.38 175.711L143.47 176.591L211.026 169.239L210.937 168.359Z" fill="#8BBCFF"/>
<path d="M184.928 41.4484H132.259L123.68 28.3125H193.507L184.928 41.4484Z" fill="#FDA833"/>
<path d="M181.125 34.8808C177.37 35.0097 173.614 35.0703 169.86 35.1204C166.104 35.1717 162.349 35.1673 158.594 35.1936C154.839 35.1692 151.083 35.1717 147.328 35.1217L141.695 35.0347C139.817 34.9827 137.94 34.9521 136.062 34.8814C137.94 34.8107 139.817 34.78 141.695 34.7281L147.328 34.6405C151.084 34.5904 154.839 34.5929 158.594 34.5685C162.349 34.5948 166.105 34.5898 169.86 34.6417C173.614 34.6912 177.37 34.7512 181.125 34.8808Z" fill="#000412"/>
<path d="M159.892 0C151.362 0 144.446 7.14835 144.446 15.9668C144.446 24.7852 151.362 31.9335 159.892 31.9335C168.423 31.9335 175.338 24.7852 175.338 15.9668C175.338 7.14835 168.423 0 159.892 0ZM159.892 23.5287C155.852 23.5287 152.578 20.1435 152.578 15.9674C152.578 11.7913 155.852 8.40607 159.892 8.40607C163.932 8.40607 167.207 11.7913 167.207 15.9674C167.207 20.1429 163.932 23.5287 159.892 23.5287Z" fill="#FDA833"/>
<path d="M70.9547 153.553C70.5685 155.106 70.1969 156.658 69.8391 158.211C68.9093 162.248 68.051 166.301 67.2356 170.338C67.0353 171.299 66.8494 172.275 66.6491 173.236C66.0056 176.519 65.3761 179.802 64.7895 183.085C64.1745 186.368 63.6019 189.666 63.0583 192.949C61.9136 199.53 60.9269 206.111 60.0395 212.692C59.2242 219.287 58.4657 225.883 58.1225 232.493L54.2024 232.286C54.5311 225.676 54.4312 219.036 54.2738 212.381C54.0595 205.741 53.7448 199.086 53.2581 192.417C53.0438 189.089 52.8005 185.762 52.5287 182.434C52.2708 179.092 51.9706 175.765 51.6558 172.423C51.0117 165.753 50.3108 159.083 49.3525 152.399L69.2096 153.464L70.9547 153.553Z" fill="#0F1D29"/>
<path d="M89.0955 152.976C88.4375 157.752 87.808 162.529 87.193 167.305C86.2057 174.907 85.2759 182.508 84.3746 190.109C83.6167 196.291 82.9297 202.487 82.2432 208.668C81.5707 214.865 81.5138 226.311 80.9841 232.492L77.2505 232.285C76.7214 226.103 76.6494 214.864 75.9775 208.668C75.2911 202.487 74.604 196.291 73.8462 190.109C73.0447 183.321 72.2154 176.548 71.3425 169.76C70.8565 165.915 70.3553 162.056 69.8401 158.21C69.6398 156.628 69.4255 155.046 69.2106 153.464C69.1821 153.301 69.1676 153.138 69.1392 152.976H89.0955Z" fill="#0F1D29"/>
<path d="M54.2219 232.261L54.0488 236.674L65.8339 236.733C65.8339 236.733 65.8847 234.421 58.8279 234.421L57.9604 232.471L54.2219 232.261Z" fill="#2A3121"/>
<path d="M77.2053 232.261L77.0322 236.674L88.8173 236.733C88.8173 236.733 88.8681 234.421 81.8113 234.421L80.9438 232.471L77.2053 232.261Z" fill="#2A3121"/>
<path d="M63.0438 108.395C62.772 108.41 62.157 108.514 61.6849 108.617C61.1842 108.706 60.6691 108.824 60.1685 108.957C59.1383 109.209 58.1225 109.534 57.1213 109.874C55.1183 110.584 53.1873 111.486 51.4131 112.565C50.8841 112.891 50.3689 113.216 49.8822 113.586C47.007 115.627 44.6746 118.259 43.2443 121.453C42.4004 123.331 41.8423 125.372 41.5845 127.546C41.3986 129.72 41.3557 131.967 41.6704 134.245C42.1274 138.191 43.2891 142.16 44.7866 146.027C45.1898 147.069 44.7418 148.256 43.7733 148.763C42.7437 149.302 41.4937 148.882 40.9483 147.83C38.9277 143.938 37.1965 139.798 36.1632 135.309C35.5197 132.706 35.2334 129.971 35.1904 127.175C35.205 124.38 35.6341 121.511 36.5209 118.746C38.2661 113.215 41.9858 108.483 46.335 105.112C46.378 105.082 46.4065 105.053 46.4495 105.023C48.6383 103.308 50.9991 101.888 53.4307 100.675C54.6607 100.084 55.8913 99.5363 57.1643 99.0482C57.8078 98.8117 58.4518 98.5896 59.1098 98.3681C59.7962 98.1466 60.3544 97.9689 61.2557 97.7617L63.0438 108.395Z" fill="#DC6C56"/>
<path d="M109.524 90.2942C109.067 93.045 108.094 95.8401 106.52 98.3243C104.946 100.823 102.815 102.953 100.44 104.55C98.0796 106.177 95.5046 107.316 92.9295 108.129C92.4858 108.262 92.0566 108.395 91.6135 108.514C89.4531 109.12 87.2788 109.519 85.1184 109.756C83.771 109.922 82.4386 109.996 81.0906 110.04C80.3684 110.064 79.6439 110.06 78.9211 110.046C78.3309 110.035 77.7958 110.025 77.021 109.948L78.7661 98.2354C79.0385 98.3243 79.6421 98.4281 80.0997 98.517C80.5936 98.5946 81.0809 98.6709 81.5755 98.7485C82.6027 98.8686 83.6602 98.9744 84.7032 99.0188C86.7631 99.1221 88.8236 99.0482 90.783 98.7529C91.0694 98.7084 91.3411 98.664 91.6129 98.6052C95.2322 97.9544 98.4943 96.5053 100.769 93.9022C101.985 92.5118 102.943 90.7967 103.602 88.83C104.189 86.8483 104.546 84.704 104.632 82.4563C104.825 78.4191 104.222 74.2148 103.319 70.0475C103.145 69.2422 103.58 68.4306 104.337 68.1709C105.113 67.905 105.963 68.3061 106.263 69.0926C107.844 73.2393 109.165 77.5713 109.653 82.2492C109.939 84.8523 109.925 87.5435 109.524 90.2942Z" fill="#DC6C56"/>
<path d="M91.6127 98.6058C91.3409 98.6646 91.0691 98.7091 90.7828 98.7535C88.8228 99.0495 86.7629 99.1233 84.7029 99.0194C83.6733 98.975 82.6285 98.8718 81.6128 98.7535C81.0976 98.6797 80.597 98.6058 80.0964 98.517C79.8743 98.4738 79.6194 98.4275 79.3839 98.3812C76.6152 96.3939 73.2581 95.2219 69.6322 95.2219C66.289 95.2219 63.18 96.2274 60.5439 97.9394C60.0202 98.0777 59.5947 98.2129 59.1092 98.3693C58.4512 98.5914 57.8072 98.8129 57.1637 99.0495C55.8907 99.5375 54.6601 100.084 53.4301 100.676C50.9979 101.889 48.6377 103.309 46.4489 105.024C46.4059 105.053 46.3775 105.083 46.3345 105.113L49.8823 113.586C50.369 113.217 50.8835 112.891 51.4131 112.566C51.7782 112.344 52.1752 112.162 52.553 111.955C52.536 112.278 52.5058 112.598 52.5058 112.926L49.2715 153.504H89.5352L86.761 112.926C86.761 111.774 86.646 110.651 86.4426 109.559C88.166 109.316 89.8936 108.997 91.6133 108.514V98.6058H91.6127Z" fill="#FBBD06"/>
<path d="M67.5316 88.8363L65.7749 97.5289L73.7349 97.7623L70.3699 89.059L67.5316 88.8363Z" fill="#DC6C56"/>
<path d="M67.5 91.6389L73.3057 96.9745L72.1846 92.6263L67.5 91.6389Z" fill="#954A2D"/>
<path d="M91.6132 108.514C89.9292 109.072 88.224 109.516 86.5079 109.907L86.2501 109.965L86.1308 109.707C84.9353 107.111 83.8239 104.476 82.9668 101.72C84.4262 104.19 85.6314 106.782 86.7531 109.412L86.3766 109.213C88.1084 108.905 89.8499 108.652 91.6132 108.514Z" fill="#000412"/>
<path d="M49.8818 113.586C50.6984 112.914 51.5525 112.307 52.4145 111.714L52.3122 111.824C52.9672 110.335 53.6936 108.884 54.4526 107.451C55.222 106.024 56.041 104.623 56.9538 103.274C56.3994 104.817 55.7517 106.311 55.0537 107.777C54.3461 109.238 53.6052 110.681 52.7928 112.085L52.7456 112.167L52.6905 112.196C51.7717 112.69 50.8461 113.172 49.8818 113.586Z" fill="#000412"/>
<path d="M77.671 81.3463L77.0385 93.9986L67.3545 93.1826L67.8515 80.9959L77.671 81.3463Z" fill="#DC6C56"/>
<path d="M69.4421 88.9702C69.8628 88.1905 69.864 87.2532 69.9349 86.3634C70.0057 85.473 70.1994 84.51 70.8652 83.9418C72.0668 82.9169 73.8216 83.7835 75.341 84.1402C76.7181 84.4631 78.2296 84.2929 79.4239 83.5132C80.6176 82.7335 81.439 81.31 81.3725 79.8521C81.2683 77.5838 78.7532 75.8098 76.6721 76.5376C75.1328 77.0757 74.0323 78.6619 72.4306 78.9441C71.3241 79.1387 70.2254 78.6644 69.1431 78.3572C68.0608 78.0499 66.7678 77.9548 65.944 78.7433C65.0929 79.5573 65.1177 80.9652 65.453 82.1128C65.7884 83.2604 66.3701 84.3536 66.427 85.5512C66.4821 86.7038 66.0432 87.8139 65.6122 88.8788C65.5923 88.927 68.5214 90.6759 69.4421 88.9702Z" fill="#0F1D29"/>
<path d="M89.5346 153.504H49.5088L50.0227 157.331L89.5346 153.504Z" fill="#000412"/>
<path d="M51.2456 150.884C57.1185 150.579 62.9913 150.559 68.8642 150.515C74.737 150.558 80.6099 150.577 86.4827 150.884C80.6099 151.192 74.737 151.211 68.8642 151.254C62.9913 151.21 57.1185 151.19 51.2456 150.884Z" fill="#000412"/>
<path d="M69.8389 158.21L74.8189 157.331V198.352L69.8389 158.21Z" fill="#010101"/>
<path d="M42.4697 108.67C42.4697 108.67 45.0738 105.865 46.3347 105.112L49.8825 113.586L42.4697 108.67Z" fill="#010101"/>
<path d="M90.9468 166.578C89.5933 168.178 88.9475 170.393 89.2193 172.499C89.416 174.021 90.0649 175.511 89.8724 177.034C89.5994 179.195 87.7671 180.709 86.2695 182.242C84.3815 184.174 82.8361 186.504 82.0062 189.113C81.1763 191.723 81.0946 194.622 82.008 197.201C83.2169 200.614 86.1145 203.24 89.4299 204.452C92.7453 205.664 96.4268 205.553 99.8148 204.58C103.397 203.552 106.792 201.503 108.974 198.392C111.156 195.281 111.967 191.038 110.575 187.475C109.748 185.357 108.213 183.559 107.628 181.357C106.522 177.191 109.022 172.435 107.173 168.561C106.267 166.664 104.436 165.374 102.489 164.725C98.8064 163.5 93.7114 163.311 90.9468 166.578Z" fill="#0F1D29"/>
<path d="M111.602 200.127C111.73 200.227 111.874 200.326 112.002 200.425L115.796 194.667C115.78 194.65 115.764 194.634 115.748 194.617C112.805 192.039 109.797 189.647 106.69 187.304C104.318 184.706 100.683 183.189 96.493 183.189C92.1026 183.189 88.2679 184.873 85.8484 187.695C82.7649 190.017 79.7836 192.387 76.869 194.94C76.5651 195.221 76.2449 195.486 75.9404 195.767L79.3024 201.758C79.8787 201.311 80.4549 200.881 81.0312 200.451C81.8647 199.84 82.7431 199.261 83.599 198.663L85.1825 207.182L80.3799 227.855H111.863L107.861 207.182L109.211 198.466C110.007 199.022 110.823 199.56 111.602 200.127Z" fill="#FBBD06"/>
<path d="M74.8728 220.609L106.821 247.651L104.652 251.019L68.1882 230.99C65.023 229.251 64.0006 225.069 65.9867 221.985C67.9727 218.901 72.0998 218.262 74.8728 220.609Z" fill="#26C0D4"/>
<path d="M122.991 233.75L85.8088 252.313L83.7671 248.861L116.699 223.111C119.557 220.875 123.657 221.678 125.527 224.839C127.396 228 126.219 232.139 122.991 233.75Z" fill="#26C0D4"/>
<path d="M80.3804 227.854H111.864L97.643 242.462L80.3804 227.854Z" fill="#26C0D4"/>
<path d="M85.8613 229.91C88.8298 232.007 91.647 234.295 94.4285 236.628C97.1906 238.985 99.9164 241.388 102.489 243.985C99.5193 241.89 96.7021 239.602 93.9218 237.268C91.1603 234.909 88.4352 232.505 85.8613 229.91Z" fill="#000412"/>
<path d="M110.631 227.854L96.4927 238.91L104.335 227.854H110.631Z" fill="#000412"/>
<path d="M96.9129 246.769L94.0346 248.206L90.7622 243.391L96.9129 246.769Z" fill="#000412"/>
<path d="M105.736 191.586H86.7441V214.905H105.736V191.586Z" fill="white"/>
<path d="M88.3217 202.296C87.7454 201.585 86.769 201.469 86.0487 201.998C85.5203 202.396 84.9924 202.792 84.4476 203.19C81.7739 205.143 79.0046 206.946 76.1874 208.402C75.2431 208.882 74.2824 209.312 73.3381 209.627C72.4895 209.941 71.6251 210.107 71.0645 210.09C71.1608 209.859 71.3369 209.412 71.6571 208.982C72.6656 207.509 74.2509 205.97 75.8672 204.563C76.9719 203.603 78.1244 202.677 79.309 201.767L75.9471 195.776C74.49 197.083 73.0657 198.441 71.6729 199.88C69.9919 201.667 68.343 203.471 66.9187 205.954C66.5664 206.599 66.2304 207.261 65.9743 208.138C65.7026 208.949 65.5422 210.091 65.7661 211.299C66.1342 212.672 66.7909 213.632 67.8315 214.377C68.8878 215.088 69.9604 215.221 70.8569 215.237C72.5857 215.171 73.8508 214.674 75.0354 214.161C76.2201 213.632 77.2764 213.019 78.3012 212.374C80.7503 210.819 83.0076 209.114 85.1528 207.294C86.177 206.467 87.1698 205.589 88.1462 204.712C88.5305 204.365 88.7224 203.885 88.7224 203.405C88.7218 203.008 88.5935 202.61 88.3217 202.296ZM70.9041 210.09C70.5197 209.991 70.7758 209.941 70.9041 210.09V210.09Z" fill="#F8AC70"/>
<path d="M126.662 207.806C126.406 206.946 126.07 206.267 125.718 205.622C124.293 203.14 122.644 201.336 120.963 199.549C119.298 197.811 117.554 196.222 115.793 194.667L111.998 200.425C113.647 201.65 115.264 202.908 116.769 204.232C118.37 205.638 119.955 207.177 120.963 208.65C121.299 209.08 121.475 209.527 121.587 209.759C121.059 209.792 120.162 209.61 119.282 209.296C118.354 208.981 117.393 208.551 116.433 208.071C113.728 206.681 111.07 204.96 108.493 203.107C107.853 202.644 107.212 202.164 106.572 201.684C106.284 201.468 105.932 201.353 105.58 201.353C105.115 201.353 104.635 201.568 104.315 201.965C103.722 202.676 103.803 203.752 104.475 204.381C105.595 205.39 106.732 206.383 107.901 207.343C109.934 209.014 112.047 210.587 114.32 212.043C115.361 212.688 116.417 213.3 117.602 213.83C118.787 214.343 120.051 214.839 121.78 214.905C122.677 214.889 123.75 214.756 124.806 214.045C125.846 213.3 126.503 212.34 126.855 210.983C127.095 209.759 126.934 208.617 126.662 207.806ZM121.748 209.759C121.86 209.627 122.099 209.66 121.748 209.759V209.759Z" fill="#F8AC70"/>
<path d="M83.5986 198.656L83.6005 198.665C83.2675 198.897 82.9316 199.124 82.6011 199.358C82.9364 199.126 83.2681 198.894 83.5986 198.656Z" fill="#E53C2F"/>
<path d="M93.817 176.373L92.4429 186.209L101.349 185.895L97.0022 176.418L93.817 176.373Z" fill="#F8AC70"/>
<path d="M93.9126 181.24L96.9767 183.755L99.4053 181.658L93.9126 181.24Z" fill="#954A2D"/>
<path d="M104.634 167.275L102.256 181.874L93.9129 181.24L93.6436 167.594L104.634 167.275Z" fill="#F8AC70"/>
<path d="M100.81 169.131C101.282 169.315 101.618 169.743 101.931 170.152C102.647 171.087 103.069 172.246 104.13 172.846C104.304 172.944 104.538 172.983 104.691 172.852C104.768 172.786 104.811 172.689 104.85 172.593C105.272 171.551 105.445 170.406 105.771 169.33C106.124 168.171 106.278 166.809 105.592 165.822C105.033 165.02 104.061 164.669 103.152 164.365C101.681 163.872 100.195 163.376 98.6546 163.234C97.1147 163.092 95.493 163.334 94.2037 164.216C92.9143 165.098 92.0294 166.701 92.24 168.284C92.4355 169.753 94.2793 171.79 95.8072 171.754C97.7273 171.71 98.7642 168.331 100.81 169.131Z" fill="#0F1D29"/>
<path d="M111.998 200.426C110.943 199.964 109.954 199.402 108.999 198.788L108.863 198.701L108.836 198.51C108.564 196.6 108.408 194.675 108.565 192.713C109.152 194.585 109.428 196.496 109.587 198.42L109.424 198.142C110.327 198.835 111.195 199.581 111.998 200.426Z" fill="#000412"/>
<path d="M79.3081 201.766C80.5702 200.484 81.9552 199.382 83.3729 198.329L83.2058 198.625C83.2936 197.633 83.4037 196.642 83.5599 195.657C83.7215 194.672 83.888 193.687 84.1537 192.712C84.2354 193.721 84.2173 194.721 84.1943 195.719C84.1658 196.718 84.092 197.712 83.9945 198.703L83.9758 198.895L83.8269 198.999C82.3838 200.015 80.9074 200.982 79.3081 201.766Z" fill="#000412"/>
<path d="M84.1548 225.749C88.2226 225.277 92.2879 225.124 96.3533 224.945C100.42 224.862 104.486 224.753 108.565 224.967C104.507 225.441 100.436 225.593 96.3666 225.771C92.2952 225.853 88.2232 225.961 84.1548 225.749Z" fill="#000412"/>
<path d="M106.82 247.652L109.391 249.185L103.562 257.155C103.562 257.155 103.181 253.023 104.651 251.02L106.82 247.652Z" fill="#000412"/>
<path d="M83.8729 248.757L81.2271 250.145L86.632 258.428C86.632 258.428 87.2276 254.323 85.8632 252.241L83.8729 248.757Z" fill="#000412"/>
<path d="M115.793 194.667L114.644 202.457L111.999 200.426L115.793 194.667Z" fill="#000412"/>
<path d="M265.992 199.551L272.37 172.971C273.364 168.826 276.581 165.645 280.632 164.804C283.432 164.222 285.661 167.217 284.399 169.866L269.605 200.916C269.428 201.288 269.143 201.594 268.79 201.791C267.313 202.618 265.588 201.237 265.992 199.551Z" fill="#9A5BFF"/>
<path d="M277 171.336C276.735 171.695 276.614 172.146 276.448 172.561C276.294 172.985 276.151 173.413 276.008 173.841C275.724 174.698 275.452 175.56 275.186 176.423C274.652 178.149 274.135 179.881 273.625 181.614C272.605 185.082 271.611 188.557 270.625 192.035C268.656 198.992 266.723 205.961 264.813 212.936L263.897 212.657C265.96 205.726 268.046 198.803 270.169 191.892C271.23 188.437 272.302 184.984 273.398 181.54C273.946 179.818 274.502 178.099 275.073 176.384C275.359 175.527 275.65 174.672 275.952 173.821C276.105 173.396 276.258 172.971 276.422 172.55C276.595 172.139 276.726 171.69 277 171.336Z" fill="#010101"/>
<path d="M258.769 198.922L252.392 172.341C251.398 168.196 248.18 165.016 244.13 164.175C241.329 163.593 239.101 166.587 240.363 169.236L255.157 200.286C255.334 200.658 255.619 200.964 255.972 201.161C257.45 201.988 259.174 200.607 258.769 198.922Z" fill="#382364"/>
<path d="M247.763 170.707C248.037 171.061 248.168 171.508 248.343 171.921C248.506 172.341 248.659 172.766 248.812 173.192C249.114 174.043 249.404 174.898 249.691 175.755C250.263 177.469 250.818 179.189 251.366 180.91C252.462 184.354 253.533 187.807 254.596 191.262C256.717 198.173 258.804 205.096 260.867 212.027L259.951 212.306C258.042 205.332 256.108 198.363 254.139 191.406C253.154 187.928 252.159 184.452 251.139 180.985C250.629 179.251 250.112 177.519 249.579 175.793C249.311 174.931 249.04 174.07 248.757 173.212C248.614 172.784 248.47 172.356 248.316 171.932C248.149 171.516 248.028 171.066 247.763 170.707Z" fill="#010101"/>
<path d="M261.574 137.06C265.87 134.961 270.745 138.487 270.308 143.378L264.709 206.121C264.6 207.334 263.735 208.33 262.58 208.569C261.163 208.863 259.777 207.935 259.457 206.477L249.739 162.193C247.498 151.983 252.419 141.535 261.574 137.06Z" fill="#F6A1FE"/>
<path d="M261.521 151.187L261.998 212.796H261.043L261.521 151.187Z" fill="#010101"/>
<path d="M270.795 236.733H249.54L246.274 211.857H274.061L270.795 236.733Z" fill="#FDA833"/>
<path d="M273.532 215.883L247.043 217.717L273.015 219.819L273.532 215.883Z" fill="#010101"/>
<path d="M228.084 150.77C225.87 157.67 223.651 164.568 221.518 171.487L215.053 192.226L215.113 190.071C215.447 197.253 215.874 204.419 216.28 211.59C216.709 218.756 217.177 225.917 217.703 233.068L213.815 233.689C212.227 226.708 210.582 219.735 208.897 212.77C207.19 205.807 205.504 198.842 203.724 191.891L203.604 191.424L203.783 189.736L206.085 168.077C206.875 160.862 207.578 153.628 208.287 146.396L228.084 150.77Z" fill="#0F1D29"/>
<path d="M244.544 153.945C244.558 160.895 244.689 165.18 244.851 172.109C244.908 175.576 245.05 179.032 245.151 182.493L245.48 192.873L245.531 193.604L244.647 202.885C244.362 205.979 244.034 209.072 243.793 212.166C243.263 218.353 242.752 226.373 242.371 232.56H238.706C238.325 226.373 237.814 218.353 237.284 212.166C237.042 209.072 236.715 205.979 236.43 202.885L235.546 193.604L235.597 194.334L233.098 184.275C232.256 180.923 231.455 177.566 230.569 174.22C228.845 167.523 225.267 156.41 223.395 149.734L244.544 153.945Z" fill="#0F1D29"/>
<path d="M226.968 99.2296L224.708 113.663C219.457 112.347 214.207 110.528 209.257 107.807C206.768 106.476 204.393 104.835 202.147 103.045C200.587 101.714 199.1 100.295 197.755 98.7416C197.183 98.0908 196.624 97.425 196.109 96.7449C192.561 92.0569 191.054 86.5692 190.252 80.9646C189.837 78.155 189.752 75.3599 189.937 72.5942C190.101 70.3215 190.42 68.2247 190.976 65.9996C191.187 65.1567 192.038 64.6618 192.854 64.8801C193.584 65.076 194.071 65.7818 194.002 66.5584C193.825 68.5263 193.736 70.844 193.922 72.7199C194.122 75.0858 194.594 77.3929 195.281 79.5667C196.611 83.7666 199.715 87.1462 202.633 90.0007C202.747 90.134 202.862 90.2523 202.976 90.3555C204.535 91.8047 206.267 93.0468 208.083 94.1268C209.972 95.1474 211.889 96.0641 213.963 96.7298C218.055 98.1503 222.476 98.9043 226.968 99.2296Z" fill="#EEAF6C"/>
<path d="M268.585 134.293C268.17 137.783 267.126 141.081 265.724 144.053C265.695 144.113 265.681 144.156 265.652 144.216C265.023 145.71 264.193 147.026 263.435 148.401C262.577 149.761 261.704 151.107 260.774 152.409C257.367 157.024 253.471 161.062 249.381 164.783C248.638 165.458 247.507 165.391 246.832 164.644C246.17 163.91 246.183 162.776 246.85 162.047C250.482 158.082 253.832 153.9 256.554 149.406C257.184 148.312 257.785 147.218 258.342 146.109C258.442 145.931 258.528 145.768 258.614 145.591C259.186 144.29 259.845 143.018 260.245 141.672C261.232 139.04 261.79 136.319 261.862 133.687C262.076 128.392 260.102 123.542 256.654 119.653C254.937 117.701 252.891 115.985 250.689 114.477C249.572 113.752 248.442 113.042 247.255 112.421C246.669 112.111 246.068 111.815 245.481 111.534C244.923 111.282 244.207 110.972 243.821 110.839L247.412 101.626L247.555 101.256C247.712 101.33 247.87 101.403 247.999 101.463C248.743 101.833 249.286 102.158 249.93 102.528C250.659 102.942 251.36 103.386 252.061 103.844C253.463 104.747 254.793 105.752 256.095 106.817C258.67 108.946 261.088 111.357 263.134 114.166C265.18 116.991 266.839 120.2 267.812 123.676C268.785 127.135 269.029 130.818 268.585 134.293Z" fill="#EEAF6C"/>
<path d="M267.812 123.675C266.84 120.2 265.18 116.991 263.134 114.166C261.088 111.356 258.671 108.945 256.096 106.816C254.794 105.751 253.464 104.745 252.061 103.844C251.36 103.385 250.659 102.941 249.93 102.527C249.442 102.247 248.988 101.988 248.485 101.721C246.208 99.1401 243.166 97.2373 239.606 96.4658C234.929 95.4527 230.31 96.5865 226.674 99.2002C222.284 98.8636 217.966 98.1183 213.965 96.7298C211.89 96.064 209.973 95.1473 208.084 94.1268C206.268 93.0474 204.537 91.8047 202.977 90.3555C202.863 90.2523 202.749 90.134 202.634 90.0007L197.756 98.7409C199.101 100.293 200.588 101.713 202.148 103.045C204.394 104.834 206.769 106.476 209.258 107.807C212.436 109.553 215.736 110.925 219.081 112.033L206.885 146.661L250.085 156.017L252.507 116.87C252.571 116.554 252.604 116.239 252.651 115.923C254.104 117.061 255.462 118.296 256.654 119.652C260.102 123.542 262.076 128.392 261.862 133.686C261.791 136.319 261.233 139.039 260.245 141.672C259.845 143.018 259.187 144.289 258.615 145.591C258.529 145.768 258.443 145.931 258.343 146.108L265.653 144.215C265.682 144.156 265.696 144.112 265.725 144.053C267.127 141.08 268.171 137.782 268.586 134.292C269.029 130.818 268.785 127.135 267.812 123.675Z" fill="#FBBD06"/>
<path d="M252.506 108.273C252.667 109.545 252.762 110.819 252.84 112.093C252.937 113.366 252.943 114.642 252.999 115.916L252.999 115.925L252.998 115.948C252.923 117.393 252.791 118.835 252.691 120.279L252.357 124.607C252.101 127.491 251.843 130.375 251.492 133.251C251.528 130.352 251.654 127.459 251.785 124.566L252.03 120.231C252.122 118.787 252.183 117.34 252.302 115.897L252.301 115.929C252.309 114.653 252.267 113.379 252.316 112.102C252.345 110.828 252.393 109.552 252.506 108.273Z" fill="#000412"/>
<path d="M223.395 102.962C222.823 104.549 222.162 106.09 221.504 107.633C220.826 109.166 220.129 110.689 219.395 112.193L219.409 112.157C218.496 114.668 217.534 117.159 216.417 119.593C217.075 116.987 217.889 114.439 218.751 111.909L218.755 111.894L218.765 111.873C219.469 110.354 220.211 108.853 220.971 107.362C221.752 105.882 222.529 104.399 223.395 102.962Z" fill="#000412"/>
<path d="M243.869 91.3924L242.876 100.213L235.253 97.8324L241.109 90.6759L243.869 91.3924Z" fill="#EEAF6C"/>
<path d="M243.041 94.0617L235.901 97.2248L238.295 93.466L243.041 94.0617Z" fill="#954A2D"/>
<path d="M236.544 80.9714L233.271 93.1813L242.708 95.5735L245.966 83.8504L236.544 80.9714Z" fill="#EEAF6C"/>
<path d="M238.135 102.962C237.552 106.504 236.933 110.039 236.267 113.564L234.213 124.125L231.997 134.651C231.238 138.155 230.433 141.65 229.592 145.136C230.174 141.594 230.793 138.059 231.459 134.535L233.514 123.974L235.732 113.448C236.49 109.943 237.295 106.449 238.135 102.962Z" fill="#000412"/>
<path d="M232.031 98.2935L237.559 107.133L237.045 107.021L245.53 101.256L237.458 107.624L237.138 107.877L236.944 107.512L232.031 98.2935Z" fill="#000412"/>
<path d="M207.796 151.397L244.546 154.818L208.232 146.952L207.796 151.397Z" fill="#000412"/>
<path d="M234.587 88.2725L235.901 83.3692C235.901 83.3692 238.594 86.4566 244.546 86.4566L243.869 91.3923C243.869 91.3923 246.858 94.073 251.715 91.7496C256.948 89.2461 261.369 76.3235 252.649 71.1199C245.015 66.5633 235.921 67.557 232.37 75.9912C228.699 84.7077 234.587 88.2725 234.587 88.2725Z" fill="#010101"/>
<path d="M217.702 233.068V236.733H209.013C209.013 236.733 211.781 233.69 213.815 233.69L217.702 233.068Z" fill="#010101"/>
<path d="M238.667 232.56V236.225H247.355C247.355 236.225 244.405 232.56 242.371 232.56H238.667Z" fill="#010101"/>
<path d="M225.803 157.886L221.045 156.017L215.053 192.226L225.803 157.886Z" fill="#010101"/>
<path d="M256.554 149.406L258.342 146.109L265.652 144.216L256.554 149.406Z" fill="#010101"/>
</g>
</svg>
