<svg width="90" height="95" viewBox="0 0 90 95" fill="none" xmlns="http://www.w3.org/2000/svg">
<path d="M12.9916 27.2144C14.1645 27.3504 15.3743 27.2603 16.5545 26.9193C17.3653 27.5052 18.7015 30.0125 18.7015 30.0125L19.6622 29.5433C19.1235 28.4326 18.826 25.9284 18.826 25.9284C18.7366 25.9858 18.6144 26.0499 18.4766 26.1158C20.6786 24.8897 22.1931 22.8612 22.8231 20.5734C23.7016 20.1501 26.6085 20.2596 26.6085 20.2596L26.6865 19.1931C25.484 19.1018 23.2542 18.1453 23.1514 18.1011C23.1466 17.2166 23.0099 16.3236 22.7366 15.4487C23.2759 14.6537 24.759 13.9414 24.759 13.9414L24.2862 12.9825C23.2481 13.491 22.1218 13.6742 21.9833 13.6954C21.5873 12.9886 21.1096 12.3525 20.5661 11.7945C20.6882 10.7715 22.175 8.36516 22.175 8.36516L21.2747 7.76418C20.6592 8.68016 18.9984 9.9843 18.6187 10.2763C17.739 9.76543 16.7801 9.40448 15.7831 9.20859C15.4354 8.3174 15.5454 6.90564 15.5454 6.90564L14.465 6.84276C14.4082 7.77567 14.1409 8.65356 14.0097 9.03748C13.202 9.0393 12.3876 9.14873 11.5847 9.37364C10.7618 8.56891 9.61426 6.41772 9.61426 6.41772L8.64145 6.89294C9.07677 7.79018 9.3573 9.58526 9.45283 10.2733C8.55378 10.7945 7.77384 11.4511 7.12509 12.205C6.18251 12.0514 5.03014 11.2552 5.03014 11.2552L4.43218 12.1579C5.21273 12.6784 5.83971 13.3544 6.10332 13.6591C5.46364 14.7897 5.06944 16.0479 4.95214 17.3466C4.0271 17.9397 1.45873 18.4845 1.45873 18.4845L1.64615 19.551C2.59599 19.3871 4.31247 19.5951 5.04706 19.6985C5.1825 20.4845 5.42192 21.2662 5.77683 22.0238C5.95579 22.4065 6.16015 22.7693 6.38325 23.1139C5.87236 23.9138 4.73811 24.6557 4.73811 24.6557L5.34756 25.5499C6.24419 24.9423 7.25388 24.6037 7.50782 24.5239C8.41533 25.4537 9.50241 26.1672 10.6862 26.6345C10.7884 27.7742 10.2406 30.1763 10.2406 30.1763L11.2872 30.4538C11.5762 29.3843 12.734 27.6031 12.9916 27.2144ZM22.4573 14.6748C22.4144 14.5708 22.3721 14.4662 22.3243 14.3629C22.3727 14.4656 22.4168 14.5714 22.4573 14.6748Z" fill="#106EEA" fill-opacity="0.2"/>
<path d="M23.2446 25.0801L23.8359 24.1889C22.8093 23.5039 21.9913 22.4531 21.9913 22.4531C21.6884 23.0511 20.9568 24.1158 20.9568 24.1158C21.9163 24.1605 23.2446 25.0801 23.2446 25.0801Z" fill="#106EEA" fill-opacity="0.2"/>
<path d="M13.4916 25.0088C13.5176 24.5372 14.3906 24.2301 15.468 23.5916C15.6053 23.5197 15.7401 23.4211 15.8834 23.3377C16.0249 23.2488 16.1657 23.146 16.3127 23.0493C16.5968 22.8365 16.8955 22.6158 17.1772 22.3522C17.7486 21.8364 18.2776 21.2004 18.6863 20.4761C19.0811 19.7433 19.3363 18.9567 19.4675 18.1979C19.54 17.8188 19.5672 17.4488 19.5957 17.0945C19.5987 16.9186 19.6108 16.7451 19.6102 16.5776C19.6041 16.4119 19.6162 16.2457 19.6029 16.0909C19.5678 14.8393 19.3617 13.9367 19.7468 13.6634C19.8399 13.5993 19.9615 13.5836 20.1108 13.6198C20.2565 13.6579 20.4463 13.7383 20.6332 13.8871C21.0243 14.1737 21.4711 14.7051 21.8418 15.473C21.9415 15.6634 22.0129 15.8726 22.0975 16.0915C22.1767 16.3109 22.2384 16.5461 22.3025 16.791C22.4089 17.2838 22.4899 17.8249 22.4875 18.4011C22.4839 18.9761 22.4349 19.5879 22.2771 20.2076C22.1253 20.8268 21.8914 21.4568 21.5624 22.0626C21.2263 22.6635 20.8182 23.1974 20.3756 23.6563C19.9361 24.12 19.4445 24.4876 18.9602 24.7978C18.4741 25.1074 17.9729 25.328 17.5001 25.501C17.2589 25.5778 17.0273 25.6509 16.7994 25.7011C16.5696 25.7464 16.3544 25.7978 16.1403 25.8148C15.2933 25.9115 14.6058 25.8172 14.1542 25.6394C13.9287 25.5608 13.7588 25.4435 13.6494 25.3401C13.5387 25.2325 13.4867 25.1219 13.4916 25.0088Z" fill="#106EEA" fill-opacity="0.2"/>
<path d="M22.7788 8.3961C22.6724 8.56055 22.1748 8.42754 21.6682 8.09864C21.4971 7.98739 21.3465 7.86828 21.2268 7.7528C20.9922 7.52668 20.8737 7.31446 20.9445 7.20563C21.0509 7.04118 21.5485 7.17419 22.0545 7.5031C22.5612 7.832 22.8853 8.23165 22.7788 8.3961Z" fill="#106EEA" fill-opacity="0.2"/>
<path d="M21.2613 7.78564C21.2613 7.78564 21.7322 8.20464 22.176 8.36546C22.072 8.53657 21.9541 8.73306 21.8399 8.93319C21.8399 8.93319 21.2274 8.3316 21.1204 7.97609L21.2613 7.78564Z" fill="#106EEA" fill-opacity="0.2"/>
<path d="M16.0817 6.62704C16.0732 6.82293 15.5768 6.95957 14.9734 6.93297C14.7697 6.9239 14.5792 6.89729 14.4172 6.85799C14.1004 6.78181 13.8912 6.65908 13.8966 6.52909C13.9051 6.3332 14.4015 6.19656 15.0049 6.22316C15.6089 6.25037 16.0907 6.43114 16.0817 6.62704Z" fill="#106EEA" fill-opacity="0.2"/>
<path d="M14.4636 6.86951C14.4636 6.86951 15.0652 7.03698 15.5459 6.90639C15.5314 7.10772 15.5272 7.32719 15.5302 7.55876C15.5302 7.55876 14.7158 7.35742 14.4437 7.1047L14.4636 6.86951Z" fill="#106EEA" fill-opacity="0.2"/>
<path d="M9.94485 5.91286C10.0331 6.08759 9.66794 6.45035 9.12924 6.72303C8.94725 6.81493 8.76829 6.88506 8.60807 6.93041C8.29428 7.01928 8.05183 7.01505 7.99318 6.89897C7.90491 6.72424 8.27009 6.36147 8.8088 6.0888C9.3481 5.81672 9.85658 5.73752 9.94485 5.91286Z" fill="#106EEA" fill-opacity="0.2"/>
<path d="M8.65404 6.91714C8.65404 6.91714 9.2526 6.72064 9.61536 6.41833C9.71089 6.59428 9.82093 6.795 9.93701 6.99452C9.93701 6.99452 9.10931 7.22125 8.74836 7.13479L8.65404 6.91714Z" fill="#106EEA" fill-opacity="0.2"/>
<path d="M5.05979 10.653C5.22485 10.7588 5.09365 11.257 4.76656 11.7642C4.65592 11.9359 4.53741 12.0871 4.42254 12.2074C4.19702 12.4432 3.98601 12.5617 3.87658 12.4916C3.71152 12.3858 3.84333 11.8876 4.16981 11.3803C4.4963 10.8724 4.89474 10.5465 5.05979 10.653Z" fill="#106EEA" fill-opacity="0.2"/>
<path d="M4.45509 12.1729C4.45509 12.1729 4.9031 11.737 5.03128 11.2563C5.19815 11.37 5.38558 11.4843 5.58691 11.598C5.58691 11.598 5.00287 12.2001 4.64796 12.3084L4.45509 12.1729Z" fill="#106EEA" fill-opacity="0.2"/>
<path d="M1.06557 18.0278C1.25844 17.9915 1.50572 18.4426 1.61757 19.0357C1.65566 19.2364 1.6732 19.4275 1.67259 19.5943C1.67138 19.9202 1.59943 20.1524 1.47246 20.1766C1.27959 20.2128 1.03231 19.7618 0.92046 19.1687C0.808003 18.575 0.8727 18.0647 1.06557 18.0278Z" fill="#106EEA" fill-opacity="0.2"/>
<path d="M1.67315 19.5472C1.67315 19.5472 1.65018 18.9172 1.46034 18.4855C1.65563 18.442 1.87932 18.3924 2.10303 18.3362C2.10303 18.3362 2.09155 19.1947 1.90835 19.517L1.67315 19.5472Z" fill="#106EEA" fill-opacity="0.2"/>
<path d="M4.19078 24.4023C4.3516 24.2899 4.76273 24.5994 5.10917 25.0934C5.22647 25.2603 5.3214 25.4272 5.38911 25.5795C5.52213 25.877 5.55235 26.1176 5.44594 26.1926C5.28572 26.305 4.87399 25.9955 4.52755 25.5015C4.18111 25.0076 4.03056 24.5148 4.19078 24.4023Z" fill="#106EEA" fill-opacity="0.2"/>
<path d="M5.37038 25.5366C5.37038 25.5366 5.13579 24.9573 4.73917 24.6569C4.90785 24.545 5.0838 24.4144 5.26518 24.2711C5.26518 24.2711 5.60255 25.039 5.56809 25.409L5.37038 25.5366Z" fill="#106EEA" fill-opacity="0.2"/>
<path d="M9.66188 30.3429C9.70964 30.1531 10.2229 30.118 10.8088 30.2649C11.0065 30.3145 11.1879 30.3786 11.3384 30.4493C11.6335 30.5872 11.8143 30.7498 11.7822 30.8756C11.7345 31.0654 11.2212 31.1005 10.6353 30.9536C10.05 30.8066 9.61412 30.5333 9.66188 30.3429Z" fill="#106EEA" fill-opacity="0.2"/>
<path d="M11.2955 30.4294C11.2955 30.4294 10.7145 30.1858 10.2423 30.1767C10.2852 29.9814 10.333 29.7571 10.3771 29.5304C10.3771 29.5304 11.151 29.901 11.3674 30.2033L11.2955 30.4294Z" fill="#106EEA" fill-opacity="0.2"/>
<path d="M11.1915 15.1731C10.5525 15.4723 9.87046 15.3665 9.66913 14.9367C9.46779 14.5068 9.8227 13.9149 10.4618 13.6156C11.1008 13.3163 11.7828 13.4221 11.9842 13.852C12.1861 14.2825 11.8306 14.8738 11.1915 15.1731Z" fill="#106EEA" fill-opacity="0.2"/>
<path d="M11.7098 14.5739C11.0707 14.8732 10.3887 14.7674 10.1874 14.3375C9.98604 13.9077 10.3409 13.3158 10.98 13.0165C11.6191 12.7172 12.3011 12.823 12.5024 13.2529C12.7044 13.6834 12.3494 14.2747 11.7098 14.5739Z" fill="#106EEA" fill-opacity="0.2"/>
<path d="M17.6959 11.7426C18.26 12.167 18.4855 12.8188 18.2001 13.1984C17.9142 13.5781 17.2255 13.5413 16.6614 13.1168C16.0973 12.6924 15.8718 12.0406 16.1578 11.6609C16.4431 11.2812 17.1318 11.3181 17.6959 11.7426Z" fill="#106EEA" fill-opacity="0.2"/>
<path d="M18.1434 11.1156C18.7075 11.54 18.933 12.1918 18.6476 12.5715C18.3617 12.9512 17.673 12.9143 17.1089 12.4899C16.5448 12.0654 16.3193 11.4137 16.6053 11.034C16.8907 10.6543 17.5793 10.6912 18.1434 11.1156Z" fill="#106EEA" fill-opacity="0.2"/>
<path d="M8.78651 19.0933C8.36571 19.2904 7.86449 19.1091 7.66739 18.6883C7.47029 18.2675 7.65167 17.7662 8.07247 17.5691C8.49328 17.372 8.99451 17.5534 9.19161 17.9742C9.38871 18.3956 9.20732 18.8962 8.78651 19.0933Z" fill="#106EEA" fill-opacity="0.2"/>
<path d="M9.19448 18.9023C8.77368 19.0994 8.27246 18.918 8.07536 18.4972C7.87825 18.0764 8.05964 17.5752 8.48044 17.3781C8.90125 17.181 9.40246 17.3624 9.59957 17.7832C9.79667 18.204 9.61529 18.7052 9.19448 18.9023Z" fill="#106EEA" fill-opacity="0.2"/>
<path d="M17.9293 20.9797C17.3845 20.8074 17.0822 20.2258 17.2545 19.681C17.4268 19.1363 18.0085 18.834 18.5532 19.0063C19.098 19.1786 19.4003 19.7602 19.228 20.305C19.0556 20.8497 18.4746 21.152 17.9293 20.9797Z" fill="#106EEA" fill-opacity="0.2"/>
<path d="M18.4578 21.1465C17.9131 20.9742 17.6108 20.3925 17.7831 19.8478C17.9554 19.303 18.537 19.0007 19.0818 19.173C19.6265 19.3454 19.9288 19.927 19.7565 20.4717C19.5842 21.0171 19.0026 21.3188 18.4578 21.1465Z" fill="#106EEA" fill-opacity="0.2"/>
<path d="M9.85242 23.3256C9.54407 23.4701 9.17647 23.3371 9.03197 23.0287C8.88747 22.7204 9.02048 22.3528 9.32883 22.2083C9.63718 22.0638 10.0048 22.1968 10.1493 22.5051C10.2938 22.8141 10.1614 23.1811 9.85242 23.3256Z" fill="#106EEA" fill-opacity="0.2"/>
<path d="M10.1516 23.1859C9.84325 23.3304 9.47564 23.1974 9.33114 22.8891C9.18664 22.5807 9.31966 22.2131 9.62801 22.0686C9.93636 21.9241 10.304 22.0571 10.4485 22.3655C10.593 22.6738 10.4599 23.0408 10.1516 23.1859Z" fill="#106EEA" fill-opacity="0.2"/>
<path d="M18.3756 30.5128C18.2885 30.3398 18.6489 29.9819 19.1815 29.7129C19.3617 29.6222 19.5382 29.5526 19.6967 29.5079C20.0062 29.4202 20.2462 29.4245 20.3037 29.5387C20.3907 29.7117 20.0304 30.0696 19.4977 30.3386C18.9657 30.6077 18.4633 30.6857 18.3756 30.5128Z" fill="#106EEA" fill-opacity="0.2"/>
<path d="M19.6514 29.5206C19.6514 29.5206 19.0595 29.7141 18.7015 30.0128C18.6072 29.8393 18.4984 29.6409 18.3841 29.4432C18.3841 29.4432 19.2021 29.2195 19.5583 29.3054L19.6514 29.5206Z" fill="#106EEA" fill-opacity="0.2"/>
<path d="M23.2159 25.6756C23.0533 25.5704 23.1827 25.0795 23.5061 24.5777C23.6156 24.4078 23.7329 24.259 23.8465 24.1405C24.069 23.9077 24.2782 23.7905 24.3858 23.86C24.5485 23.9646 24.4191 24.4561 24.0956 24.9579C23.7728 25.4592 23.3786 25.7808 23.2159 25.6756Z" fill="#106EEA" fill-opacity="0.2"/>
<path d="M23.8137 24.1744C23.8137 24.1744 23.3711 24.6049 23.2442 25.0801C23.0791 24.9676 22.8941 24.8552 22.6952 24.7421C22.6952 24.7421 23.272 24.1472 23.6233 24.0408L23.8137 24.1744Z" fill="#106EEA" fill-opacity="0.2"/>
<path d="M26.8775 20.7928C26.684 20.7814 26.5558 20.2892 26.5915 19.6937C26.6036 19.4923 26.6326 19.3049 26.6731 19.1459C26.7529 18.8339 26.8775 18.629 27.0057 18.6368C27.1991 18.6483 27.3273 19.1405 27.2916 19.736C27.256 20.3309 27.071 20.8043 26.8775 20.7928Z" fill="#106EEA" fill-opacity="0.2"/>
<path d="M26.6616 19.1913C26.6616 19.1913 26.5316 19.8001 26.6096 20.2596C26.4119 20.2542 26.1858 20.2481 25.9579 20.2475C25.9579 20.2475 26.1761 19.4283 26.4295 19.1628L26.6616 19.1913Z" fill="#106EEA" fill-opacity="0.2"/>
<path d="M25.2607 14.2656C25.0884 14.3539 24.7286 13.9942 24.4578 13.4627C24.3665 13.2832 24.2963 13.1066 24.251 12.9488C24.1621 12.6393 24.1657 12.3998 24.28 12.3418C24.4523 12.2541 24.8121 12.6133 25.0829 13.1447C25.3538 13.6755 25.4336 14.178 25.2607 14.2656Z" fill="#106EEA" fill-opacity="0.2"/>
<path d="M24.2642 12.9937C24.2642 12.9937 24.4136 13.5922 24.76 13.9417C24.5798 14.0275 24.3894 14.1309 24.1923 14.2458C24.1923 14.2458 23.9686 13.4477 24.0532 13.091L24.2642 12.9937Z" fill="#106EEA" fill-opacity="0.2"/>
<path d="M12.7817 24.4418C12.0767 24.4073 11.5235 23.995 11.5471 23.5204C11.5701 23.0457 12.1608 22.689 12.8657 22.7235C13.5707 22.758 14.1239 23.1703 14.1003 23.6449C14.0768 24.1195 13.4867 24.4762 12.7817 24.4418Z" fill="#106EEA" fill-opacity="0.2"/>
<path d="M13.2509 24.6284C12.546 24.594 11.9928 24.1816 12.0163 23.707C12.0393 23.2324 12.63 22.8763 13.335 22.9108C14.04 22.9452 14.5932 23.3576 14.5696 23.8322C14.5466 24.3062 13.9559 24.6629 13.2509 24.6284Z" fill="#106EEA" fill-opacity="0.2"/>
<path d="M14.8234 19.1985C14.1843 19.4977 13.4231 19.2226 13.1232 18.583C12.8239 17.9439 13.099 17.1827 13.7387 16.8828C14.3784 16.5829 15.139 16.8586 15.4389 17.4983C15.7381 18.138 15.463 18.8986 14.8234 19.1985Z" fill="#106EEA" fill-opacity="0.2"/>
<path d="M15.4965 18.8829C14.8574 19.1822 14.0962 18.9071 13.7963 18.2674C13.497 17.6283 13.7721 16.8671 14.4118 16.5673C15.0515 16.2674 15.8121 16.5431 16.1113 17.1828C16.4112 17.8224 16.1361 18.5836 15.4965 18.8829Z" fill="#106EEA" fill-opacity="0.2"/>
<path d="M9.89468 25.1654C9.8318 25.2567 9.59903 25.2313 9.23566 25.0704C8.87229 24.9114 8.38981 24.6019 7.86683 24.1236C7.60443 23.8854 7.34082 23.5988 7.076 23.2735C6.82025 22.9428 6.55906 22.5752 6.33052 22.1593C5.86558 21.334 5.49858 20.3333 5.33353 19.2372C5.17814 18.1392 5.24466 17.0757 5.45445 16.1513C5.55482 15.6876 5.69992 15.2607 5.85047 14.8707C6.0113 14.4838 6.18239 14.1337 6.36559 13.8302C6.73017 13.2226 7.10442 12.7879 7.40733 12.5315C7.70963 12.2739 7.92548 12.1833 8.01193 12.2528C8.20057 12.4051 7.80637 13.1301 7.42123 14.3157C7.32329 14.6114 7.2338 14.9391 7.14734 15.2891C7.07056 15.6422 6.99136 16.0183 6.94481 16.4173C6.84263 17.2142 6.83295 18.0957 6.95932 18.9996C7.09596 19.9017 7.35714 20.7439 7.68303 21.4779C7.84143 21.8473 8.02463 22.1847 8.19936 22.5015C8.38256 22.8122 8.56152 23.1006 8.73988 23.3558C9.44727 24.383 10.0319 24.9658 9.89468 25.1654Z" fill="#106EEA" fill-opacity="0.2"/>
<g opacity="0.2">
<path d="M10.8785 10.7764C11.0901 11.1779 10.9523 11.6658 10.5714 11.8665C10.1905 12.0672 9.7104 11.9046 9.49879 11.5031C9.28778 11.1017 9.42503 10.6138 9.80593 10.4136C10.1868 10.2129 10.6669 10.3756 10.8785 10.7764Z" fill="#106EEA" fill-opacity="0.2"/>
</g>
<path d="M68.0747 90.498C69.2077 90.6298 70.3758 90.5427 71.5155 90.2132C72.2985 90.7791 73.5893 93.2006 73.5893 93.2006L74.5174 92.7471C73.9974 91.6745 73.7102 89.2555 73.7102 89.2555C73.6237 89.3111 73.5059 89.3728 73.3728 89.4369C75.4992 88.2525 76.9624 86.2936 77.5712 84.0843C78.4195 83.6756 81.2273 83.7808 81.2273 83.7808L81.3022 82.7506C80.1408 82.6623 77.9872 81.7384 77.888 81.6961C77.8838 80.8418 77.7514 79.9797 77.4878 79.1344C78.009 78.3666 79.4413 77.6785 79.4413 77.6785L78.9848 76.7523C77.9817 77.2432 76.8941 77.4204 76.7604 77.4409C76.3783 76.7583 75.9164 76.144 75.3916 75.6053C75.5095 74.6174 76.9455 72.2933 76.9455 72.2933L76.076 71.7123C75.4811 72.5974 73.8771 73.8568 73.5107 74.1386C72.6612 73.6452 71.735 73.2969 70.7718 73.1077C70.4357 72.2473 70.5421 70.884 70.5421 70.884L69.4985 70.8235C69.4435 71.7244 69.1853 72.5726 69.059 72.9432C68.279 72.9451 67.4918 73.0509 66.7173 73.2679C65.9229 72.491 64.8146 70.4136 64.8146 70.4136L63.8751 70.8725C64.2959 71.7389 64.5661 73.4723 64.6586 74.1373C63.7904 74.641 63.0371 75.2752 62.4107 76.0032C61.5008 75.855 60.3877 75.0854 60.3877 75.0854L59.8103 75.9566C60.5643 76.459 61.1695 77.1126 61.4246 77.4064C60.8067 78.4984 60.4258 79.7136 60.3127 80.9682C59.4191 81.5407 56.939 82.0674 56.939 82.0674L57.1198 83.097C58.0376 82.9386 59.6948 83.1393 60.4046 83.2397C60.5352 83.9991 60.7668 84.7542 61.109 85.4858C61.2819 85.8552 61.4796 86.2053 61.6949 86.539C61.2015 87.3111 60.106 88.0282 60.106 88.0282L60.6949 88.8922C61.5606 88.3057 62.5365 87.978 62.7813 87.9012C63.658 88.7996 64.7082 89.4883 65.8515 89.9393C65.9501 91.0403 65.4211 93.3602 65.4211 93.3602L66.432 93.6286C66.7071 92.5942 67.825 90.874 68.0747 90.498ZM77.2163 78.3871C77.1746 78.2862 77.1335 78.1858 77.0881 78.0854C77.1347 78.1852 77.1776 78.2874 77.2163 78.3871Z" fill="#106EEA" fill-opacity="0.2"/>
<path d="M77.9764 88.4369L78.5471 87.576C77.5556 86.9139 76.7653 85.8994 76.7653 85.8994C76.4727 86.4768 75.7659 87.5053 75.7659 87.5053C76.694 87.5488 77.9764 88.4369 77.9764 88.4369Z" fill="#106EEA" fill-opacity="0.2"/>
<path d="M68.5572 88.3681C68.5826 87.9128 69.4254 87.6153 70.466 86.9992C70.599 86.9297 70.729 86.8348 70.8668 86.7538C71.0035 86.6679 71.1395 86.5688 71.281 86.4756C71.5555 86.2701 71.8439 86.0567 72.1159 85.8021C72.6679 85.3039 73.1788 84.6896 73.5737 83.9901C73.9552 83.2827 74.2018 82.5227 74.3282 81.7899C74.3983 81.4236 74.4249 81.0662 74.4521 80.724C74.4552 80.5541 74.4667 80.3861 74.466 80.2252C74.4606 80.065 74.4715 79.9042 74.4594 79.7554C74.4255 78.5468 74.2266 77.675 74.5985 77.4108C74.6885 77.3485 74.8058 77.334 74.9503 77.3685C75.0912 77.4047 75.2744 77.4827 75.4552 77.6266C75.8331 77.9035 76.2641 78.4162 76.6221 79.1581C76.7182 79.3419 76.7877 79.5438 76.8688 79.7554C76.9449 79.9677 77.0048 80.1944 77.0665 80.4314C77.1692 80.9072 77.2472 81.4302 77.2448 81.9864C77.2412 82.5415 77.194 83.1328 77.0417 83.7313C76.8947 84.3293 76.6692 84.9375 76.3512 85.5228C76.0265 86.1038 75.6323 86.6189 75.2049 87.0621C74.7804 87.5101 74.3058 87.865 73.8379 88.1649C73.3681 88.4642 72.8844 88.677 72.4273 88.8439C72.1939 88.9183 71.9702 88.989 71.7502 89.0374C71.5277 89.0815 71.3203 89.1305 71.1135 89.1474C70.2955 89.2405 69.6316 89.1498 69.1957 88.9781C68.9774 88.9019 68.8142 88.7889 68.7078 88.6891C68.6026 88.5845 68.5524 88.4775 68.5572 88.3681Z" fill="#106EEA" fill-opacity="0.2"/>
<path d="M77.5271 72.3231C77.4244 72.4821 76.9437 72.3533 76.4546 72.0359C76.2889 71.9283 76.1438 71.8134 76.0283 71.7015C75.8016 71.4833 75.6873 71.2783 75.7556 71.1731C75.859 71.0141 76.3391 71.1429 76.8282 71.4603C77.3173 71.7777 77.6305 72.1641 77.5271 72.3231Z" fill="#106EEA" fill-opacity="0.2"/>
<path d="M76.061 71.7338C76.061 71.7338 76.5157 72.1382 76.9443 72.2936C76.844 72.4593 76.7303 72.6485 76.6197 72.842C76.6197 72.842 76.0284 72.261 75.925 71.9176L76.061 71.7338Z" fill="#106EEA" fill-opacity="0.2"/>
<path d="M71.059 70.6144C71.0505 70.8037 70.5717 70.9355 69.9888 70.9095C69.7917 70.9004 69.6085 70.875 69.4519 70.8375C69.146 70.7638 68.9441 70.6453 68.9495 70.5201C68.958 70.3309 69.4368 70.1985 70.0196 70.2251C70.6019 70.2511 71.0674 70.4252 71.059 70.6144Z" fill="#106EEA" fill-opacity="0.2"/>
<path d="M69.4961 70.8485C69.4961 70.8485 70.0772 71.0105 70.5415 70.8842C70.5276 71.0789 70.524 71.2911 70.5264 71.5142C70.5264 71.5142 69.7398 71.3195 69.4774 71.0752L69.4961 70.8485Z" fill="#106EEA" fill-opacity="0.2"/>
<path d="M65.1321 69.9246C65.2173 70.0939 64.8648 70.444 64.3443 70.707C64.1683 70.7959 63.9954 70.8636 63.8406 70.9077C63.5377 70.9936 63.3037 70.9894 63.2469 70.8775C63.1616 70.7088 63.5141 70.3581 64.0347 70.0951C64.5553 69.8321 65.0462 69.756 65.1321 69.9246Z" fill="#106EEA" fill-opacity="0.2"/>
<path d="M63.8847 70.8951C63.8847 70.8951 64.4633 70.7052 64.8128 70.4132C64.9053 70.5831 65.0117 70.7766 65.1235 70.9701C65.1235 70.9701 64.3242 71.1889 63.9754 71.1055L63.8847 70.8951Z" fill="#106EEA" fill-opacity="0.2"/>
<path d="M60.413 74.5025C60.572 74.6047 60.4456 75.0854 60.13 75.5757C60.0236 75.7414 59.9088 75.8871 59.7975 76.0038C59.5799 76.2311 59.3755 76.346 59.2703 76.2783C59.1113 76.1755 59.2376 75.6954 59.5532 75.2051C59.8695 74.7148 60.254 74.4004 60.413 74.5025Z" fill="#106EEA" fill-opacity="0.2"/>
<path d="M59.829 75.9706C59.829 75.9706 60.2613 75.5498 60.3858 75.0848C60.5473 75.1949 60.728 75.3049 60.9221 75.415C60.9221 75.415 60.358 75.9966 60.0152 76.1012L59.829 75.9706Z" fill="#106EEA" fill-opacity="0.2"/>
<path d="M56.5556 81.626C56.7418 81.5909 56.9806 82.0269 57.0889 82.5994C57.1257 82.7929 57.1427 82.9779 57.1421 83.1387C57.1409 83.4537 57.0713 83.6774 56.9486 83.701C56.7624 83.7361 56.5236 83.3001 56.4153 82.7276C56.3071 82.1544 56.37 81.6611 56.5556 81.626Z" fill="#106EEA" fill-opacity="0.2"/>
<path d="M57.1427 83.0935C57.1427 83.0935 57.121 82.4853 56.9372 82.0681C57.1258 82.0264 57.3417 81.978 57.5581 81.9242C57.5581 81.9242 57.5472 82.7531 57.3701 83.0651L57.1427 83.0935Z" fill="#106EEA" fill-opacity="0.2"/>
<path d="M59.5744 87.7821C59.7291 87.6733 60.1264 87.972 60.4613 88.4496C60.5744 88.6111 60.6663 88.7725 60.7322 88.9194C60.861 89.2066 60.89 89.4394 60.7872 89.5113C60.6324 89.6201 60.2352 89.3215 59.9002 88.8438C59.5653 88.3662 59.4196 87.891 59.5744 87.7821Z" fill="#106EEA" fill-opacity="0.2"/>
<path d="M60.7134 88.8777C60.7134 88.8777 60.4873 88.3184 60.104 88.0276C60.2666 87.92 60.4371 87.7936 60.6125 87.6552C60.6125 87.6552 60.9383 88.397 60.9051 88.7537L60.7134 88.8777Z" fill="#106EEA" fill-opacity="0.2"/>
<path d="M64.8581 93.5203C64.9041 93.3365 65.3998 93.3033 65.9657 93.4454C66.1568 93.4931 66.3315 93.5554 66.4772 93.6237C66.7626 93.7567 66.9367 93.9139 66.9059 94.0355C66.86 94.2193 66.3642 94.2525 65.7983 94.1104C65.233 93.9678 64.8122 93.7042 64.8581 93.5203Z" fill="#106EEA" fill-opacity="0.2"/>
<path d="M66.4361 93.6038C66.4361 93.6038 65.875 93.368 65.4191 93.3595C65.4602 93.1703 65.5068 92.9545 65.5491 92.7356C65.5491 92.7356 66.297 93.0935 66.5056 93.3855L66.4361 93.6038Z" fill="#106EEA" fill-opacity="0.2"/>
<path d="M66.336 78.8685C65.7187 79.1581 65.0603 79.0553 64.8656 78.64C64.6709 78.2246 65.0137 77.6533 65.631 77.3643C66.2483 77.0753 66.9068 77.1774 67.1014 77.5928C67.2961 78.0082 66.9533 78.5795 66.336 78.8685Z" fill="#106EEA" fill-opacity="0.2"/>
<path d="M66.8365 78.2899C66.2192 78.5795 65.5608 78.4767 65.3661 78.0614C65.1714 77.646 65.5142 77.0746 66.1315 76.7856C66.7488 76.4966 67.4072 76.5988 67.6019 77.0142C67.7966 77.4295 67.4538 78.0009 66.8365 78.2899Z" fill="#106EEA" fill-opacity="0.2"/>
<path d="M72.6177 75.5551C73.1625 75.965 73.3801 76.595 73.1044 76.9614C72.8287 77.3278 72.163 77.2927 71.6183 76.8822C71.0735 76.4723 70.8559 75.8423 71.1316 75.4759C71.4079 75.1095 72.073 75.1452 72.6177 75.5551Z" fill="#106EEA" fill-opacity="0.2"/>
<path d="M73.0501 74.9494C73.5948 75.3593 73.8125 75.9893 73.5368 76.3557C73.2611 76.7221 72.5954 76.687 72.0507 76.2765C71.5059 75.8666 71.2883 75.2366 71.564 74.8702C71.8403 74.5038 72.5053 74.5395 73.0501 74.9494Z" fill="#106EEA" fill-opacity="0.2"/>
<path d="M64.0131 82.6551C63.6068 82.8456 63.1225 82.6702 62.932 82.2639C62.7416 81.8576 62.9169 81.3734 63.3232 81.1835C63.7295 80.9931 64.2138 81.1684 64.4043 81.5747C64.5947 81.9804 64.4194 82.4647 64.0131 82.6551Z" fill="#106EEA" fill-opacity="0.2"/>
<path d="M64.4071 82.4702C64.0008 82.6606 63.5165 82.4853 63.3267 82.079C63.1362 81.6727 63.3116 81.1884 63.7179 80.998C64.1242 80.8075 64.6085 80.9828 64.7983 81.3891C64.9888 81.796 64.8134 82.2797 64.4071 82.4702Z" fill="#106EEA" fill-opacity="0.2"/>
<path d="M72.8432 84.4767C72.3172 84.3104 72.0251 83.7487 72.1914 83.2227C72.3577 82.6967 72.9193 82.4047 73.4454 82.571C73.9714 82.7372 74.2634 83.2989 74.0971 83.8249C73.9315 84.3509 73.3698 84.643 72.8432 84.4767Z" fill="#106EEA" fill-opacity="0.2"/>
<path d="M73.3534 84.6382C72.8274 84.4719 72.5354 83.9102 72.7017 83.3842C72.8679 82.8582 73.4296 82.5662 73.9556 82.7325C74.4816 82.8987 74.7736 83.4604 74.6074 83.9864C74.4411 84.5124 73.88 84.8044 73.3534 84.6382Z" fill="#106EEA" fill-opacity="0.2"/>
<path d="M65.0427 86.7429C64.7446 86.8826 64.3897 86.7544 64.25 86.4563C64.1104 86.1582 64.2385 85.8033 64.5372 85.6637C64.8353 85.524 65.1902 85.6522 65.3299 85.9503C65.4689 86.2483 65.3407 86.6032 65.0427 86.7429Z" fill="#106EEA" fill-opacity="0.2"/>
<path d="M65.3317 86.6074C65.0337 86.7471 64.6788 86.6189 64.5391 86.3208C64.3994 86.0228 64.5282 85.6679 64.8263 85.5282C65.1244 85.3885 65.4793 85.5173 65.6189 85.8148C65.758 86.1129 65.6298 86.4678 65.3317 86.6074Z" fill="#106EEA" fill-opacity="0.2"/>
<path d="M73.2742 93.6836C73.1902 93.5167 73.5384 93.1709 74.0524 92.9109C74.2265 92.8232 74.397 92.7561 74.5499 92.7132C74.8492 92.6285 75.0808 92.6328 75.1364 92.7428C75.2205 92.9097 74.8722 93.2555 74.3583 93.5155C73.8438 93.7755 73.3589 93.8504 73.2742 93.6836Z" fill="#106EEA" fill-opacity="0.2"/>
<path d="M74.5063 92.7253C74.5063 92.7253 73.935 92.9122 73.5892 93.2012C73.4979 93.0331 73.3927 92.842 73.2826 92.651C73.2826 92.651 74.0722 92.4351 74.4169 92.518L74.5063 92.7253Z" fill="#106EEA" fill-opacity="0.2"/>
<path d="M77.9492 89.0124C77.792 88.9115 77.9172 88.4362 78.2292 87.952C78.3344 87.7881 78.448 87.6442 78.5581 87.5293C78.7733 87.3044 78.9746 87.1914 79.0786 87.2585C79.2358 87.36 79.1107 87.8347 78.7987 88.319C78.4873 88.8026 78.1064 89.1134 77.9492 89.0124Z" fill="#106EEA" fill-opacity="0.2"/>
<path d="M78.5266 87.562C78.5266 87.562 78.0992 87.9774 77.9764 88.4369C77.8174 88.328 77.6384 88.2192 77.4468 88.1104C77.4468 88.1104 78.0042 87.536 78.3428 87.4332L78.5266 87.562Z" fill="#106EEA" fill-opacity="0.2"/>
<path d="M81.4855 84.2966C81.2987 84.2857 81.1754 83.8105 81.2092 83.2349C81.2207 83.0402 81.2491 82.8594 81.2884 82.7053C81.3658 82.4042 81.4855 82.2059 81.6095 82.2137C81.7963 82.2246 81.9196 82.6998 81.8858 83.2748C81.8513 83.8504 81.6723 84.3075 81.4855 84.2966Z" fill="#106EEA" fill-opacity="0.2"/>
<path d="M81.2776 82.7495C81.2776 82.7495 81.1518 83.3378 81.2274 83.7816C81.0363 83.7761 80.8181 83.7707 80.5974 83.7695C80.5974 83.7695 80.8078 82.978 81.0527 82.7223L81.2776 82.7495Z" fill="#106EEA" fill-opacity="0.2"/>
<path d="M79.9244 77.9923C79.7575 78.0775 79.4105 77.7299 79.1487 77.2166C79.0604 77.043 78.9927 76.8725 78.9491 76.7202C78.8633 76.4215 78.8669 76.1899 78.977 76.1337C79.1438 76.0485 79.4909 76.3961 79.7527 76.9094C80.0139 77.4221 80.0912 77.907 79.9244 77.9923Z" fill="#106EEA" fill-opacity="0.2"/>
<path d="M78.9618 76.7632C78.9618 76.7632 79.1057 77.3418 79.4407 77.6786C79.2665 77.7614 79.0827 77.8611 78.8923 77.9724C78.8923 77.9724 78.6765 77.2021 78.7581 76.8569L78.9618 76.7632Z" fill="#106EEA" fill-opacity="0.2"/>
<path d="M67.8717 87.8203C67.1909 87.787 66.6564 87.3886 66.6788 86.9303C66.7011 86.472 67.2713 86.1274 67.9527 86.1612C68.6341 86.1945 69.1679 86.5929 69.1456 87.0512C69.1226 87.5095 68.5524 87.8535 67.8717 87.8203Z" fill="#106EEA" fill-opacity="0.2"/>
<path d="M68.3243 88.0004C67.6435 87.9672 67.109 87.5687 67.1314 87.1104C67.1538 86.6521 67.7239 86.3081 68.4053 86.3408C69.0861 86.374 69.6206 86.7725 69.5982 87.2307C69.5758 87.6896 69.0057 88.0337 68.3243 88.0004Z" fill="#106EEA" fill-opacity="0.2"/>
<path d="M69.8439 82.756C69.2266 83.045 68.4914 82.779 68.2024 82.1617C67.9128 81.5444 68.1794 80.8092 68.7967 80.5202C69.414 80.2312 70.1492 80.4972 70.4388 81.1145C70.7272 81.7318 70.4612 82.467 69.8439 82.756Z" fill="#106EEA" fill-opacity="0.2"/>
<path d="M70.4938 82.452C69.8765 82.7416 69.1413 82.4749 68.8523 81.8576C68.5633 81.2403 68.8293 80.5051 69.4466 80.2161C70.0639 79.9265 70.7991 80.1932 71.0881 80.8105C71.3771 81.4272 71.1111 82.1624 70.4938 82.452Z" fill="#106EEA" fill-opacity="0.2"/>
<path d="M65.0832 88.5192C65.0228 88.6069 64.7979 88.5827 64.4472 88.4279C64.0965 88.2744 63.6298 87.9751 63.1249 87.5132C62.8716 87.2828 62.6171 87.0065 62.3613 86.6921C62.114 86.3729 61.8619 86.0174 61.6412 85.6159C61.192 84.8184 60.8377 83.8529 60.6781 82.7942C60.5281 81.7337 60.5922 80.7065 60.7948 79.8141C60.8915 79.3661 61.0318 78.9538 61.1775 78.5771C61.3329 78.2028 61.4979 77.8649 61.6751 77.5722C62.027 76.9852 62.3891 76.5656 62.6811 76.3183C62.9732 76.0698 63.1818 75.9821 63.2646 76.0492C63.4466 76.1961 63.0663 76.8969 62.6938 78.0414C62.5989 78.3268 62.5131 78.6436 62.429 78.9816C62.3547 79.3226 62.2785 79.6853 62.2337 80.0717C62.1346 80.8413 62.1255 81.6932 62.2476 82.5657C62.3794 83.4369 62.6322 84.2501 62.9466 84.9593C63.1001 85.316 63.2767 85.6419 63.4454 85.9478C63.6225 86.2483 63.7954 86.5264 63.9677 86.7731C64.651 87.7641 65.2163 88.3264 65.0832 88.5192Z" fill="#106EEA" fill-opacity="0.2"/>
<g opacity="0.2">
<path d="M66.033 74.6223C66.2374 75.0098 66.1044 75.4814 65.7362 75.6749C65.3679 75.8684 64.9042 75.7112 64.7005 75.3236C64.4967 74.9361 64.6291 74.4651 64.9973 74.271C65.3655 74.0775 65.8293 74.2347 66.033 74.6223Z" fill="#106EEA" fill-opacity="0.2"/>
</g>
<path d="M60.6126 42.9523C62.9675 43.2255 65.3956 43.0448 67.7651 42.3603C69.3927 43.5369 72.0759 48.5703 72.0759 48.5703L74.0052 47.6283C72.9242 45.3985 72.3268 40.3706 72.3268 40.3706C72.1467 40.4861 71.9024 40.6142 71.6255 40.7473C76.0458 38.2853 79.0863 34.2133 80.3518 29.6207C82.1154 28.7712 87.9517 28.9901 87.9517 28.9901L88.1077 26.8492C85.6935 26.666 81.2164 24.7458 81.0102 24.6569C81.0005 22.8811 80.726 21.0891 80.1777 19.3321C81.2605 17.7353 84.2382 16.3054 84.2382 16.3054L83.289 14.3798C81.2043 15.4004 78.9437 15.7686 78.6649 15.8109C77.8705 14.3919 76.9104 13.1155 75.819 11.9946C76.0639 9.94076 79.0495 5.10995 79.0495 5.10995L77.2423 3.90256C76.0059 5.74177 72.6721 8.35971 71.9103 8.94618C70.1448 7.92077 68.2191 7.19645 66.2173 6.80285C65.519 5.01382 65.7397 2.18004 65.7397 2.18004L63.5697 2.05428C63.4555 3.92674 62.9192 5.69038 62.6556 6.46065C61.0346 6.46367 59.3985 6.68375 57.7873 7.13539C56.1355 5.51988 53.8319 1.20178 53.8319 1.20178L51.8797 2.15645C52.7539 3.95758 53.3162 7.56103 53.5079 8.94316C51.7031 9.98973 50.1366 11.3078 48.8349 12.8211C46.9431 12.5128 44.6292 10.9136 44.6292 10.9136L43.4291 12.725C44.9962 13.7697 46.2544 15.1277 46.784 15.7389C45.4999 18.0086 44.7078 20.5347 44.4732 23.1417C42.6165 24.3322 37.4598 25.4265 37.4598 25.4265L37.8359 27.5668C39.7434 27.2379 43.1885 27.6551 44.6631 27.8631C44.9352 29.4417 45.4152 31.0107 46.128 32.5313C46.4878 33.2991 46.8977 34.0271 47.3457 34.7199C46.3197 36.3252 44.0428 37.8149 44.0428 37.8149L45.2671 39.6106C47.067 38.3911 49.0948 37.7109 49.6045 37.5507C51.4268 39.4177 53.6094 40.85 55.9862 41.7878C56.1911 44.0756 55.0919 48.8986 55.0919 48.8986L57.1923 49.456C57.7709 47.3084 60.0945 43.7328 60.6126 42.9523ZM79.6154 17.7777C79.5289 17.5685 79.4437 17.3587 79.3487 17.1513C79.4455 17.3581 79.5343 17.5703 79.6154 17.7777Z" fill="#106EEA" fill-opacity="0.2"/>
<path d="M81.1958 38.6667L82.3821 36.8777C80.3204 35.5022 78.6789 33.3927 78.6789 33.3927C78.0712 34.5928 76.602 36.7313 76.602 36.7313C78.5295 36.8208 81.1958 38.6667 81.1958 38.6667Z" fill="#106EEA" fill-opacity="0.2"/>
<path d="M61.6157 38.5235C61.6677 37.5767 63.4205 36.9594 65.5832 35.6777C65.8595 35.5338 66.1291 35.3361 66.4169 35.168C66.7011 34.9902 66.984 34.7828 67.2785 34.5894C67.8492 34.1619 68.4484 33.7187 69.0143 33.1897C70.1612 32.154 71.2241 30.8777 72.044 29.423C72.8366 27.9526 73.3493 26.3722 73.6129 24.8492C73.7586 24.088 73.8137 23.3449 73.8699 22.6339C73.8765 22.2814 73.9007 21.9319 73.8995 21.5964C73.888 21.2639 73.911 20.9295 73.8856 20.6193C73.8149 18.1066 73.4013 16.2952 74.1746 15.7456C74.362 15.6162 74.6057 15.5854 74.9056 15.6573C75.1982 15.7335 75.5791 15.8956 75.9546 16.1942C76.7406 16.7698 77.6366 17.8357 78.3802 19.3775C78.5804 19.759 78.7243 20.1798 78.8936 20.6187C79.0526 21.0601 79.1759 21.5317 79.3047 22.0238C79.5181 23.013 79.6808 24.0995 79.6759 25.2567C79.6681 26.4109 79.5701 27.64 79.2539 28.8831C78.9492 30.1262 78.48 31.391 77.8192 32.6069C77.1438 33.8143 76.3252 34.8856 75.437 35.8064C74.5549 36.7369 73.5676 37.4758 72.596 38.0985C71.6201 38.72 70.6141 39.1626 69.6642 39.5103C69.1794 39.6644 68.715 39.8114 68.2567 39.9129C67.7948 40.0042 67.3625 40.107 66.9332 40.1415C65.2325 40.3355 63.8528 40.1469 62.9465 39.7896C62.4936 39.6312 62.1532 39.396 61.9325 39.1892C61.71 38.9734 61.6061 38.7509 61.6157 38.5235Z" fill="#106EEA" fill-opacity="0.2"/>
<path d="M80.2611 5.17237C80.047 5.50249 79.0488 5.23525 78.0319 4.57563C77.6879 4.35253 77.3862 4.1131 77.1455 3.88093C76.6739 3.42687 76.4369 3.00123 76.579 2.78297C76.793 2.45285 77.7912 2.72009 78.8082 3.37971C79.8251 4.03934 80.4757 4.84226 80.2611 5.17237Z" fill="#106EEA" fill-opacity="0.2"/>
<path d="M77.2139 3.9469C77.2139 3.9469 78.1595 4.78791 79.05 5.11077C78.8421 5.45479 78.6051 5.84839 78.3747 6.25105C78.3747 6.25105 77.1449 5.04366 76.9309 4.33022L77.2139 3.9469Z" fill="#106EEA" fill-opacity="0.2"/>
<path d="M66.8164 1.62087C66.7989 2.01387 65.8031 2.28896 64.5921 2.23455C64.1828 2.21641 63.8006 2.1626 63.476 2.08461C62.8393 1.93164 62.4197 1.68496 62.4312 1.42498C62.4487 1.03199 63.4445 0.756892 64.6556 0.811307C65.8666 0.865117 66.8339 1.22788 66.8164 1.62087Z" fill="#106EEA" fill-opacity="0.2"/>
<path d="M63.5678 2.10693C63.5678 2.10693 64.7758 2.4437 65.7407 2.1813C65.7117 2.58578 65.7032 3.02654 65.7087 3.49027C65.7087 3.49027 64.0744 3.08579 63.5279 2.57853L63.5678 2.10693Z" fill="#106EEA" fill-opacity="0.2"/>
<path d="M54.4957 0.186705C54.6734 0.537981 53.94 1.26593 52.8584 1.81309C52.4926 1.9981 52.1335 2.13837 51.8124 2.23027C51.183 2.40924 50.6957 2.40017 50.5784 2.1674C50.4007 1.81612 51.1341 1.08817 52.2157 0.541003C53.2973 -0.00556051 54.3185 -0.164571 54.4957 0.186705Z" fill="#106EEA" fill-opacity="0.2"/>
<path d="M51.9036 2.20362C51.9036 2.20362 53.1062 1.80942 53.8335 1.20239C54.0258 1.55548 54.2471 1.95815 54.4792 2.35961C54.4792 2.35961 52.8172 2.81488 52.0929 2.64075L51.9036 2.20362Z" fill="#106EEA" fill-opacity="0.2"/>
<path d="M44.688 9.70327C45.0187 9.9161 44.7557 10.9155 44.0997 11.9349C43.8778 12.2795 43.6396 12.5824 43.4086 12.8243C42.9564 13.2977 42.5319 13.5359 42.3125 13.395C41.9818 13.1822 42.2448 12.1828 42.9014 11.1634C43.5568 10.144 44.3573 9.49045 44.688 9.70327Z" fill="#106EEA" fill-opacity="0.2"/>
<path d="M43.4739 12.7547C43.4739 12.7547 44.3729 11.8799 44.6311 10.9143C44.966 11.1428 45.3427 11.372 45.7466 11.6005C45.7466 11.6005 44.5743 12.8097 43.8614 13.0262L43.4739 12.7547Z" fill="#106EEA" fill-opacity="0.2"/>
<path d="M36.6696 24.51C37.0566 24.4368 37.553 25.3431 37.7785 26.5342C37.8547 26.9369 37.8903 27.3208 37.8891 27.6552C37.8867 28.3099 37.7428 28.7749 37.4871 28.8233C37.1001 28.8964 36.6037 27.9901 36.3782 26.799C36.1521 25.608 36.2833 24.5832 36.6696 24.51Z" fill="#106EEA" fill-opacity="0.2"/>
<path d="M37.8891 27.5597C37.8891 27.5597 37.8437 26.2954 37.4616 25.4278C37.854 25.3408 38.3026 25.2404 38.7524 25.1285C38.7524 25.1285 38.7295 26.8517 38.3613 27.4998L37.8891 27.5597Z" fill="#106EEA" fill-opacity="0.2"/>
<path d="M42.9447 37.3069C43.267 37.0808 44.0923 37.7024 44.7888 38.6945C45.024 39.0301 45.2144 39.365 45.3511 39.6703C45.6183 40.2677 45.6788 40.7508 45.4659 40.9007C45.1437 41.1268 44.3184 40.5053 43.6219 39.5131C42.9254 38.5204 42.6225 37.5325 42.9447 37.3069Z" fill="#106EEA" fill-opacity="0.2"/>
<path d="M45.3117 39.5834C45.3117 39.5834 44.8413 38.4207 44.0445 37.8167C44.383 37.593 44.7367 37.3306 45.1007 37.0428C45.1007 37.0428 45.7779 38.5846 45.7089 39.327L45.3117 39.5834Z" fill="#106EEA" fill-opacity="0.2"/>
<path d="M53.9274 49.2342C54.0236 48.8527 55.0544 48.7826 56.2298 49.0776C56.627 49.1774 56.9904 49.3062 57.2933 49.4477C57.8864 49.7246 58.2479 50.0505 58.1845 50.3032C58.0883 50.6847 57.0575 50.7548 55.8821 50.4598C54.7068 50.1647 53.8313 49.6157 53.9274 49.2342Z" fill="#106EEA" fill-opacity="0.2"/>
<path d="M57.2069 49.4078C57.2069 49.4078 56.04 48.918 55.0926 48.9005C55.1785 48.5075 55.2752 48.0583 55.3629 47.603C55.3629 47.603 56.9167 48.3473 57.3508 48.9537L57.2069 49.4078Z" fill="#106EEA" fill-opacity="0.2"/>
<path d="M56.9989 18.7784C55.7154 19.3793 54.3471 19.1671 53.9426 18.3037C53.5382 17.4404 54.2504 16.2529 55.534 15.6513C56.8176 15.0504 58.1858 15.2626 58.5903 16.126C58.9947 16.9899 58.2825 18.1774 56.9989 18.7784Z" fill="#106EEA" fill-opacity="0.2"/>
<path d="M58.0395 17.5757C56.7559 18.1767 55.3877 17.9645 54.9832 17.1011C54.5787 16.2377 55.2909 15.0503 56.5745 14.4487C57.8581 13.8477 59.2263 14.0599 59.6308 14.9233C60.0353 15.7867 59.323 16.9741 58.0395 17.5757Z" fill="#106EEA" fill-opacity="0.2"/>
<path d="M70.0565 11.8912C71.1889 12.7437 71.6417 14.0521 71.068 14.8139C70.4942 15.5757 69.1115 15.5019 67.979 14.6494C66.8466 13.7969 66.3938 12.4879 66.9675 11.7267C67.5413 10.9655 68.924 11.0387 70.0565 11.8912Z" fill="#106EEA" fill-opacity="0.2"/>
<path d="M70.9549 10.6319C72.0873 11.4844 72.5402 12.7928 71.9664 13.5546C71.3926 14.3164 70.0099 14.2426 68.8775 13.3901C67.7451 12.5376 67.2922 11.2293 67.866 10.4675C68.4397 9.70566 69.8225 9.77943 70.9549 10.6319Z" fill="#106EEA" fill-opacity="0.2"/>
<path d="M52.1699 26.6485C51.3252 27.0445 50.3192 26.6805 49.9232 25.8353C49.5271 24.9906 49.8911 23.9846 50.7364 23.5886C51.581 23.1925 52.5871 23.5565 52.9831 24.4018C53.3791 25.247 53.0145 26.2531 52.1699 26.6485Z" fill="#106EEA" fill-opacity="0.2"/>
<path d="M52.9892 26.2652C52.1446 26.6612 51.1385 26.2966 50.7425 25.452C50.3465 24.6073 50.7105 23.6013 51.5557 23.2053C52.4003 22.8092 53.4064 23.1732 53.8024 24.0185C54.1978 24.8631 53.8339 25.8692 52.9892 26.2652Z" fill="#106EEA" fill-opacity="0.2"/>
<path d="M70.5257 30.4356C69.432 30.0898 68.8256 28.9223 69.1714 27.8286C69.5173 26.7348 70.6847 26.1284 71.7785 26.4743C72.8722 26.8201 73.4786 27.9876 73.1328 29.0813C72.787 30.1751 71.6195 30.7815 70.5257 30.4356Z" fill="#106EEA" fill-opacity="0.2"/>
<path d="M71.5863 30.7707C70.4925 30.4249 69.8861 29.2574 70.232 28.1637C70.5778 27.0699 71.7453 26.4635 72.839 26.8093C73.9328 27.1552 74.5392 28.3227 74.1933 29.4164C73.8475 30.5101 72.6806 31.1166 71.5863 30.7707Z" fill="#106EEA" fill-opacity="0.2"/>
<path d="M54.3102 35.1457C53.6905 35.4359 52.9529 35.1693 52.6627 34.5495C52.3724 33.9298 52.6397 33.1922 53.2588 32.902C53.8785 32.6118 54.6161 32.8784 54.9064 33.4981C55.1966 34.1179 54.9299 34.8555 54.3102 35.1457Z" fill="#106EEA" fill-opacity="0.2"/>
<path d="M54.9111 34.8639C54.2914 35.1541 53.5538 34.8874 53.2636 34.2677C52.9734 33.648 53.2406 32.9104 53.8597 32.6202C54.4794 32.3299 55.2171 32.5972 55.5073 33.2163C55.7975 33.836 55.5303 34.5736 54.9111 34.8639Z" fill="#106EEA" fill-opacity="0.2"/>
<path d="M71.4217 49.5732C71.2464 49.2262 71.9707 48.5073 73.0397 47.9674C73.4012 47.7848 73.7555 47.6463 74.0735 47.5556C74.6957 47.3791 75.1764 47.3882 75.2924 47.6179C75.4678 47.9649 74.7435 48.6838 73.6745 49.2237C72.6056 49.7643 71.5965 49.9202 71.4217 49.5732Z" fill="#106EEA" fill-opacity="0.2"/>
<path d="M73.9829 47.5816C73.9829 47.5816 72.7949 47.9704 72.076 48.5702C71.8861 48.2213 71.6679 47.8235 71.4387 47.4269C71.4387 47.4269 73.0808 46.9776 73.7967 47.15L73.9829 47.5816Z" fill="#106EEA" fill-opacity="0.2"/>
<path d="M81.1391 39.8633C80.812 39.6529 81.0732 38.6662 81.7213 37.6596C81.9408 37.3192 82.176 37.0199 82.4045 36.7811C82.8513 36.3137 83.2709 36.0785 83.4873 36.2176C83.8144 36.428 83.5533 37.4147 82.9051 38.4214C82.2564 39.4286 81.4655 40.0737 81.1391 39.8633Z" fill="#106EEA" fill-opacity="0.2"/>
<path d="M82.3391 36.8494C82.3391 36.8494 81.4509 37.7134 81.1952 38.6674C80.8645 38.4413 80.492 38.2152 80.0936 37.9897C80.0936 37.9897 81.252 36.7956 81.9564 36.5815L82.3391 36.8494Z" fill="#106EEA" fill-opacity="0.2"/>
<path d="M88.4898 30.0602C88.1016 30.0372 87.8447 29.0493 87.916 27.854C87.9402 27.4501 87.9982 27.0735 88.0805 26.7536C88.2407 26.1273 88.491 25.7161 88.7473 25.7312C89.1355 25.7542 89.3925 26.7421 89.3211 27.9374C89.2504 29.1334 88.8779 30.0838 88.4898 30.0602Z" fill="#106EEA" fill-opacity="0.2"/>
<path d="M88.0569 26.8449C88.0569 26.8449 87.7957 28.0674 87.9523 28.9901C87.5551 28.9786 87.1016 28.9671 86.6433 28.9659C86.6433 28.9659 87.0811 27.3207 87.5901 26.7887L88.0569 26.8449Z" fill="#106EEA" fill-opacity="0.2"/>
<path d="M85.2448 16.9567C84.8984 17.1332 84.1771 16.4113 83.6329 15.3448C83.4491 14.9838 83.3089 14.6301 83.2176 14.3127C83.0386 13.6912 83.0459 13.2105 83.2756 13.0932C83.6221 12.9167 84.344 13.6386 84.8875 14.7051C85.431 15.7716 85.5907 16.7801 85.2448 16.9567Z" fill="#106EEA" fill-opacity="0.2"/>
<path d="M83.2437 14.4028C83.2437 14.4028 83.543 15.6048 84.2395 16.3061C83.8779 16.4784 83.4952 16.6864 83.0992 16.9168C83.0992 16.9168 82.65 15.3152 82.8193 14.5987L83.2437 14.4028Z" fill="#106EEA" fill-opacity="0.2"/>
<path d="M60.1906 37.3857C58.7752 37.3168 57.6652 36.4885 57.7117 35.5362C57.7583 34.584 58.9433 33.8675 60.3593 33.937C61.7747 34.006 62.8847 34.8343 62.8382 35.7865C62.7916 36.7394 61.606 37.4552 60.1906 37.3857Z" fill="#106EEA" fill-opacity="0.2"/>
<path d="M61.1325 37.7605C59.7171 37.6916 58.6071 36.8633 58.6536 35.911C58.7002 34.9588 59.8858 34.2429 61.3012 34.3118C62.7166 34.3808 63.8266 35.2091 63.7801 36.1613C63.7335 37.1136 62.5485 37.8294 61.1325 37.7605Z" fill="#106EEA" fill-opacity="0.2"/>
<path d="M64.2904 26.859C63.0069 27.4606 61.479 26.9074 60.8774 25.6238C60.2759 24.3402 60.8291 22.8124 62.1127 22.2108C63.3962 21.6092 64.9241 22.1624 65.5257 23.446C66.1272 24.7302 65.574 26.258 64.2904 26.859Z" fill="#106EEA" fill-opacity="0.2"/>
<path d="M65.641 26.2264C64.3575 26.828 62.8296 26.2748 62.228 24.9912C61.6264 23.7076 62.1797 22.1798 63.4632 21.5782C64.7468 20.9766 66.2747 21.5299 66.8762 22.8134C67.4778 24.097 66.9246 25.6249 65.641 26.2264Z" fill="#106EEA" fill-opacity="0.2"/>
<path d="M54.3949 38.8386C54.2691 39.0217 53.8012 38.9704 53.072 38.6487C52.3435 38.3289 51.3737 37.7079 50.3235 36.7472C49.7969 36.269 49.2672 35.694 48.7358 35.041C48.2219 34.3766 47.6977 33.6383 47.2394 32.804C46.3059 31.1467 45.5688 29.1389 45.2375 26.9381C44.9261 24.7343 45.0586 22.5982 45.48 20.7433C45.6813 19.8122 45.9721 18.9555 46.2756 18.1719C46.5985 17.3944 46.9419 16.6918 47.3095 16.083C48.0411 14.8623 48.7932 13.9904 49.4002 13.4759C50.0067 12.9596 50.4408 12.777 50.6137 12.9161C50.9922 13.2214 50.2013 14.6773 49.4274 17.0576C49.2303 17.6513 49.0514 18.3085 48.8772 19.0117C48.7225 19.7209 48.5641 20.4748 48.471 21.2772C48.2654 22.8769 48.246 24.6472 48.5006 26.4617C48.7751 28.2725 49.2993 29.9629 49.9528 31.437C50.2715 32.1788 50.6385 32.856 50.9891 33.4914C51.3567 34.1154 51.7165 34.6946 52.0744 35.2073C53.4964 37.2684 54.6706 38.4377 54.3949 38.8386Z" fill="#106EEA" fill-opacity="0.2"/>
<g opacity="0.2">
<path d="M56.3695 9.95169C56.7939 10.7576 56.5176 11.7371 55.7528 12.1398C54.9879 12.5424 54.0242 12.2159 53.5998 11.41C53.1759 10.6047 53.4516 9.6252 54.2171 9.22253C54.9819 8.81926 55.9456 9.14635 56.3695 9.95169Z" fill="#106EEA" fill-opacity="0.2"/>
</g>
</svg>
