<svg width="92" height="94" viewBox="0 0 92 94" fill="none" xmlns="http://www.w3.org/2000/svg">
<path d="M8.87261 28.2655C8.55701 30.982 8.7656 33.7832 9.55521 36.5172C8.19787 38.3951 2.39063 41.4907 2.39063 41.4907L3.47771 43.7163C6.05031 42.4689 11.8503 41.7797 11.8503 41.7797C11.7167 41.5723 11.5692 41.29 11.4156 40.9707C14.2554 46.0706 18.9532 49.5785 24.252 51.038C25.2314 53.0731 24.9793 59.806 24.9793 59.806L27.4497 59.9862C27.6607 57.2008 29.8766 52.0356 29.9788 51.7986C32.0272 51.7878 34.095 51.4709 36.1216 50.8379C37.9632 52.087 39.6132 55.5224 39.6132 55.5224L41.8345 54.4268C40.6573 52.0217 40.2323 49.4141 40.1833 49.0924C41.8206 48.1758 43.2928 47.0682 44.5855 45.8094C46.9549 46.0918 52.5276 49.5362 52.5276 49.5362L53.92 47.4515C51.7978 46.0252 48.7778 42.1787 48.1013 41.3002C49.2839 39.2633 50.12 37.042 50.5735 34.7324C52.637 33.9265 55.9067 34.1816 55.9067 34.1816L56.0524 31.6785C53.8922 31.5467 51.8577 30.9282 50.9689 30.6241C50.9653 28.7535 50.7114 26.8665 50.1908 25.0079C52.0542 23.1022 57.0361 20.445 57.0361 20.445L55.9352 18.1922C53.8571 19.2007 49.6998 19.8494 48.1055 20.0707C46.8981 17.9884 45.3775 16.1819 43.632 14.68C43.9875 12.4974 45.8328 9.82808 45.8328 9.82808L43.7427 8.44292C42.5371 10.2507 40.9711 11.7024 40.2656 12.3136C37.647 10.8317 34.7328 9.91877 31.7249 9.64791C30.3512 7.50579 29.0888 1.55706 29.0888 1.55706L26.619 1.99057C26.9987 4.19133 26.5168 8.16542 26.2768 9.86678C24.4557 10.1806 22.6455 10.7344 20.891 11.5566C20.0046 11.972 19.1648 12.4448 18.3655 12.9617C16.5136 11.7779 14.7953 9.15091 14.7953 9.15091L12.724 10.5633C14.1309 12.6395 14.9156 14.9787 15.1001 15.567C12.9458 17.6692 11.294 20.1874 10.2124 22.9293C7.57269 23.1657 2.00911 21.8972 2.00911 21.8972L1.36581 24.3205C3.84712 24.9874 7.97175 27.6682 8.87261 28.2655ZM37.9161 50.1886C38.1573 50.0882 38.3991 49.9902 38.6392 49.8808C38.3997 49.9933 38.1549 50.0954 37.9161 50.1886Z" fill="white" fill-opacity="0.2"/>
<path d="M13.8166 52.0114L15.8807 53.3802C17.4678 51.0023 19.9014 49.1081 19.9014 49.1081C18.5168 48.4068 16.05 46.712 16.05 46.712C15.9466 48.9358 13.8166 52.0114 13.8166 52.0114Z" fill="white" fill-opacity="0.2"/>
<path d="M13.9815 29.4227C15.0741 29.4826 15.7857 31.505 17.2646 33.9996C17.4308 34.3182 17.6588 34.6296 17.8529 34.9615C18.0584 35.2892 18.2966 35.6151 18.5203 35.9555C19.0131 36.6145 19.5246 37.305 20.1352 37.9579C21.3299 39.2814 22.8028 40.5069 24.4811 41.4531C26.1777 42.3679 28.0006 42.9592 29.7575 43.2627C30.6354 43.4308 31.4928 43.4943 32.3132 43.5596C32.7201 43.5669 33.1234 43.5953 33.5097 43.5935C33.8937 43.5802 34.2788 43.6068 34.6367 43.5771C37.5358 43.4955 39.6253 43.0185 40.2596 43.9103C40.4083 44.1261 40.444 44.4073 40.3611 44.7537C40.2735 45.0911 40.0866 45.5306 39.742 45.9641C39.0781 46.8704 37.8478 47.9049 36.0696 48.7628C35.6295 48.9938 35.1446 49.1595 34.6379 49.3547C34.1288 49.5379 33.5853 49.6806 33.017 49.8288C31.8761 50.0748 30.6221 50.2629 29.2872 50.2568C27.9558 50.2484 26.5374 50.1353 25.1033 49.7701C23.6691 49.4188 22.2102 48.8771 20.8076 48.1147C19.4145 47.3354 18.1787 46.3916 17.1164 45.3662C16.0427 44.348 15.1902 43.2095 14.4725 42.0886C13.7554 40.9628 13.2451 39.8026 12.8437 38.7064C12.6659 38.1472 12.496 37.6109 12.3793 37.0831C12.2741 36.5504 12.1556 36.0516 12.1157 35.5558C11.892 33.5939 12.1097 32.0013 12.522 30.956C12.7046 30.433 12.9761 30.0406 13.2149 29.7867C13.4628 29.5321 13.7192 29.4124 13.9815 29.4227Z" fill="white" fill-opacity="0.2"/>
<path d="M52.4583 50.934C52.0774 50.6867 52.3857 49.5355 53.1469 48.3626C53.4045 47.966 53.6808 47.6177 53.948 47.3396C54.4716 46.7961 54.9626 46.5222 55.2147 46.686C55.5956 46.9333 55.2872 48.0845 54.526 49.258C53.7648 50.4303 52.8392 51.1813 52.4583 50.934Z" fill="white" fill-opacity="0.2"/>
<path d="M53.8718 47.4188C53.8718 47.4188 52.9021 48.5095 52.529 49.5374C52.1324 49.2973 51.6783 49.0234 51.2134 48.758C51.2134 48.758 52.6058 47.3396 53.4299 47.0923L53.8718 47.4188Z" fill="white" fill-opacity="0.2"/>
<path d="M56.5548 35.4227C56.1013 35.4022 55.7839 34.2534 55.8468 32.8562C55.868 32.384 55.9296 31.9432 56.0197 31.5683C56.1962 30.8344 56.481 30.3501 56.7809 30.3634C57.2344 30.3839 57.5518 31.5327 57.4889 32.9299C57.4266 34.3266 57.0082 35.4427 56.5548 35.4227Z" fill="white" fill-opacity="0.2"/>
<path d="M55.9944 31.6753C55.9944 31.6753 55.6056 33.0689 55.9091 34.182C55.4424 34.1481 54.9339 34.1391 54.3988 34.1457C54.3988 34.1457 54.8656 32.26 55.4508 31.63L55.9944 31.6753Z" fill="white" fill-opacity="0.2"/>
<path d="M58.2097 21.2097C57.8046 21.4147 56.9648 20.5689 56.3336 19.321C56.1202 18.8989 55.9581 18.4848 55.8523 18.1136C55.6462 17.3874 55.6565 16.8258 55.9249 16.6897C56.33 16.4848 57.1704 17.3306 57.801 18.5785C58.4316 19.827 58.6148 21.0048 58.2097 21.2097Z" fill="white" fill-opacity="0.2"/>
<path d="M55.8827 18.2193C55.8827 18.2193 56.3373 19.6062 57.0381 20.4454C56.6306 20.6673 56.1663 20.9225 55.7031 21.1903C55.7031 21.1903 55.1777 19.2731 55.3784 18.4369L55.8827 18.2193Z" fill="white" fill-opacity="0.2"/>
<path d="M47.2305 9.89456C46.9851 10.2767 45.8321 9.97256 44.6561 9.21559C44.2583 8.95985 43.9088 8.68475 43.6301 8.41812C43.0841 7.89634 42.8091 7.40661 42.9717 7.15389C43.2172 6.77177 44.3702 7.07588 45.5461 7.83285C46.7227 8.58921 47.4766 9.51245 47.2305 9.89456Z" fill="white" fill-opacity="0.2"/>
<path d="M43.7101 8.49366C43.7101 8.49366 44.7192 9.53055 45.8335 9.82862C45.5699 10.215 45.3057 10.6497 45.0421 11.1152C45.0421 11.1152 43.6472 9.76333 43.3969 8.94046L43.7101 8.49366Z" fill="white" fill-opacity="0.2"/>
<path d="M30.1488 0.644082C30.2334 1.09028 29.188 1.66284 27.8138 1.92282C27.3494 2.01109 26.9063 2.0516 26.5205 2.05039C25.7654 2.04737 25.2285 1.8817 25.1729 1.58605C25.0882 1.13985 26.1336 0.567293 27.5079 0.307312C28.8821 0.0467267 30.0641 0.197882 30.1488 0.644082Z" fill="white" fill-opacity="0.2"/>
<path d="M26.6305 2.05036C26.6305 2.05036 28.0895 1.99775 29.0901 1.5576C29.1904 2.01045 29.3065 2.5274 29.4353 3.04675C29.4353 3.04675 27.4474 3.02014 26.7001 2.59511L26.6305 2.05036Z" fill="white" fill-opacity="0.2"/>
<path d="M15.3855 7.88296C15.646 8.25479 14.9296 9.20705 13.7845 10.01C13.3975 10.2814 13.0106 10.5015 12.6587 10.6587C11.9694 10.9671 11.412 11.0372 11.2391 10.7911C10.9785 10.4193 11.6949 9.46702 12.8401 8.66411C13.9852 7.86119 15.1249 7.51113 15.3855 7.88296Z" fill="white" fill-opacity="0.2"/>
<path d="M12.7592 10.614C12.7592 10.614 14.1002 10.071 14.7973 9.15202C15.0555 9.54259 15.3584 9.9507 15.6897 10.3709C15.6897 10.3709 13.9109 11.1521 13.0548 11.0729L12.7592 10.614Z" fill="white" fill-opacity="0.2"/>
<path d="M1.62519 20.5537C2.06534 20.6643 2.14636 21.8536 1.80536 23.2097C1.69049 23.6686 1.54176 24.0876 1.37851 24.4371C1.05868 25.1209 0.682615 25.5386 0.391195 25.4655C-0.0489587 25.3548 -0.129983 24.1656 0.210411 22.8094C0.552013 21.4527 1.18503 20.443 1.62519 20.5537Z" fill="white" fill-opacity="0.2"/>
<path d="M1.42506 24.3373C1.42506 24.3373 1.98977 22.9914 2.01033 21.8983C2.46318 21.9975 2.98192 22.1093 3.50732 22.2097C3.50732 22.2097 2.64818 24.0023 1.94926 24.5029L1.42506 24.3373Z" fill="white" fill-opacity="0.2"/>
<path d="M36.7614 24.0967C36.0679 22.6161 36.3127 21.0374 37.3091 20.5707C38.3055 20.1039 39.675 20.9262 40.3691 22.4069C41.0625 23.8876 40.8177 25.4662 39.8213 25.9329C38.8249 26.3997 37.4548 25.5774 36.7614 24.0967Z" fill="white" fill-opacity="0.2"/>
<path d="M38.1488 25.2968C37.4553 23.8162 37.7002 22.2375 38.6966 21.7708C39.693 21.304 41.0624 22.1263 41.7565 23.607C42.45 25.0876 42.2051 26.6663 41.2087 27.133C40.2123 27.5998 38.8423 26.7775 38.1488 25.2968Z" fill="white" fill-opacity="0.2"/>
<path d="M44.7071 39.161C43.7234 40.4676 42.2137 40.99 41.3352 40.3285C40.4567 39.6671 40.5413 38.0715 41.525 36.765C42.5087 35.4584 44.0184 34.9361 44.8969 35.5975C45.7754 36.2595 45.6902 37.8551 44.7071 39.161Z" fill="white" fill-opacity="0.2"/>
<path d="M46.1593 40.1974C45.1756 41.5039 43.6659 42.0263 42.7874 41.3643C41.9083 40.7028 41.9935 39.1073 42.9772 37.8007C43.9609 36.4942 45.4706 35.9718 46.3491 36.6332C47.2276 37.2959 47.143 38.8908 46.1593 40.1974Z" fill="white" fill-opacity="0.2"/>
<path d="M27.6814 18.5259C27.2249 17.5513 27.6445 16.3911 28.6198 15.934C29.5944 15.4775 30.7546 15.8971 31.2117 16.8723C31.6688 17.8476 31.2486 19.0072 30.2734 19.4643C29.2987 19.9208 28.1379 19.5006 27.6814 18.5259Z" fill="white" fill-opacity="0.2"/>
<path d="M28.1245 19.4709C27.6681 18.4963 28.0877 17.336 29.0629 16.8789C30.0375 16.4225 31.1978 16.8421 31.6548 17.8173C32.1113 18.7919 31.6917 19.9521 30.7171 20.4092C29.7413 20.8657 28.581 20.4455 28.1245 19.4709Z" fill="white" fill-opacity="0.2"/>
<path d="M23.3124 39.7021C23.7115 38.4403 25.0579 37.7408 26.3203 38.1392C27.5822 38.5383 28.2823 39.8847 27.8833 41.1471C27.4842 42.409 26.1378 43.1091 24.8753 42.71C23.6135 42.311 22.914 40.9645 23.3124 39.7021Z" fill="white" fill-opacity="0.2"/>
<path d="M22.9262 40.9259C23.3253 39.6641 24.6717 38.9639 25.9341 39.363C27.1959 39.762 27.8961 41.1085 27.497 42.3709C27.098 43.6327 25.7515 44.3328 24.4897 43.9338C23.2267 43.5348 22.5272 42.1883 22.9262 40.9259Z" fill="white" fill-opacity="0.2"/>
<path d="M17.8789 20.9951C17.544 20.2805 17.8523 19.4298 18.567 19.0948C19.2816 18.7599 20.1329 19.0676 20.4672 19.7829C20.8022 20.4975 20.4938 21.3482 19.7792 21.6832C19.0645 22.0181 18.2139 21.7098 17.8789 20.9951Z" fill="white" fill-opacity="0.2"/>
<path d="M18.2035 21.688C17.8686 20.9733 18.1769 20.1221 18.8916 19.7877C19.6062 19.4528 20.4569 19.7605 20.7918 20.4758C21.1268 21.1904 20.819 22.0411 20.1038 22.376C19.3897 22.711 18.5385 22.4026 18.2035 21.688Z" fill="white" fill-opacity="0.2"/>
<path d="M1.23415 40.7355C1.6344 40.5329 2.46392 41.3691 3.08666 42.6019C3.29707 43.0191 3.45729 43.4278 3.56128 43.7948C3.76503 44.5125 3.75414 45.0675 3.48932 45.2011C3.08907 45.403 2.25956 44.5675 1.63681 43.3347C1.01407 42.1019 0.833904 40.938 1.23415 40.7355Z" fill="white" fill-opacity="0.2"/>
<path d="M3.53165 43.6908C3.53165 43.6908 3.08304 42.3202 2.39138 41.4912C2.79344 41.2724 3.25292 41.0202 3.71061 40.756C3.71061 40.756 4.22877 42.6503 4.03046 43.4762L3.53165 43.6908Z" fill="white" fill-opacity="0.2"/>
<path d="M12.4363 51.9461C12.6793 51.5689 13.8178 51.8699 14.9793 52.6178C15.3723 52.8706 15.7169 53.1426 15.9926 53.4056C16.5313 53.9214 16.8034 54.4051 16.6425 54.6548C16.3995 55.032 15.261 54.7309 14.0996 53.983C12.9381 53.2357 12.1932 52.3234 12.4363 51.9461Z" fill="white" fill-opacity="0.2"/>
<path d="M15.9132 53.3312C15.9132 53.3312 14.9168 52.3064 13.8158 52.0119C14.0764 51.6304 14.3376 51.2012 14.5982 50.741C14.5982 50.741 15.9755 52.0772 16.2222 52.8904L15.9132 53.3312Z" fill="white" fill-opacity="0.2"/>
<path d="M23.7454 60.4269C23.772 59.9789 24.9116 59.6827 26.2908 59.7649C26.7569 59.7927 27.191 59.8604 27.5604 59.9547C28.2829 60.1397 28.7575 60.4281 28.74 60.7244C28.7134 61.1724 27.5737 61.4687 26.1946 61.3864C24.8149 61.3042 23.7188 60.8743 23.7454 60.4269Z" fill="white" fill-opacity="0.2"/>
<path d="M27.4547 59.9275C27.4547 59.9275 26.0448 59.6258 24.9801 59.8066C24.9934 59.3489 25.0067 58.8253 25.0085 58.2969C25.0085 58.2969 26.9063 58.8017 27.52 59.3888L27.4547 59.9275Z" fill="white" fill-opacity="0.2"/>
<path d="M38.863 56.6832C38.6593 56.2836 39.4918 55.451 40.7228 54.8234C41.1387 54.6112 41.5475 54.4498 41.9138 54.3446C42.6303 54.1384 43.1853 54.1469 43.3201 54.4111C43.5239 54.8107 42.6914 55.6433 41.4604 56.2708C40.23 56.8978 39.0668 57.0828 38.863 56.6832Z" fill="white" fill-opacity="0.2"/>
<path d="M41.8091 54.3742C41.8091 54.3742 40.4221 54.72 39.6137 55.5229C39.4148 55.1058 39.1754 54.6644 38.9088 54.2073C38.9088 54.2073 40.7565 53.6892 41.583 53.8845L41.8091 54.3742Z" fill="white" fill-opacity="0.2"/>
<path d="M15.2942 27.7787C15.374 26.1457 16.3293 24.8651 17.4285 24.919C18.527 24.9728 19.3535 26.3404 19.2737 27.9734C19.1939 29.6065 18.2386 30.887 17.1395 30.8332C16.0403 30.7794 15.2144 29.4118 15.2942 27.7787Z" fill="white" fill-opacity="0.2"/>
<path d="M14.8662 28.8651C14.7864 30.4983 15.6123 31.8658 16.7109 31.9195C17.8095 31.9732 18.7647 30.6927 18.8445 29.0595C18.9243 27.4263 18.0984 26.0588 16.9998 26.0051C15.9012 25.9514 14.946 27.2319 14.8662 28.8651Z" fill="white" fill-opacity="0.2"/>
<path d="M27.4388 32.5092C26.7453 31.0285 27.3832 29.2655 28.8639 28.572C30.3445 27.8785 32.1076 28.5164 32.8011 29.997C33.4945 31.4777 32.8567 33.2408 31.376 33.9342C29.8947 34.6277 28.1323 33.9899 27.4388 32.5092Z" fill="white" fill-opacity="0.2"/>
<path d="M28.1685 34.0673C27.4751 32.5866 28.1129 30.8242 29.5936 30.1301C31.0743 29.4366 32.8373 30.0745 33.5308 31.5551C34.2243 33.0358 33.5864 34.7989 32.1057 35.4923C30.625 36.1858 28.8626 35.548 28.1685 34.0673Z" fill="white" fill-opacity="0.2"/>
<path d="M13.6188 21.093C13.4078 20.9479 13.4664 20.408 13.8377 19.567C14.2065 18.726 14.9229 17.6075 16.0312 16.3965C16.5832 15.7888 17.2464 15.1782 17.9998 14.5651C18.7658 13.972 19.6177 13.368 20.5802 12.8383C22.492 11.7615 24.8088 10.9109 27.3476 10.5294C29.8906 10.1702 32.3543 10.3232 34.494 10.8093C35.5678 11.0415 36.557 11.3776 37.4608 11.7271C38.3575 12.0995 39.1682 12.4955 39.8702 12.92C41.2783 13.764 42.2844 14.6316 42.8781 15.3323C43.4742 16.0319 43.6846 16.5331 43.5238 16.732C43.1713 17.1691 41.4917 16.2562 38.7462 15.3632C38.0612 15.1359 37.3024 14.9291 36.4917 14.7283C35.673 14.55 34.8036 14.3674 33.8779 14.2598C32.0327 14.0228 29.9903 14.0004 27.8972 14.2936C25.8082 14.6104 23.8578 15.2151 22.157 15.969C21.3015 16.3366 20.5198 16.7604 19.7864 17.1643C19.0663 17.5887 18.3982 18.0035 17.8069 18.4164C15.4302 20.0561 14.0807 21.4111 13.6188 21.093Z" fill="white" fill-opacity="0.2"/>
<g opacity="0.2">
<path d="M46.9442 23.3705C46.0143 23.8603 44.8843 23.541 44.4199 22.6589C43.9556 21.7762 44.3323 20.6643 45.2622 20.1752C46.1914 19.686 47.3215 20.0047 47.7858 20.8868C48.2501 21.7695 47.8735 22.8814 46.9442 23.3705Z" fill="white" fill-opacity="0.2"/>
</g>
<path d="M6.4512 82.8589C6.34963 83.7313 6.41672 84.631 6.67066 85.5089C6.23474 86.1117 4.36953 87.1062 4.36953 87.1062L4.7184 87.8209C5.5449 87.42 7.40769 87.1988 7.40769 87.1988C7.36476 87.1323 7.31759 87.0416 7.26801 86.9388C8.18036 88.5767 9.68885 89.703 11.3902 90.1722C11.7046 90.8258 11.6236 92.9879 11.6236 92.9879L12.4169 93.0459C12.4846 92.1517 13.1962 90.4926 13.2288 90.4165C13.8866 90.4128 14.5511 90.3113 15.2017 90.1081C15.793 90.5096 16.3232 91.6124 16.3232 91.6124L17.0366 91.2605C16.6588 90.4884 16.5221 89.6504 16.5064 89.5471C17.0324 89.2526 17.5052 88.8971 17.9206 88.4926C18.6818 88.5833 20.4714 89.6897 20.4714 89.6897L20.9188 89.0204C20.2374 88.5621 19.267 87.3269 19.05 87.0452C19.4297 86.391 19.6981 85.6776 19.8438 84.9357C20.5065 84.6769 21.5567 84.7586 21.5567 84.7586L21.6032 83.9544C20.9091 83.9121 20.2562 83.7132 19.9708 83.6159C19.9696 83.0155 19.888 82.4091 19.7211 81.8123C20.3197 81.2005 21.9194 80.3468 21.9194 80.3468L21.5657 79.623C20.8983 79.9471 19.5633 80.1551 19.0512 80.2264C18.6636 79.5577 18.1751 78.9773 17.6146 78.4954C17.7289 77.7947 18.3214 76.9374 18.3214 76.9374L17.6503 76.4924C17.2634 77.0728 16.7603 77.539 16.5336 77.7355C15.6926 77.2596 14.7567 76.9664 13.7905 76.8793C13.3491 76.1913 12.9441 74.2807 12.9441 74.2807L12.1508 74.4198C12.273 75.1266 12.1182 76.4029 12.0408 76.9495C11.4561 77.0504 10.8745 77.2282 10.311 77.4924C10.0262 77.6254 9.75658 77.7778 9.50023 77.9434C8.9053 77.5631 8.35329 76.7197 8.35329 76.7197L7.68822 77.1732C8.13986 77.8401 8.39197 78.5916 8.45123 78.7802C7.75956 79.4556 7.22871 80.2639 6.88166 81.1448C6.03401 81.221 4.2474 80.8135 4.2474 80.8135L4.04063 81.5916C4.83751 81.8057 6.1622 82.6666 6.4512 82.8589ZM15.779 89.8995C15.8564 89.8675 15.9344 89.836 16.0112 89.801C15.9344 89.8366 15.8558 89.8693 15.779 89.8995Z" fill="white" fill-opacity="0.2"/>
<path d="M8.03882 90.4848L8.70147 90.9243C9.21115 90.1607 9.99292 89.5525 9.99292 89.5525C9.54793 89.3276 8.75588 88.7828 8.75588 88.7828C8.72323 89.4968 8.03882 90.4848 8.03882 90.4848Z" fill="white" fill-opacity="0.2"/>
<path d="M8.09214 83.2302C8.44281 83.2495 8.67134 83.8989 9.14656 84.7C9.19977 84.8022 9.27293 84.9025 9.33521 85.0089C9.40111 85.1141 9.4779 85.2188 9.54985 85.3282C9.70825 85.5398 9.87271 85.7617 10.0686 85.9715C10.4525 86.3965 10.9253 86.7901 11.4646 87.0942C12.0094 87.3881 12.5946 87.5779 13.1593 87.6753C13.4411 87.7291 13.7168 87.7496 13.9798 87.7708C14.1104 87.7732 14.2398 87.7823 14.3643 87.7817C14.4877 87.7774 14.6116 87.7859 14.7265 87.7762C15.6576 87.7502 16.3287 87.5967 16.5324 87.8832C16.5802 87.9528 16.5917 88.0429 16.5651 88.1541C16.5367 88.2623 16.4768 88.4038 16.3662 88.5429C16.1527 88.8343 15.7579 89.1662 15.1866 89.4419C15.0451 89.5163 14.8897 89.5695 14.7265 89.6318C14.5632 89.6904 14.3885 89.7364 14.2059 89.7841C13.8395 89.8633 13.4369 89.9232 13.0082 89.922C12.5807 89.919 12.1249 89.8827 11.6648 89.7654C11.204 89.6523 10.7355 89.4788 10.2851 89.2339C9.83764 88.9836 9.44102 88.6807 9.09942 88.3512C8.75479 88.0241 8.48089 87.6589 8.24993 87.2986C8.01958 86.937 7.85573 86.5646 7.72695 86.2121C7.67012 86.0325 7.61509 85.8602 7.57761 85.6909C7.54375 85.5198 7.50567 85.3596 7.49297 85.2006C7.42103 84.5706 7.49116 84.0591 7.62357 83.7235C7.68222 83.5555 7.76927 83.4297 7.84605 83.3481C7.92586 83.2653 8.0081 83.2272 8.09214 83.2302Z" fill="white" fill-opacity="0.2"/>
<path d="M20.4491 90.139C20.3269 90.0598 20.4255 89.6898 20.6703 89.3131C20.7532 89.1855 20.8415 89.0737 20.9279 88.9848C21.096 88.8101 21.2538 88.7224 21.3348 88.775C21.457 88.8542 21.3584 89.2242 21.1135 89.6009C20.8693 89.977 20.5718 90.2182 20.4491 90.139Z" fill="white" fill-opacity="0.2"/>
<path d="M20.9031 89.0095C20.9031 89.0095 20.5917 89.3596 20.472 89.6897C20.3444 89.6123 20.1987 89.5246 20.0494 89.4394C20.0494 89.4394 20.4968 88.9841 20.761 88.9043L20.9031 89.0095Z" fill="white" fill-opacity="0.2"/>
<path d="M21.7652 85.1576C21.6195 85.151 21.518 84.7822 21.5379 84.3336C21.5446 84.1818 21.5645 84.0403 21.5935 83.92C21.6504 83.6842 21.7417 83.5288 21.8378 83.5331C21.9835 83.5397 22.0851 83.9085 22.0651 84.3571C22.0452 84.8052 21.9109 85.1637 21.7652 85.1576Z" fill="white" fill-opacity="0.2"/>
<path d="M21.5852 83.9538C21.5852 83.9538 21.4607 84.4012 21.558 84.7585C21.4081 84.7477 21.2448 84.7446 21.0731 84.7471C21.0731 84.7471 21.223 84.1412 21.4111 83.9393L21.5852 83.9538Z" fill="white" fill-opacity="0.2"/>
<path d="M22.2962 80.5928C22.1662 80.6587 21.8966 80.3872 21.6934 79.9864C21.6251 79.8509 21.5731 79.7179 21.5392 79.5988C21.4727 79.3654 21.4763 79.1853 21.5622 79.1417C21.6922 79.0758 21.9618 79.3473 22.1644 79.7482C22.3681 80.1484 22.4268 80.5269 22.2962 80.5928Z" fill="white" fill-opacity="0.2"/>
<path d="M21.5489 79.6321C21.5489 79.6321 21.6953 80.0777 21.9202 80.3468C21.7896 80.4181 21.6402 80.4997 21.4915 80.5862C21.4915 80.5862 21.3228 79.9707 21.3875 79.7022L21.5489 79.6321Z" fill="white" fill-opacity="0.2"/>
<path d="M18.7706 76.9585C18.692 77.0813 18.3214 76.9833 17.9441 76.7403C17.8166 76.658 17.7041 76.5698 17.6146 76.4839C17.4393 76.3164 17.351 76.1592 17.403 76.0776C17.4816 75.9549 17.8522 76.0528 18.2295 76.2959C18.6068 76.5389 18.8492 76.8358 18.7706 76.9585Z" fill="white" fill-opacity="0.2"/>
<path d="M17.64 76.5087C17.64 76.5087 17.9641 76.8419 18.322 76.9374C18.2374 77.0613 18.1527 77.201 18.0681 77.351C18.0681 77.351 17.6201 76.9168 17.5397 76.6526L17.64 76.5087Z" fill="white" fill-opacity="0.2"/>
<path d="M13.2846 73.9874C13.3118 74.1307 12.9762 74.3145 12.5349 74.398C12.3855 74.4264 12.2435 74.4391 12.1195 74.4391C11.8771 74.4385 11.7047 74.3847 11.6866 74.2904C11.6594 74.1471 11.995 73.9633 12.4363 73.8798C12.8777 73.7958 13.2574 73.8441 13.2846 73.9874Z" fill="white" fill-opacity="0.2"/>
<path d="M12.1545 74.4398C12.1545 74.4398 12.6231 74.4229 12.9442 74.2814C12.9762 74.4271 13.0137 74.5928 13.0554 74.7596C13.0554 74.7596 12.417 74.7512 12.1769 74.6145L12.1545 74.4398Z" fill="white" fill-opacity="0.2"/>
<path d="M8.54325 76.3128C8.62729 76.4325 8.39693 76.7378 8.02933 76.996C7.90478 77.0831 7.78084 77.1538 7.66778 77.2046C7.4465 77.3037 7.26753 77.3261 7.21191 77.2469C7.12847 77.1278 7.35823 76.8219 7.72583 76.5637C8.09343 76.3055 8.45981 76.1931 8.54325 76.3128Z" fill="white" fill-opacity="0.2"/>
<path d="M7.69976 77.1895C7.69976 77.1895 8.13022 77.0154 8.35453 76.7198C8.43736 76.8449 8.5347 76.9761 8.64111 77.1109C8.64111 77.1109 8.06976 77.3618 7.79467 77.3365L7.69976 77.1895Z" fill="white" fill-opacity="0.2"/>
<path d="M4.12427 80.3818C4.26575 80.4175 4.29173 80.799 4.1823 81.2349C4.14542 81.3824 4.09766 81.5167 4.04506 81.6291C3.94227 81.8486 3.82136 81.9828 3.72825 81.9592C3.58677 81.9236 3.56077 81.5421 3.6702 81.1062C3.77964 80.6708 3.98279 80.3462 4.12427 80.3818Z" fill="white" fill-opacity="0.2"/>
<path d="M4.05957 81.5972C4.05957 81.5972 4.24095 81.1649 4.2476 80.8136C4.39331 80.8457 4.55959 80.8813 4.72827 80.914C4.72827 80.914 4.45257 81.4896 4.22766 81.6504L4.05957 81.5972Z" fill="white" fill-opacity="0.2"/>
<path d="M15.4079 81.5197C15.1854 81.0445 15.264 80.5372 15.5839 80.3873C15.9037 80.2373 16.3439 80.5015 16.5664 80.9767C16.7889 81.452 16.7103 81.9592 16.3904 82.1092C16.0712 82.2591 15.631 81.9955 15.4079 81.5197Z" fill="white" fill-opacity="0.2"/>
<path d="M15.854 81.9055C15.6315 81.4303 15.7101 80.923 16.0299 80.773C16.3498 80.6231 16.7899 80.8873 17.0124 81.3625C17.2349 81.8378 17.1563 82.345 16.8365 82.495C16.5166 82.6449 16.0765 82.3807 15.854 81.9055Z" fill="white" fill-opacity="0.2"/>
<path d="M17.9601 86.3578C17.6445 86.7774 17.1596 86.9448 16.8772 86.7326C16.5949 86.5204 16.6221 86.0077 16.9383 85.5881C17.2545 85.1685 17.7388 85.001 18.0211 85.2133C18.3035 85.4261 18.2757 85.9382 17.9601 86.3578Z" fill="white" fill-opacity="0.2"/>
<path d="M18.4266 86.6909C18.111 87.1105 17.6261 87.278 17.3438 87.0658C17.0614 86.8535 17.0886 86.3408 17.4048 85.9212C17.7204 85.5016 18.2053 85.3342 18.4877 85.5464C18.7694 85.7586 18.7422 86.2713 18.4266 86.6909Z" fill="white" fill-opacity="0.2"/>
<path d="M12.492 79.7306C12.3451 79.4175 12.4799 79.045 12.7931 78.8981C13.1063 78.7512 13.4787 78.8866 13.6256 79.1992C13.7725 79.5124 13.6377 79.8848 13.3245 80.0318C13.0113 80.1787 12.6389 80.0438 12.492 79.7306Z" fill="white" fill-opacity="0.2"/>
<path d="M12.6347 80.0343C12.4877 79.7211 12.6226 79.3486 12.9357 79.2017C13.2489 79.0548 13.6214 79.1896 13.7683 79.5028C13.9152 79.816 13.7798 80.1884 13.4672 80.3353C13.154 80.4823 12.781 80.3474 12.6347 80.0343Z" fill="white" fill-opacity="0.2"/>
<path d="M11.089 86.5319C11.2172 86.1268 11.6495 85.9019 12.0552 86.0301C12.4603 86.1582 12.6852 86.5905 12.557 86.9962C12.4288 87.4013 11.9965 87.6262 11.5908 87.4981C11.1858 87.3693 10.9608 86.937 11.089 86.5319Z" fill="white" fill-opacity="0.2"/>
<path d="M10.9648 86.9248C11.0929 86.5198 11.5252 86.2948 11.9309 86.423C12.336 86.5512 12.5609 86.9835 12.4327 87.3892C12.3046 87.7943 11.8723 88.0192 11.4666 87.891C11.0615 87.7622 10.8366 87.3299 10.9648 86.9248Z" fill="white" fill-opacity="0.2"/>
<path d="M9.34431 80.5239C9.23669 80.2942 9.33584 80.0209 9.56499 79.9139C9.79474 79.8063 10.068 79.9054 10.175 80.1346C10.2827 80.3643 10.1835 80.6376 9.95434 80.7446C9.72459 80.8522 9.45133 80.7531 9.34431 80.5239Z" fill="white" fill-opacity="0.2"/>
<path d="M9.44844 80.7465C9.34082 80.5167 9.43997 80.2434 9.66911 80.1364C9.89887 80.0288 10.1722 80.128 10.2798 80.3571C10.3874 80.5869 10.2882 80.8601 10.0591 80.9678C9.82933 81.0748 9.55606 80.9756 9.44844 80.7465Z" fill="white" fill-opacity="0.2"/>
<path d="M3.99834 86.8639C4.12712 86.7992 4.39315 87.0676 4.59327 87.4636C4.66099 87.5973 4.71237 87.7291 4.74562 87.8464C4.81092 88.0767 4.8079 88.2551 4.72265 88.298C4.59387 88.3627 4.32784 88.0942 4.12772 87.6982C3.92759 87.3022 3.86955 86.9286 3.99834 86.8639Z" fill="white" fill-opacity="0.2"/>
<path d="M4.73598 87.8125C4.73598 87.8125 4.59208 87.3723 4.36958 87.1057C4.49897 87.0356 4.6465 86.9546 4.79342 86.8693C4.79342 86.8693 4.95968 87.4776 4.89619 87.743L4.73598 87.8125Z" fill="white" fill-opacity="0.2"/>
<path d="M7.59584 90.4636C7.67383 90.3427 8.03963 90.4394 8.41267 90.6795C8.53903 90.7605 8.64967 90.8482 8.73795 90.9328C8.91086 91.0985 8.99853 91.2538 8.94654 91.3337C8.86854 91.4546 8.50277 91.3584 8.12972 91.1178C7.75729 90.8778 7.51785 90.5852 7.59584 90.4636Z" fill="white" fill-opacity="0.2"/>
<path d="M8.71261 90.9086C8.71261 90.9086 8.39277 90.5797 8.03907 90.4847C8.12311 90.362 8.20655 90.2242 8.28999 90.0766C8.28999 90.0766 8.73256 90.5059 8.81177 90.7671L8.71261 90.9086Z" fill="white" fill-opacity="0.2"/>
<path d="M11.2282 93.1874C11.2367 93.0435 11.6025 92.9485 12.0456 92.9745C12.1956 92.9836 12.3346 93.0054 12.4531 93.0356C12.6853 93.0949 12.8377 93.1874 12.8316 93.2829C12.8231 93.4268 12.4568 93.5217 12.0142 93.4957C11.5716 93.4691 11.2191 93.3313 11.2282 93.1874Z" fill="white" fill-opacity="0.2"/>
<path d="M12.4194 93.0272C12.4194 93.0272 11.9665 92.9305 11.6243 92.9885C11.6286 92.8416 11.6328 92.6735 11.6334 92.5036C11.6334 92.5036 12.2428 92.6657 12.4399 92.8543L12.4194 93.0272Z" fill="white" fill-opacity="0.2"/>
<path d="M16.0831 91.9855C16.0178 91.8573 16.2851 91.5894 16.6805 91.3881C16.8141 91.3198 16.9453 91.2678 17.0632 91.2339C17.2936 91.1674 17.4719 91.1704 17.5148 91.2551C17.5801 91.3833 17.3129 91.6511 16.9175 91.8524C16.5221 92.0544 16.1484 92.1136 16.0831 91.9855Z" fill="white" fill-opacity="0.2"/>
<path d="M17.0293 91.2436C17.0293 91.2436 16.5837 91.3549 16.3243 91.6124C16.2608 91.4782 16.1834 91.3367 16.0982 91.1898C16.0982 91.1898 16.6913 91.0235 16.9573 91.0864L17.0293 91.2436Z" fill="white" fill-opacity="0.2"/>
<path d="M8.51416 82.7023C8.53956 82.1781 8.84669 81.7663 9.19918 81.7839C9.55227 81.8014 9.8177 82.2403 9.7917 82.7645C9.76631 83.2893 9.45916 83.7005 9.10607 83.6829C8.75359 83.666 8.48816 83.2271 8.51416 82.7023Z" fill="white" fill-opacity="0.2"/>
<path d="M8.3752 83.0517C8.40059 82.5269 8.70773 82.1158 9.06082 82.1333C9.41391 82.1509 9.67874 82.5898 9.65335 83.114C9.62795 83.6382 9.32081 84.05 8.96772 84.0324C8.61463 84.0155 8.34981 83.5759 8.3752 83.0517Z" fill="white" fill-opacity="0.2"/>
<path d="M12.414 84.2217C12.1915 83.7465 12.3958 83.18 12.8716 82.9575C13.3469 82.735 13.9134 82.9394 14.1359 83.4152C14.3584 83.891 14.154 84.4569 13.6782 84.6794C13.203 84.9019 12.6371 84.697 12.414 84.2217Z" fill="white" fill-opacity="0.2"/>
<path d="M12.6486 84.7218C12.4261 84.2465 12.6304 83.68 13.1063 83.4575C13.5821 83.235 14.148 83.4394 14.3705 83.9152C14.593 84.3911 14.3886 84.957 13.9128 85.1795C13.437 85.402 12.8717 85.1976 12.6486 84.7218Z" fill="white" fill-opacity="0.2"/>
<path d="M7.9755 80.5555C7.90779 80.5089 7.92653 80.3354 8.04564 80.0651C8.16414 79.7949 8.3945 79.4357 8.75001 79.047C8.92716 78.8517 9.14058 78.6558 9.38242 78.4587C9.62849 78.2682 9.90178 78.0741 10.2113 77.9043C10.8256 77.5584 11.5693 77.2851 12.3849 77.1624C13.2017 77.0469 13.9925 77.0959 14.68 77.2525C15.0246 77.3269 15.3426 77.4351 15.6328 77.5469C15.9206 77.6666 16.1812 77.7936 16.4067 77.9303C16.859 78.2011 17.1818 78.4798 17.3729 78.7048C17.5646 78.9297 17.6317 79.0905 17.5803 79.154C17.4672 79.2943 16.9279 79.001 16.0458 78.7144C15.8257 78.6413 15.582 78.5754 15.3215 78.5107C15.0585 78.4533 14.7791 78.3946 14.4823 78.3601C13.8898 78.2839 13.2338 78.2767 12.5614 78.371C11.8903 78.4726 11.2639 78.6673 10.718 78.9091C10.4429 79.027 10.192 79.163 9.9568 79.293C9.72524 79.4291 9.51121 79.5627 9.32076 79.6951C8.55774 80.2223 8.12424 80.6576 7.9755 80.5555Z" fill="white" fill-opacity="0.2"/>
<g opacity="0.2">
<path d="M18.6788 81.2869C18.3801 81.4441 18.0174 81.342 17.868 81.0584C17.7187 80.7748 17.8396 80.4181 18.1383 80.2609C18.437 80.1037 18.7997 80.2059 18.9491 80.4895C19.0978 80.7724 18.9769 81.1297 18.6788 81.2869Z" fill="white" fill-opacity="0.2"/>
</g>
<path d="M69.6339 12.6563C69.4918 13.8807 69.5855 15.1431 69.9416 16.3747C69.3297 17.2211 66.713 18.6159 66.713 18.6159L67.2027 19.619C68.3618 19.0567 70.9755 18.7465 70.9755 18.7465C70.9156 18.6528 70.8485 18.5259 70.7796 18.382C72.0595 20.6801 74.1763 22.2605 76.5639 22.9189C77.0052 23.8361 76.8915 26.87 76.8915 26.87L78.0046 26.951C78.1002 25.6959 79.0984 23.3682 79.1443 23.2611C80.0675 23.2563 80.9993 23.1136 81.9128 22.8282C82.7429 23.3911 83.486 24.9395 83.486 24.9395L84.4872 24.4462C83.957 23.3621 83.7653 22.1874 83.7429 22.0423C84.4806 21.6293 85.1444 21.1299 85.7267 20.5628C86.7944 20.6903 89.3059 22.2424 89.3059 22.2424L89.9335 21.3028C88.977 20.6601 87.6161 18.9267 87.3113 18.5307C87.8446 17.6129 88.2213 16.6117 88.4256 15.5712C89.3555 15.2084 90.8289 15.3233 90.8289 15.3233L90.8942 14.1951C89.9208 14.1358 89.0042 13.8565 88.6034 13.7198C88.6016 12.877 88.4873 12.0263 88.2527 11.189C89.0925 10.3304 91.3374 9.1327 91.3374 9.1327L90.841 8.11757C89.9045 8.57224 88.0314 8.86426 87.3125 8.96402C86.7684 8.02567 86.0834 7.21126 85.2968 6.53471C85.457 5.55101 86.2883 4.34845 86.2883 4.34845L85.3464 3.72451C84.8034 4.53952 84.0972 5.19369 83.7792 5.46879C82.599 4.8013 81.2858 4.38956 79.9303 4.26743C79.3112 3.30188 78.7422 0.621659 78.7422 0.621659L77.6292 0.816945C77.8003 1.8085 77.5832 3.59934 77.475 4.36598C76.6545 4.50746 75.8383 4.75716 75.0481 5.12718C74.6491 5.314 74.2706 5.52743 73.9102 5.7602C73.0759 5.22694 72.3014 4.04312 72.3014 4.04312L71.3679 4.67978C72.0021 5.61571 72.3552 6.66954 72.4386 6.93436C71.4676 7.88178 70.7234 9.01662 70.236 10.2518C69.0468 10.3582 66.5395 9.78688 66.5395 9.78688L66.2499 10.8788C67.3696 11.1793 69.2282 12.3873 69.6339 12.6563ZM82.7218 22.5356C82.8306 22.4903 82.9394 22.4461 83.0476 22.3972C82.94 22.4473 82.8294 22.4933 82.7218 22.5356Z" fill="white" fill-opacity="0.2"/>
<path d="M71.8616 23.3566L72.7921 23.9733C73.5074 22.9013 74.6035 22.0482 74.6035 22.0482C73.9796 21.732 72.8677 20.9684 72.8677 20.9684C72.8217 21.9708 71.8616 23.3566 71.8616 23.3566Z" fill="white" fill-opacity="0.2"/>
<path d="M71.936 13.1774C72.4282 13.2046 72.7492 14.1158 73.4155 15.2397C73.4905 15.383 73.5932 15.5239 73.6803 15.6732C73.7728 15.8208 73.8804 15.9677 73.9808 16.1212C74.2033 16.4181 74.4337 16.7295 74.7088 17.0233C75.2475 17.6195 75.9107 18.1721 76.6671 18.5983C77.4313 19.0107 78.253 19.2767 79.045 19.4139C79.4404 19.4895 79.8267 19.5185 80.1968 19.5475C80.38 19.5506 80.5619 19.5633 80.7361 19.5627C80.909 19.5566 81.0825 19.5687 81.2439 19.5554C82.5505 19.5185 83.4919 19.3039 83.7778 19.7053C83.845 19.8027 83.8613 19.929 83.8238 20.0856C83.7845 20.2374 83.6998 20.4357 83.5451 20.631C83.2458 21.0397 82.6914 21.5053 81.8903 21.8922C81.6919 21.9962 81.4731 22.0712 81.2452 22.1588C81.016 22.2417 80.7705 22.3058 80.5148 22.3723C80.0009 22.4829 79.4356 22.5676 78.834 22.5651C78.2342 22.5609 77.5951 22.5101 76.9488 22.3457C76.3025 22.1873 75.6453 21.943 75.0129 21.5996C74.3853 21.2483 73.8284 20.8227 73.3496 20.3614C72.8659 19.9025 72.4814 19.3897 72.1579 18.8843C71.8345 18.377 71.6047 17.854 71.4239 17.3601C71.3435 17.108 71.2673 16.8667 71.2147 16.6285C71.1676 16.3885 71.1138 16.1636 71.0956 15.9405C70.9946 15.0565 71.0932 14.3389 71.2788 13.8679C71.361 13.6321 71.4838 13.4555 71.5914 13.3407C71.702 13.227 71.8181 13.1732 71.936 13.1774Z" fill="white" fill-opacity="0.2"/>
<path d="M89.2749 22.8712C89.1032 22.7599 89.2422 22.2411 89.585 21.7121C89.7011 21.5331 89.8257 21.3766 89.946 21.2514C90.1818 21.0065 90.4031 20.8832 90.5167 20.957C90.6885 21.0682 90.5494 21.587 90.2066 22.116C89.8638 22.6444 89.4466 22.9824 89.2749 22.8712Z" fill="white" fill-opacity="0.2"/>
<path d="M89.9116 21.287C89.9116 21.287 89.4745 21.7786 89.3064 22.2417C89.1274 22.1335 88.9231 22.0101 88.7139 21.8904C88.7139 21.8904 89.3415 21.2514 89.7127 21.1395L89.9116 21.287Z" fill="white" fill-opacity="0.2"/>
<path d="M91.1208 15.8813C90.9164 15.8723 90.7738 15.3541 90.8016 14.7247C90.8112 14.5119 90.839 14.3136 90.8796 14.1443C90.9594 13.8136 91.0875 13.5953 91.223 13.6014C91.4273 13.6105 91.57 14.128 91.5422 14.758C91.5138 15.388 91.3251 15.8904 91.1208 15.8813Z" fill="white" fill-opacity="0.2"/>
<path d="M90.8679 14.1926C90.8679 14.1926 90.6926 14.8208 90.8292 15.322C90.6188 15.3069 90.3897 15.3027 90.1484 15.3057C90.1484 15.3057 90.3588 14.4562 90.6224 14.1721L90.8679 14.1926Z" fill="white" fill-opacity="0.2"/>
<path d="M91.8662 9.47665C91.6836 9.56916 91.3051 9.18766 91.021 8.62537C90.9248 8.43492 90.8517 8.24871 90.8045 8.08123C90.7114 7.75414 90.7162 7.50081 90.8372 7.43974C91.0198 7.34724 91.3982 7.72874 91.6824 8.29102C91.9666 8.85331 92.0488 9.38415 91.8662 9.47665Z" fill="white" fill-opacity="0.2"/>
<path d="M90.8178 8.12904C90.8178 8.12904 91.0228 8.75422 91.3384 9.1321C91.1552 9.23186 90.9454 9.34673 90.7368 9.46765C90.7368 9.46765 90.4998 8.60367 90.5905 8.227L90.8178 8.12904Z" fill="white" fill-opacity="0.2"/>
<path d="M86.9195 4.37751C86.8089 4.54982 86.2896 4.41257 85.7593 4.07157C85.5803 3.95609 85.4225 3.83215 85.2968 3.71244C85.0507 3.47725 84.9268 3.25657 84.9999 3.14291C85.1106 2.9712 85.6299 3.10783 86.1602 3.44883C86.6904 3.78982 87.0302 4.2058 86.9195 4.37751Z" fill="white" fill-opacity="0.2"/>
<path d="M85.3329 3.74621C85.3329 3.74621 85.7876 4.21356 86.29 4.34779C86.1709 4.52191 86.0524 4.71781 85.9333 4.92761C85.9333 4.92761 85.3045 4.31817 85.1921 3.94754L85.3329 3.74621Z" fill="white" fill-opacity="0.2"/>
<path d="M79.2217 0.209373C79.2598 0.410102 78.7888 0.668271 78.1697 0.785565C77.9605 0.825469 77.761 0.843608 77.5869 0.843003C77.2465 0.841794 77.0046 0.766836 76.9798 0.633823C76.9417 0.432489 77.4127 0.174925 78.0319 0.0576312C78.651 -0.0596624 79.1836 0.00803934 79.2217 0.209373Z" fill="white" fill-opacity="0.2"/>
<path d="M77.6362 0.842885C77.6362 0.842885 78.2934 0.819303 78.7444 0.620992C78.7898 0.824744 78.8417 1.05813 78.9004 1.29211C78.9004 1.29211 78.0044 1.28002 77.6676 1.08897L77.6362 0.842885Z" fill="white" fill-opacity="0.2"/>
<path d="M72.5692 3.47116C72.6865 3.63863 72.3636 4.0679 71.8479 4.43006C71.6732 4.55219 71.499 4.65135 71.3406 4.72209C71.0299 4.86114 70.779 4.89258 70.701 4.78194C70.5837 4.61446 70.9065 4.1852 71.4223 3.82365C71.938 3.46209 72.4513 3.30368 72.5692 3.47116Z" fill="white" fill-opacity="0.2"/>
<path d="M71.3854 4.70218C71.3854 4.70218 71.99 4.45731 72.3038 4.04316C72.4204 4.2191 72.5565 4.40291 72.7058 4.59215C72.7058 4.59215 71.9041 4.94402 71.5184 4.90835L71.3854 4.70218Z" fill="white" fill-opacity="0.2"/>
<path d="M66.3682 9.18107C66.5665 9.23065 66.6028 9.76692 66.4498 10.3782C66.3978 10.585 66.3307 10.7736 66.2576 10.9314C66.1137 11.2397 65.9444 11.4278 65.8126 11.3945C65.6142 11.3449 65.5774 10.8087 65.7316 10.1974C65.8845 9.58616 66.1699 9.13089 66.3682 9.18107Z" fill="white" fill-opacity="0.2"/>
<path d="M66.2782 10.8861C66.2782 10.8861 66.5327 10.2797 66.5418 9.7869C66.7462 9.83164 66.9795 9.88184 67.2166 9.92719C67.2166 9.92719 66.8296 10.7349 66.5146 10.9604L66.2782 10.8861Z" fill="white" fill-opacity="0.2"/>
<path d="M82.201 10.7778C81.8884 10.1103 81.9991 9.39926 82.4477 9.18885C82.8963 8.97845 83.5136 9.34906 83.8262 10.0159C84.1388 10.6834 84.0281 11.3945 83.5795 11.6049C83.1309 11.8153 82.5136 11.4446 82.201 10.7778Z" fill="white" fill-opacity="0.2"/>
<path d="M82.8268 11.3184C82.5142 10.6509 82.6248 9.93987 83.0734 9.72947C83.5221 9.51906 84.1394 9.88969 84.4519 10.5566C84.7645 11.2241 84.6539 11.9351 84.2053 12.1455C83.7566 12.3565 83.1393 11.9859 82.8268 11.3184Z" fill="white" fill-opacity="0.2"/>
<path d="M85.7814 17.5664C85.3382 18.1553 84.658 18.3904 84.262 18.0924C83.866 17.7943 83.9041 17.0754 84.3472 16.4866C84.7904 15.8977 85.4706 15.6625 85.8666 15.9605C86.2632 16.2586 86.2245 16.9775 85.7814 17.5664Z" fill="white" fill-opacity="0.2"/>
<path d="M86.4364 18.033C85.9932 18.6219 85.313 18.8571 84.917 18.559C84.521 18.261 84.5591 17.5421 85.0023 16.9532C85.4454 16.3643 86.1256 16.1291 86.5216 16.4272C86.9177 16.7253 86.8796 17.4442 86.4364 18.033Z" fill="white" fill-opacity="0.2"/>
<path d="M78.1097 8.26741C77.9041 7.82786 78.0934 7.3055 78.5323 7.09933C78.9719 6.89376 79.4942 7.08299 79.7004 7.52193C79.906 7.96148 79.7167 8.48386 79.2778 8.69003C78.8383 8.8956 78.3153 8.70635 78.1097 8.26741Z" fill="white" fill-opacity="0.2"/>
<path d="M78.3091 8.69309C78.1036 8.25354 78.2928 7.73116 78.7318 7.52499C79.1713 7.31942 79.6937 7.50867 79.8999 7.94761C80.1054 8.38716 79.9162 8.90954 79.4772 9.11572C79.0377 9.32128 78.5147 9.13264 78.3091 8.69309Z" fill="white" fill-opacity="0.2"/>
<path d="M76.1411 17.81C76.3207 17.241 76.9277 16.926 77.4967 17.1056C78.0656 17.2852 78.3806 17.8922 78.201 18.4611C78.0215 19.0301 77.4144 19.3451 76.8455 19.1655C76.2766 18.9853 75.9616 18.3789 76.1411 17.81Z" fill="white" fill-opacity="0.2"/>
<path d="M75.967 18.3614C76.1466 17.7924 76.7536 17.4774 77.3226 17.657C77.8915 17.8366 78.2065 18.4436 78.027 19.0125C77.8474 19.5815 77.2404 19.8965 76.6714 19.7169C76.1025 19.5367 75.7869 18.9303 75.967 18.3614Z" fill="white" fill-opacity="0.2"/>
<path d="M73.6924 9.37997C73.5413 9.05772 73.6803 8.6744 74.0026 8.52325C74.3249 8.3727 74.7082 8.51116 74.8593 8.83341C75.0105 9.15567 74.8714 9.53898 74.5492 9.69014C74.2269 9.84129 73.8436 9.70223 73.6924 9.37997Z" fill="white" fill-opacity="0.2"/>
<path d="M73.8387 9.69198C73.6875 9.36973 73.8266 8.98641 74.1488 8.83526C74.4711 8.68411 74.8544 8.82315 75.0056 9.14541C75.1567 9.46766 75.0177 9.851 74.6954 10.0021C74.3731 10.1533 73.9898 10.0142 73.8387 9.69198Z" fill="white" fill-opacity="0.2"/>
<path d="M66.1916 18.2755C66.3717 18.1842 66.746 18.5609 67.0265 19.1165C67.1214 19.3045 67.1934 19.4889 67.2405 19.654C67.3324 19.9775 67.3276 20.2272 67.2079 20.2876C67.0277 20.3789 66.6535 20.0023 66.3729 19.4466C66.0924 18.891 66.0114 18.3668 66.1916 18.2755Z" fill="white" fill-opacity="0.2"/>
<path d="M67.2267 19.6074C67.2267 19.6074 67.0241 18.9901 66.7128 18.6159C66.8942 18.5173 67.1009 18.4037 67.3071 18.2846C67.3071 18.2846 67.5405 19.1382 67.451 19.5101L67.2267 19.6074Z" fill="white" fill-opacity="0.2"/>
<path d="M71.2394 23.3277C71.3488 23.1578 71.8621 23.2932 72.3851 23.6306C72.5623 23.7449 72.7177 23.867 72.8416 23.9855C73.0847 24.2177 73.2068 24.4359 73.1342 24.5484C73.0248 24.7183 72.5115 24.5829 71.9885 24.2455C71.4655 23.9081 71.13 23.4976 71.2394 23.3277Z" fill="white" fill-opacity="0.2"/>
<path d="M72.8066 23.9515C72.8066 23.9515 72.3574 23.4896 71.8616 23.3566C71.9789 23.1849 72.0968 22.9914 72.2141 22.784C72.2141 22.784 72.835 23.3862 72.9463 23.7526L72.8066 23.9515Z" fill="white" fill-opacity="0.2"/>
<path d="M76.3356 27.1487C76.3477 26.9467 76.861 26.8131 77.4826 26.8506C77.693 26.8633 77.8883 26.8935 78.0545 26.9359C78.3798 27.0193 78.5938 27.1493 78.586 27.2829C78.5739 27.4849 78.0606 27.6185 77.439 27.581C76.8181 27.5441 76.3235 27.3506 76.3356 27.1487Z" fill="white" fill-opacity="0.2"/>
<path d="M78.0074 26.9238C78.0074 26.9238 77.3719 26.7878 76.8919 26.8694C76.8979 26.6632 76.9039 26.4268 76.9045 26.1892C76.9045 26.1892 77.7595 26.4166 78.0364 26.6814L78.0074 26.9238Z" fill="white" fill-opacity="0.2"/>
<path d="M83.1485 25.4619C83.0566 25.2817 83.4321 24.9069 83.9865 24.6239C84.174 24.5284 84.3584 24.4552 84.5234 24.4081C84.8463 24.3149 85.0966 24.3186 85.1571 24.4383C85.249 24.6184 84.8735 24.9933 84.3191 25.2763C83.7646 25.5586 83.2404 25.6421 83.1485 25.4619Z" fill="white" fill-opacity="0.2"/>
<path d="M84.4761 24.4213C84.4761 24.4213 83.8509 24.5773 83.4869 24.9388C83.3974 24.7508 83.2892 24.5519 83.1695 24.3463C83.1695 24.3463 84.0021 24.1129 84.3745 24.2006L84.4761 24.4213Z" fill="white" fill-opacity="0.2"/>
<path d="M72.5279 12.4368C72.5636 11.701 72.9947 11.1236 73.4892 11.1478C73.9844 11.172 74.3568 11.7881 74.3206 12.5245C74.2849 13.2603 73.8544 13.8377 73.3592 13.8135C72.8641 13.7893 72.4916 13.1726 72.5279 12.4368Z" fill="white" fill-opacity="0.2"/>
<path d="M72.3332 12.9266C72.3695 12.1908 72.8 11.6134 73.2951 11.6376C73.7903 11.6618 74.1627 12.2779 74.1265 13.0137C74.0908 13.7495 73.6603 14.3269 73.1651 14.3027C72.6694 14.2792 72.2969 13.6631 72.3332 12.9266Z" fill="white" fill-opacity="0.2"/>
<path d="M78.0002 14.5681C77.6877 13.9006 77.9748 13.1068 78.6423 12.7936C79.3098 12.481 80.1043 12.7688 80.4168 13.4356C80.7294 14.1031 80.4422 14.897 79.7748 15.2096C79.1073 15.5222 78.3128 15.2356 78.0002 14.5681Z" fill="white" fill-opacity="0.2"/>
<path d="M78.3291 15.2707C78.0165 14.6032 78.3043 13.8094 78.9712 13.4968C79.6387 13.1842 80.4325 13.4714 80.7457 14.1389C81.0583 14.8064 80.7711 15.6002 80.1036 15.9128C79.4361 16.2254 78.6417 15.9382 78.3291 15.2707Z" fill="white" fill-opacity="0.2"/>
<path d="M71.7726 9.42407C71.6777 9.35877 71.7037 9.1151 71.8712 8.73662C72.0375 8.35753 72.3603 7.85331 72.8597 7.30795C73.1082 7.03406 73.4075 6.75896 73.7467 6.48265C74.0919 6.21541 74.4758 5.94335 74.9093 5.70453C75.7709 5.21903 76.8151 4.83631 77.959 4.664C79.1047 4.50196 80.2148 4.57089 81.1797 4.78976C81.6634 4.89436 82.109 5.04611 82.5165 5.20331C82.9204 5.37078 83.2856 5.54975 83.6024 5.74081C84.2366 6.1211 84.6901 6.51229 84.9579 6.82789C85.2263 7.14349 85.3213 7.36901 85.2487 7.45849C85.0897 7.65559 84.3333 7.24385 83.0957 6.84178C82.7873 6.7396 82.4451 6.6465 82.08 6.55581C81.7112 6.4754 81.3194 6.39317 80.9022 6.3448C80.0709 6.23779 79.15 6.22811 78.2069 6.35991C77.2655 6.5026 76.3864 6.77529 75.6204 7.11508C75.2346 7.28074 74.8827 7.47179 74.552 7.65378C74.2273 7.84484 73.9262 8.03165 73.6602 8.21787C72.5889 8.9567 71.9806 9.56736 71.7726 9.42407Z" fill="white" fill-opacity="0.2"/>
<g opacity="0.2">
<path d="M86.7899 10.4507C86.3709 10.6714 85.8619 10.5275 85.6527 10.1303C85.4435 9.73242 85.6134 9.2312 86.0324 9.01112C86.4507 8.79044 86.9604 8.93434 87.1696 9.33217C87.3788 9.72879 87.2083 10.23 86.7899 10.4507Z" fill="white" fill-opacity="0.2"/>
</g>
</svg>
