<svg width="315" height="258" viewBox="0 0 315 258" fill="none" xmlns="http://www.w3.org/2000/svg">
<mask id="mask0_182_10" style="mask-type:alpha" maskUnits="userSpaceOnUse" x="0" y="0" width="315" height="258">
<rect width="315" height="258" fill="#D9D9D9"/>
</mask>
<g mask="url(#mask0_182_10)">
<path d="M90.4247 120.688C88.9314 116.906 85.3099 114.243 81.1284 114.243C78.1043 114.243 75.3788 115.633 73.5494 117.832C71.048 111.928 65.2985 107.76 58.6529 107.76C56.3008 107.76 54.0607 108.3 52.0446 109.226C48.6472 103.669 42.6736 99.925 35.8414 99.925C25.9103 99.925 17.734 107.759 16.8006 117.755C14.9712 115.633 12.2831 114.243 9.29635 114.243C5.11486 114.243 1.49339 116.906 0 120.688H90.4247Z" fill="#8BBCFF"/>
<path d="M291.36 88.8103C288.336 88.8103 285.61 90.1996 283.781 92.3994C281.242 86.4561 275.53 82.3266 268.884 82.3266C266.532 82.3266 264.292 82.8283 262.276 83.7931C258.879 78.1971 252.905 74.4921 246.073 74.4921C236.142 74.4921 227.965 82.288 227.032 92.3223C225.203 90.161 222.515 88.8103 219.528 88.8103C215.309 88.8103 211.725 91.4732 210.231 95.2554H300.619C299.125 91.4732 295.541 88.8103 291.36 88.8103Z" fill="#8BBCFF"/>
<path d="M107.226 26.0574C107.226 26.0574 103.978 21.5034 107.749 12.9742C111.52 4.4837 112.042 1.04889 121.973 1.82075C125.035 2.09091 126.752 4.32932 124.624 8.49741C123.131 11.4691 125.632 16.1389 125.707 18.6475C125.968 25.5943 121.6 26.5591 118.688 26.0188C109.093 24.2435 107.226 26.0574 107.226 26.0574Z" fill="#152A3B"/>
<path d="M120.553 19.2649C120.553 19.2649 127.05 24.4364 133.434 25.4784C142.917 27.0222 145.045 26.7906 147.397 25.9801C149.749 25.2083 150.72 26.4819 150.421 27.9098C150.085 29.3378 150.832 35.1654 138.922 36.3232C127.012 37.481 117.492 33.6988 118.015 28.5659C118.5 23.433 120.553 19.2649 120.553 19.2649Z" fill="#FFBB00"/>
<path d="M105.806 20.3069C105.806 20.3069 99.3472 33.9689 99.3472 42.0735C99.3472 50.4097 108.494 54.5778 108.494 54.5778C108.494 54.5778 112.937 31.8463 112.34 28.2571C111.705 24.6679 105.806 20.3069 105.806 20.3069Z" fill="#FFBB00"/>
<path d="M127.835 43.7717C116.671 45.1225 108.047 42.8069 108.047 42.8069C108.047 42.8069 102.596 23.1242 105.807 20.3069C107.524 18.8018 110.437 18.2615 113.61 18.3001H113.685C114.332 18.3001 114.967 18.3258 115.589 18.3773H115.626C116.784 18.4544 117.978 18.5702 119.136 18.7632C119.285 18.7889 119.422 18.8147 119.546 18.8404C121.674 19.1877 125.744 25.2855 125.744 25.2855C125.744 25.2855 126.603 23.24 126.043 26.3275C122.869 43.6945 138.998 42.4209 127.835 43.7717Z" fill="#FFBB00"/>
<path d="M118.612 15.7915C118.612 15.7915 117.791 17.644 118.612 18.686C119.396 19.6894 118.575 21.8121 116.783 21.7349C114.954 21.6577 112.9 20.2297 112.863 18.7632C112.788 17.3352 114.468 14.0934 114.468 14.0934L118.612 15.7915Z" fill="#FFC09C"/>
<path d="M113.46 5.48705C113.46 5.48705 111.444 10.6586 114.767 14.9038C116.297 16.9107 118.127 16.7177 120.367 14.0934C120.964 13.3601 121.562 12.3953 121.898 10.8515C122.159 9.65513 122.308 8.72889 122.346 8.0728C122.495 6.56766 122.57 5.83439 121.898 4.71518C120.591 2.59254 115.401 0.817246 113.46 5.48705Z" fill="#FFD8BC"/>
<path d="M122.72 3.90473C122.72 3.90473 122.832 0.585703 117.455 0.0453958C114.618 -0.224758 112.341 0.585703 108.906 5.91159C108.383 6.72205 105.508 9.03765 105.508 9.03765C105.508 9.03765 99.46 12.2023 101.215 16.7949C103.007 21.5419 98.6387 21.5805 98.5267 24.7452C98.3773 29.222 107.748 32.2323 111.258 19.921C117.455 -2.11583 122.72 3.90473 122.72 3.90473Z" fill="#152A3B"/>
<path d="M121.674 2.55402C121.674 2.55402 122.085 6.49055 118.575 7.49398C118.575 7.49398 117.082 7.64835 116.895 8.69037C116.709 9.6938 117.231 11.5077 115.999 13.6303C114.767 15.753 114.058 14.6338 112.714 18.6475C111.631 21.8507 109.204 18.4545 111.781 13.5917C114.394 8.69037 115.85 1.24185 121.674 2.55402Z" fill="#152A3B"/>
<path d="M315.292 251.366C315.292 255.264 247.753 258.428 164.46 258.428C81.1284 258.428 13.6272 255.264 13.6272 251.366C13.6272 247.468 81.1284 244.342 164.46 244.342C247.753 244.342 315.292 247.468 315.292 251.366Z" fill="#EDEBFF"/>
<path d="M13.6272 251.365H315.292C315.292 251.365 312.753 233.535 297.073 234.307C281.392 235.079 288.56 215.203 268.81 196.37C254.25 182.476 223.038 182.206 205.005 200.461C186.935 218.715 102.409 195.019 77.8056 208.913C53.202 222.806 62.909 235.928 44.9884 233.612C27.0677 231.297 15.1206 242.103 13.6272 251.365Z" fill="#8BBCFF"/>
<path d="M230.505 249.822V45.5469C230.505 44.6979 229.87 44.0032 229.011 44.0032H83.2937C82.4723 44.0032 81.8003 44.6979 81.8003 45.5469V249.822C81.8003 250.671 82.4723 251.365 83.2937 251.365H229.011C229.87 251.365 230.505 250.671 230.505 249.822Z" fill="#106EEA"/>
<path d="M90.9102 243.763V53.4201H223.15V243.763H90.9102Z" fill="#1460C6"/>
<path d="M90.9102 241.949V53.4201H221.432V241.949H90.9102Z" fill="white"/>
<path d="M186.935 119.723H109.764V106.332H186.935V119.723Z" fill="#8BBCFF"/>
<path d="M186.935 152.721H109.764V139.329H186.935V152.721Z" fill="#8BBCFF"/>
<path d="M211.501 152.798H198.509V139.329H211.501V152.798Z" fill="#8BBCFF"/>
<path d="M186.935 185.718H109.764V172.326H186.935V185.718Z" fill="#8BBCFF"/>
<path d="M211.501 185.795H198.509V172.326H211.501V185.795Z" fill="#8BBCFF"/>
<path d="M186.935 218.716H109.764V205.324H186.935V218.716Z" fill="#8BBCFF"/>
<path d="M211.501 218.793H198.509V205.324H211.501V218.793Z" fill="#8BBCFF"/>
<path fill-rule="evenodd" clip-rule="evenodd" d="M183.575 47.0908H129.365L129.999 43.7718L130.261 42.4982L130.373 41.8807L130.746 39.8353L132.501 30.8044C132.949 28.5274 134.106 27.0223 135.413 27.0223H177.527C178.833 27.0223 180.028 28.5274 180.439 30.8044L182.193 39.8353L182.567 41.8807L182.679 42.4982L182.94 43.7718L183.575 47.0908ZM158.822 35.0497C158.822 33.6989 157.776 32.6183 156.47 32.6183C155.163 32.6183 154.118 33.6989 154.118 35.0497C154.118 36.4005 155.163 37.5197 156.47 37.5197C157.776 37.5197 158.822 36.4005 158.822 35.0497Z" fill="#106EEA"/>
<path d="M182.94 43.7717H130L130.261 42.4981L130.373 41.8806H182.567L182.679 42.4981L182.94 43.7717Z" fill="#1460C6"/>
<path d="M267.242 49.9852C267.242 53.2656 264.666 55.9672 261.455 55.9672C258.281 55.9672 255.668 53.2656 255.668 49.9852C255.668 46.6661 258.281 44.0032 261.455 44.0032C264.666 44.0032 267.242 46.6661 267.242 49.9852Z" fill="#FFCC26"/>
<path d="M188.204 78.9688L112.041 91.6275L109.987 78.4285L186.15 65.7699L188.204 78.9688Z" fill="#8BBCFF"/>
<path d="M134.48 41.6106H106.59C105.956 41.6106 105.433 42.1509 105.433 42.807C105.433 43.463 105.956 44.0034 106.59 44.0034H134.48C135.114 44.0034 135.637 43.463 135.637 42.807C135.637 42.1509 135.114 41.6106 134.48 41.6106Z" fill="#37363E"/>
<path d="M166.214 20.4226H133.397C132.314 20.4226 131.344 21.0787 130.858 22.0822L120.442 44.0032H157.217L167.446 22.4295C167.894 21.5033 167.222 20.4226 166.214 20.4226Z" fill="#8BBCFF"/>
<path d="M146.687 33.2743C146.314 34.0847 145.455 34.4707 144.746 34.1233C144.074 33.776 143.813 32.8497 144.186 32.0393C144.559 31.2288 145.418 30.8429 146.127 31.1902C146.837 31.5376 147.061 32.5024 146.687 33.2743Z" fill="#37363E"/>
<path d="M83.6677 39.6808C82.2863 39.6808 81.1662 40.8386 81.1662 42.2279L45.2129 251.597C45.2129 253.025 46.3329 254.183 47.7143 254.183C49.0584 254.183 50.1784 253.025 50.1784 251.597L86.1691 42.2279C86.1691 40.8386 85.0491 39.6808 83.6677 39.6808Z" fill="#EDEBFF"/>
<path d="M122.869 39.6808C121.487 39.6808 120.367 40.8386 120.367 42.2279L84.4141 251.597C84.4141 253.025 85.5341 254.183 86.8782 254.183C88.2595 254.183 89.3796 253.025 89.3796 251.597L125.37 42.2279C125.37 40.8386 124.25 39.6808 122.869 39.6808Z" fill="#EDEBFF"/>
<path d="M93.8591 209.955H53.0522V215.551H93.8591V209.955Z" fill="#EDEBFF"/>
<path d="M102.297 164.801H61.4902V170.435H102.297V164.801Z" fill="#EDEBFF"/>
<path d="M110.772 119.646H69.9648V125.281H110.772V119.646Z" fill="#EDEBFF"/>
<path d="M119.21 74.4921H78.4028V80.1267H119.21V74.4921Z" fill="#EDEBFF"/>
<path d="M274.074 183.711C274.074 183.711 274.672 186.181 274.597 186.76C274.522 187.339 272.88 191.044 272.88 191.044C272.88 191.044 269.743 189.886 269.445 188.381C269.183 186.837 272.506 183.711 272.506 183.711H274.074Z" fill="#FFD8BC"/>
<path d="M277.846 189.23L267.504 253.102L257.162 251.288L267.504 187.416L277.846 189.23Z" fill="#EDEBFF"/>
<path d="M272.021 184.367C272.021 184.367 272.656 186.258 271.536 186.876C270.416 187.493 270.154 187.725 270.154 187.725C270.154 187.725 269.706 189.578 269.258 189.539C268.81 189.5 268.885 186.915 269.258 186.567C269.594 186.181 271.312 183.441 271.312 183.441L272.021 184.367Z" fill="#FFD8BC"/>
<path d="M249.918 147.704C251.225 146.353 252.793 143.69 254.622 143.999C256.601 144.346 263.097 147.009 268.735 153.956C276.351 163.334 276.911 183.711 274.298 184.676C273.701 184.908 271.834 184.869 270.975 184.445C270.564 184.213 270.303 183.788 270.303 183.287C270.154 179.929 268.399 166.846 265.674 164.029C251.71 149.518 242.302 155.345 249.918 147.704Z" fill="#F7AD00"/>
<path d="M225.688 110.963L213.368 115.247L209.224 102.511L221.581 98.2269L225.688 110.963Z" fill="#8BBCFF"/>
<path d="M255.518 193.128C254.398 212.965 250.291 250.169 250.291 250.169C250.242 250.195 250.204 250.208 250.179 250.208C247.641 251.134 247.379 250.246 246.521 250.362C246.11 250.401 242.19 206.559 243.496 180.122L256.078 183.132C257.161 190.62 255.966 190.156 255.518 193.128Z" fill="#0F1D29"/>
<path d="M262.053 194.633C261.941 210.109 274.634 238.398 276.165 244.341C276.613 245.962 274.522 247.545 273.738 247.931C273.365 248.124 251.226 216.168 247.193 182.09L260.895 183.634C263.359 188.651 262.351 191.97 262.053 194.633Z" fill="#152A3B"/>
<path d="M258.916 145.581C258.916 145.581 257.124 142.262 257.274 139.483C257.423 136.705 257.274 135.084 257.274 135.084L252.122 137.978L251.972 144.925L258.916 145.581Z" fill="#FFCEAB"/>
<path d="M244.281 152.026C242.302 159.205 240.846 178.617 243.124 181.897C245.364 185.217 257.199 185.178 260.223 183.711C262.986 182.361 259.588 178.308 261.53 159.591C261.642 158.587 261.492 157.622 261.492 156.657C261.492 142.725 248.164 138.133 244.281 152.026Z" fill="#FFBB00"/>
<path d="M253.69 125.628C253.69 125.628 252.383 125.976 251.674 128.098C250.591 131.417 250.629 130.607 249.023 133.965C248.725 134.659 248.277 138.133 248.687 139.561C248.986 140.487 251.039 141.143 251.039 141.143C251.749 141.336 254.063 141.606 257.349 138.789C258.581 137.708 263.136 130.491 262.912 129.874C262.688 129.218 256.826 123.12 253.69 125.628Z" fill="#FFD8BC"/>
<path d="M260.596 132.807C260.596 132.807 258.431 132.498 257.535 131.803C256.639 131.07 251.897 128.021 251.412 126.091C250.927 124.162 252.159 122.85 252.159 122.85C252.159 122.85 253.129 123.737 254.474 124.085C256.34 124.548 264.218 125.744 264.031 130.684C264.031 130.684 261.642 133.038 260.596 132.807Z" fill="#152A3B"/>
<path d="M256.415 130.375C256.415 130.375 256.116 130.067 256.452 130.954C256.452 130.954 256.004 134.08 255.892 134.736C255.78 135.277 256.153 135.701 256.153 135.701C256.153 135.701 256.303 134.543 257.311 133.964C257.497 133.849 257.833 133.849 258.02 133.964C258.319 134.119 258.729 134.428 258.617 135.045C258.543 135.508 258.207 135.933 257.833 136.28C257.161 136.859 256.9 137.785 257.273 138.596L257.348 138.789C257.348 138.789 262.836 134.119 263.844 131.456C264.815 128.793 261.903 128.368 261.903 128.368L256.415 130.375Z" fill="#152A3B"/>
<path d="M258.917 145.581C258.917 145.581 261.344 149.633 261.493 156.657C261.493 156.657 248.538 144.616 250.33 142.802C250.33 142.802 255.893 143.999 258.917 145.581Z" fill="#FFBB00"/>
<path d="M271.685 255.533C271.685 255.533 271.163 255.919 272.395 252.369C273.291 249.899 273.515 247.583 272.731 246.657L276.128 244.11C276.128 244.11 277.771 247.815 277.398 248.316C277.062 248.818 271.909 255.804 271.685 255.533Z" fill="#0F1D29"/>
<path d="M222.366 115.748C222.366 115.748 218.446 112.468 218.707 111.696C218.931 110.924 220.723 107.103 221.022 106.988C221.32 106.872 223.187 106.949 223.374 107.296C223.56 107.605 226.622 110.654 226.584 111.349C226.547 112.005 225.651 115.594 225.651 115.594L222.366 115.748Z" fill="#FFD8BC"/>
<path d="M250.067 152.605C248.835 154.033 246.595 153.801 244.878 153.107C242.265 152.065 236.739 149.054 229.123 142.532C222.552 136.82 220.162 117.485 222.365 115.748C223.186 115.092 224.755 115.208 225.651 115.594C226.061 115.748 226.36 116.173 226.435 116.674C226.845 120.032 230.803 130.607 232.557 132.961C235.208 136.511 242.115 140.216 249.881 142.648C255.182 144.307 253.577 148.398 250.067 152.605Z" fill="#FFBB00"/>
<path d="M158.859 86.8419C158.859 86.8419 158.784 83.8703 159.233 83.4457C159.905 82.751 161.398 81.1687 161.547 81.2073C161.697 81.2459 161.958 81.6318 161.883 81.902C161.846 82.1721 161.398 83.4457 161.398 83.4457L165.915 82.6739C165.915 82.6739 165.206 84.7965 164.422 85.607C164.198 85.8385 161.323 88.5401 161.323 88.5401L158.859 86.8419Z" fill="#FFCEAB"/>
<path d="M97.2192 74.1446C97.2192 74.1446 98.8246 71.7132 100.505 71.5975C102.185 71.5203 105.47 72.4851 105.844 72.8711C106.217 73.257 106.404 74.492 106.404 74.492H101.811L97.2192 74.1446Z" fill="#FFCEAB"/>
<path d="M107.487 104.981C107.487 104.981 94.6809 95.3324 92.9261 88.3856C91.4701 82.4422 95.5769 73.7587 97.2196 74.1446C98.825 74.492 100.804 77.3093 100.804 77.3093C100.804 77.3093 99.5344 80.5897 100.132 83.2141C101.625 89.5434 114.095 94.329 114.095 94.329L115.999 97.1849" fill="#FFBB00"/>
<path d="M115.141 134.698C115.141 134.698 117.194 136.82 107.226 149.71C96.7345 170.049 92.5904 206.057 92.5904 206.057H88.7822C88.7822 206.057 87.6249 149.71 100.505 130.375L115.141 134.698Z" fill="#0F1D29"/>
<path d="M113.908 128.33C113.908 128.33 85.2725 121.383 76.9468 124.47C71.7573 126.362 78.0296 161.829 78.0296 161.829H81.539C81.539 161.829 84.2271 141.876 83.4804 136.357C83.2191 134.428 91.9927 142.841 103.567 142.725C109.391 142.687 111.705 132.807 111.705 132.807L113.908 128.33Z" fill="#152A3B"/>
<path d="M71.5328 164.723C71.5328 164.723 71.0475 164.607 74.4823 163.565C76.8717 162.832 77.6184 162.06 77.8797 160.903H81.6879C81.6879 160.903 82.2852 164.8 81.6879 164.8C81.0905 164.8 71.4582 165.032 71.5328 164.723Z" fill="#152A3B"/>
<path d="M82.4352 209.839C82.4352 209.839 81.9498 209.723 85.3846 208.681C87.7741 207.986 88.5207 207.176 88.7821 206.057H92.5902C92.5902 206.057 93.1876 209.916 92.5902 209.916C92.0302 209.916 82.3978 210.186 82.4352 209.839Z" fill="#0F1D29"/>
<path d="M103.491 74.1061C103.491 74.1061 103.529 74.492 103.753 74.6078C103.939 74.685 106.702 75.6112 106.74 75.8042C106.814 75.9971 106.852 76.8076 106.59 76.8076C106.329 76.8076 102.259 77.4251 102.073 77.3093C101.849 77.1935 100.803 77.3093 100.803 77.3093L97.2192 74.1447C97.2192 74.1447 102.521 72.9869 103.491 74.1061Z" fill="#FFCEAB"/>
<path d="M119.994 106.177C120.367 108.03 122.943 112.892 124.773 113.201C127.573 113.626 137.243 112.005 145.045 108.454C152.886 104.865 162.705 90.7399 161.622 88.1155C161.211 87.1121 159.793 86.4174 158.822 86.3017C158.374 86.2245 158.299 86.456 158.038 86.842C156.097 89.5821 147.211 96.7605 144.56 97.9183C140.565 99.6936 133.136 100.002 125.183 98.1884C119.77 96.9534 118.911 100.736 119.994 106.177Z" fill="#FFBB00"/>
<path d="M131.494 82.0949C131.494 82.0949 132.464 83.0211 132.054 85.2596C131.456 88.6944 131.792 87.9611 131.568 91.7046C131.531 92.4765 130.261 95.7184 129.216 96.7604C128.544 97.4165 126.416 96.9533 126.416 96.9533C125.707 96.7604 123.541 95.8341 122.048 91.7046C121.488 90.1609 120.928 81.516 121.413 81.0915C121.936 80.6669 129.925 78.3127 131.494 82.0949Z" fill="#FFCEAB"/>
<path d="M118.576 98.0726C118.576 98.0726 120.629 91.8205 121.824 89.3119C123.019 86.8419 123.877 88.5014 123.877 88.5014L126.677 91.8205L125.333 99.7707L118.576 98.0726Z" fill="#FFCEAB"/>
<path d="M120.293 93.2484C120.293 93.2484 120.219 83.2141 121.413 81.0915C122.645 78.9689 128.918 79.0075 132.166 80.7442C133.921 81.6704 135.339 81.4388 135.339 81.4388C135.339 81.4388 135.041 83.1755 133.137 83.8316C131.27 84.4877 130.224 86.5332 130.112 86.9963C130.038 87.498 127.312 93.3256 126.043 93.9431C124.774 94.522 120.891 94.715 120.293 93.2484Z" fill="#152A3B"/>
<path d="M132.948 109.342C131.194 116.597 118.761 135.508 115.102 136.859C106.889 139.908 94.8295 127.442 97.4056 125.281C102.072 121.344 101.064 117.524 105.657 105.714C109.502 95.8341 113.236 93.943 114.094 94.3289C128.879 100.851 135.823 97.5322 132.948 109.342Z" fill="#FFBB00"/>
<path d="M128.842 89.8136C128.842 89.8136 128.805 87.9997 128.058 87.9612C127.312 87.884 126.528 91.0872 126.938 91.4731C127.349 91.8591 128.021 91.8977 128.021 91.8977L128.842 89.8136Z" fill="#FFCEAB"/>
</g>
</svg>
